<svg width="1775" height="687" viewBox="0 0 1775 687" fill="none" xmlns="http://www.w3.org/2000/svg">
<g filter="url(#filter0_d_52_9)">
<path d="M996.624 577.609C996.645 579.772 994.835 581.544 992.582 581.566L784.321 583.63C782.067 583.653 780.223 581.917 780.202 579.754L778.22 379.856C778.199 377.692 780.009 375.92 782.263 375.898L990.523 373.834C992.777 373.812 994.621 375.547 994.643 377.711L996.624 577.609Z" fill="white"/>
<path d="M996.114 577.614C996.132 579.507 994.549 581.057 992.577 581.077L784.316 583.141C782.344 583.16 780.731 581.642 780.712 579.749L778.731 379.85C778.712 377.958 780.295 376.408 782.267 376.388L990.528 374.324C992.5 374.304 994.113 375.823 994.132 377.715L996.114 577.614Z" stroke="black"/>
</g>
<rect x="840.5" y="452.5" width="24" height="26" rx="3.5" fill="#0A0A0A" stroke="black"/>
<rect x="908.5" y="452.5" width="24" height="26" rx="3.5" fill="black" stroke="black"/>
<path d="M815 516.001V523.681C815 525.46 816.169 527.032 817.897 527.455C849.377 535.15 928.192 534.54 957.129 527.457C958.847 527.036 960 525.471 960 523.702V519.342V516C960 513.791 958.246 512 956.037 512H818.963C816.754 512 815 513.791 815 516.001Z" fill="white" stroke="black"/>
<g filter="url(#filter1_d_52_9)">
<path d="M609.562 150.062C609.354 150.146 608.021 150.604 605.562 151.438C603.146 152.271 600.042 153.083 596.25 153.875C592.458 154.667 588.375 155.062 584 155.062C576.833 155.062 570.479 153.833 564.938 151.375C559.396 148.875 554.708 145.5 550.875 141.25C547.083 137 544.208 132.188 542.25 126.812C540.292 121.396 539.312 115.75 539.312 109.875C539.312 101.042 541.188 93.2708 544.938 86.5625C548.688 79.8125 553.917 74.5417 560.625 70.75C567.375 66.9583 575.208 65.0625 584.125 65.0625C588.292 65.0625 592.271 65.5 596.062 66.375C599.896 67.25 604.396 68.4792 609.562 70.0625V90.125H601.875L600 78.5C599.958 77.9167 599.667 77.3333 599.125 76.75C598.625 76.125 598.188 75.7292 597.812 75.5625C596.854 75.1042 595.229 74.4375 592.938 73.5625C590.688 72.6875 587.958 72.25 584.75 72.25C578.958 72.25 573.729 73.6875 569.062 76.5625C564.438 79.3958 560.771 83.6042 558.062 89.1875C555.354 94.7708 554 101.667 554 109.875C554 121.792 556.875 131.125 562.625 137.875C568.375 144.625 576.312 148 586.438 148C589.438 148 591.875 147.646 593.75 146.938C595.625 146.229 596.625 145.854 596.75 145.812C598.083 145.312 598.896 144.458 599.188 143.25L602.125 129.312H609.562V150.062ZM649.125 153H618V148L624.812 147.625C625.396 147.583 626 147.271 626.625 146.688C627.292 146.062 627.625 145.479 627.625 144.938V67.875H617.875V63.625L634.25 58.6875H639.5V144.938C639.5 145.479 639.812 146.062 640.438 146.688C641.062 147.271 641.646 147.583 642.188 147.625L649.125 148V153ZM680.438 70.1875C680.438 72.3542 679.688 74.2292 678.188 75.8125C676.688 77.3542 674.854 78.125 672.688 78.125C670.521 78.125 668.646 77.3542 667.062 75.8125C665.521 74.2292 664.75 72.3542 664.75 70.1875C664.75 67.9792 665.521 66.125 667.062 64.625C668.646 63.125 670.521 62.375 672.688 62.375C674.854 62.375 676.688 63.125 678.188 64.625C679.688 66.125 680.438 67.9792 680.438 70.1875ZM687 153H656.938V148L663.188 147.625C664.979 147.5 665.875 146.562 665.875 144.812V99.125H657.062V94.625L672.688 89.75H677.75V144.812C677.75 145.604 678 146.271 678.5 146.812C679.042 147.312 679.688 147.583 680.438 147.625L687 148V153ZM749.812 146.625C746.229 148.833 742.354 150.708 738.188 152.25C734.062 153.792 729.833 154.562 725.5 154.562C720.333 154.562 715.479 153.417 710.938 151.125C706.438 148.792 702.792 145.271 700 140.562C697.208 135.854 695.812 129.938 695.812 122.812C695.812 116.146 697.104 110.333 699.688 105.375C702.271 100.417 705.833 96.5833 710.375 93.875C714.917 91.125 720.083 89.75 725.875 89.75C733.833 89.75 739.812 92.2292 743.812 97.1875C747.812 102.104 749.812 108.375 749.812 116C749.812 116.417 749.812 116.979 749.812 117.688C749.812 118.354 749.771 118.979 749.688 119.562H708.188C708.188 122.812 708.521 126.062 709.188 129.312C709.896 132.521 711.062 135.438 712.688 138.062C714.312 140.688 716.5 142.792 719.25 144.375C722 145.958 725.438 146.75 729.562 146.75C733.229 146.75 736.792 145.917 740.25 144.25C743.75 142.542 746.938 140.729 749.812 138.812V146.625ZM737 113.812V111C737 106.792 735.979 103.25 733.938 100.375C731.938 97.5 728.812 96.0625 724.562 96.0625C720.354 96.0625 716.771 97.6458 713.812 100.812C710.854 103.979 709.208 108.312 708.875 113.812H737ZM824.188 153H795.938V148L801.312 147.625C802.062 147.542 802.688 147.25 803.188 146.75C803.729 146.25 804 145.604 804 144.812V111.5C804 107.458 803.062 104.396 801.188 102.312C799.312 100.188 796.146 99.125 791.688 99.125C789.271 99.125 786.854 99.4792 784.438 100.188C782.062 100.854 779.792 101.729 777.625 102.812V144.812C777.625 146.562 778.521 147.5 780.312 147.625L785.688 148V153H756.75V148L763 147.625C764.792 147.5 765.688 146.562 765.688 144.812V100.375H756.75V96.1875L772.375 91.3125H777.625V97.6875C781.208 95.6458 784.875 93.8125 788.625 92.1875C792.417 90.5625 795.792 89.75 798.75 89.75C804.333 89.75 808.583 91.5 811.5 95C814.417 98.4583 815.875 103.292 815.875 109.5V144.812C815.875 145.604 816.125 146.25 816.625 146.75C817.167 147.25 817.812 147.542 818.562 147.625L824.188 148V153ZM869.438 150.312C869.438 150.312 868.625 150.667 867 151.375C865.417 152.083 863.312 152.792 860.688 153.5C858.104 154.208 855.271 154.562 852.188 154.562C847.396 154.562 843.896 153.438 841.688 151.188C839.521 148.896 838.438 145.229 838.438 140.188V97.6875H830.25V93.5L839 89.375L844.75 75.8125H850.375V91.3125H868.438V97.6875H850.375V133.438C850.375 138.521 851.229 142.125 852.938 144.25C854.646 146.333 857.208 147.375 860.625 147.375C863.125 147.375 865.208 147.021 866.875 146.312C868.583 145.562 869.438 145.188 869.438 145.188V150.312ZM986.688 72.625L979.75 73.875L954 116.5V144.188C954 144.812 954.229 145.417 954.688 146C955.146 146.583 955.812 146.917 956.688 147L964.875 147.5V153H930.312V147.5L938.25 147C939.167 146.917 939.854 146.583 940.312 146C940.812 145.417 941.062 144.812 941.062 144.188V118.438L916.5 74.125L909.062 72.625V67.125H939.438V72.625L933 73.25C932 73.375 931.438 73.7083 931.312 74.25C931.188 74.7917 931.25 75.3125 931.5 75.8125L949.562 109.25L969.375 76.1875C969.75 75.5625 969.75 74.9792 969.375 74.4375C969 73.8542 968.5 73.5417 967.875 73.5L960.688 72.625V67.125H986.688V72.625ZM1049.62 128.938C1049.62 133.229 1048.46 137.375 1046.12 141.375C1043.83 145.375 1040.19 148.667 1035.19 151.25C1030.23 153.792 1023.73 155.062 1015.69 155.062C1010.65 155.062 1006.06 154.521 1001.94 153.438C997.854 152.396 994.854 151.354 992.938 150.312V127.625H1001L1002.69 142.125C1002.77 142.625 1003.04 143.167 1003.5 143.75C1003.96 144.333 1004.4 144.729 1004.81 144.938C1006.15 145.604 1007.88 146.271 1010 146.938C1012.12 147.562 1014.71 147.875 1017.75 147.875C1023.21 147.875 1027.71 146.542 1031.25 143.875C1034.79 141.208 1036.56 137.5 1036.56 132.75C1036.56 129.792 1035.62 127.271 1033.75 125.188C1031.88 123.062 1029.25 121.062 1025.88 119.188C1022.54 117.312 1018.6 115.312 1014.06 113.188C1010.56 111.521 1007.31 109.75 1004.31 107.875C1001.31 105.958 998.896 103.604 997.062 100.812C995.229 98.0208 994.312 94.4583 994.312 90.125C994.312 85.0417 995.604 80.625 998.188 76.875C1000.77 73.125 1004.29 70.2292 1008.75 68.1875C1013.21 66.1042 1018.25 65.0625 1023.88 65.0625C1028.33 65.0625 1032.5 65.5625 1036.38 66.5625C1040.29 67.5208 1043.65 68.4792 1046.44 69.4375V89.375H1039.12L1037.19 77.125C1037.15 76.6667 1036.92 76.25 1036.5 75.875C1036.08 75.5 1035.69 75.1875 1035.31 74.9375C1034.65 74.4792 1033.46 73.875 1031.75 73.125C1030.04 72.375 1027.48 72 1024.06 72C1018.94 72 1014.9 73.4375 1011.94 76.3125C1008.98 79.1458 1007.5 82.7292 1007.5 87.0625C1007.5 90.9792 1009.02 94.2292 1012.06 96.8125C1015.15 99.3958 1019.56 101.792 1025.31 104C1033.06 106.917 1039.04 110.208 1043.25 113.875C1047.5 117.5 1049.62 122.521 1049.62 128.938ZM1172.56 72.625L1164.75 74.125L1145.19 155.062H1135.81L1114.44 84.125L1093.5 155.062H1084.25L1063.38 74.125L1055.94 72.625V67.125H1085.25V72.625L1077.62 73.375C1077.04 73.4167 1076.65 73.7083 1076.44 74.25C1076.23 74.7917 1076.19 75.3542 1076.31 75.9375L1091.56 133.688L1111.62 67.125H1121.5L1142.12 135.75L1156.31 75.9375C1156.44 75.3542 1156.33 74.7917 1156 74.25C1155.67 73.7083 1155.17 73.4167 1154.5 73.375L1146.44 72.625V67.125H1172.56V72.625ZM1235.62 128.938C1235.62 133.229 1234.46 137.375 1232.12 141.375C1229.83 145.375 1226.19 148.667 1221.19 151.25C1216.23 153.792 1209.73 155.062 1201.69 155.062C1196.65 155.062 1192.06 154.521 1187.94 153.438C1183.85 152.396 1180.85 151.354 1178.94 150.312V127.625H1187L1188.69 142.125C1188.77 142.625 1189.04 143.167 1189.5 143.75C1189.96 144.333 1190.4 144.729 1190.81 144.938C1192.15 145.604 1193.88 146.271 1196 146.938C1198.12 147.562 1200.71 147.875 1203.75 147.875C1209.21 147.875 1213.71 146.542 1217.25 143.875C1220.79 141.208 1222.56 137.5 1222.56 132.75C1222.56 129.792 1221.62 127.271 1219.75 125.188C1217.88 123.062 1215.25 121.062 1211.88 119.188C1208.54 117.312 1204.6 115.312 1200.06 113.188C1196.56 111.521 1193.31 109.75 1190.31 107.875C1187.31 105.958 1184.9 103.604 1183.06 100.812C1181.23 98.0208 1180.31 94.4583 1180.31 90.125C1180.31 85.0417 1181.6 80.625 1184.19 76.875C1186.77 73.125 1190.29 70.2292 1194.75 68.1875C1199.21 66.1042 1204.25 65.0625 1209.88 65.0625C1214.33 65.0625 1218.5 65.5625 1222.38 66.5625C1226.29 67.5208 1229.65 68.4792 1232.44 69.4375V89.375H1225.12L1223.19 77.125C1223.15 76.6667 1222.92 76.25 1222.5 75.875C1222.08 75.5 1221.69 75.1875 1221.31 74.9375C1220.65 74.4792 1219.46 73.875 1217.75 73.125C1216.04 72.375 1213.48 72 1210.06 72C1204.94 72 1200.9 73.4375 1197.94 76.3125C1194.98 79.1458 1193.5 82.7292 1193.5 87.0625C1193.5 90.9792 1195.02 94.2292 1198.06 96.8125C1201.15 99.3958 1205.56 101.792 1211.31 104C1219.06 106.917 1225.04 110.208 1229.25 113.875C1233.5 117.5 1235.62 122.521 1235.62 128.938ZM736.504 271H717.52V267.906L721.809 267.625C722.324 267.578 722.699 267.391 722.934 267.062C723.191 266.734 723.32 266.395 723.32 266.043V227.652C723.32 227.301 723.191 226.973 722.934 226.668C722.699 226.34 722.324 226.164 721.809 226.141L717.52 225.859V222.695H736.504V225.859L732.109 226.141C731.617 226.164 731.242 226.34 730.984 226.668C730.727 226.973 730.598 227.301 730.598 227.652V266.043C730.598 266.395 730.727 266.734 730.984 267.062C731.242 267.391 731.617 267.578 732.109 267.625L736.504 267.906V271ZM762.871 269.488C762.871 269.488 762.414 269.688 761.5 270.086C760.609 270.484 759.426 270.883 757.949 271.281C756.496 271.68 754.902 271.879 753.168 271.879C750.473 271.879 748.504 271.246 747.262 269.98C746.043 268.691 745.434 266.629 745.434 263.793V239.887H740.828V237.531L745.75 235.211L748.984 227.582H752.148V236.301H762.309V239.887H752.148V259.996C752.148 262.855 752.629 264.883 753.59 266.078C754.551 267.25 755.992 267.836 757.914 267.836C759.32 267.836 760.492 267.637 761.43 267.238C762.391 266.816 762.871 266.605 762.871 266.605V269.488ZM778.34 226.633C778.34 228.391 778.023 230.008 777.391 231.484C776.758 232.938 775.984 234.238 775.07 235.387C774.18 236.512 773.301 237.461 772.434 238.234C771.566 239.008 770.898 239.605 770.43 240.027L767.758 239.465C769.375 237.871 770.781 236.172 771.977 234.367C773.195 232.539 773.781 230.594 773.734 228.531C773.734 228.344 773.723 228.121 773.699 227.863C773.676 227.605 773.664 227.395 773.664 227.23H769.129C769.129 227.23 768.941 226.961 768.566 226.422C768.215 225.859 768.039 225.168 768.039 224.348C768.039 223.105 768.414 222.062 769.164 221.219C769.938 220.375 771.004 219.953 772.363 219.953C774.168 219.953 775.609 220.551 776.688 221.746C777.789 222.918 778.34 224.547 778.34 226.633ZM806.289 245.582H802.527L801.965 240.555C801.449 240.156 800.688 239.781 799.68 239.43C798.672 239.078 797.605 238.902 796.48 238.902C794.512 238.902 793.047 239.359 792.086 240.273C791.125 241.164 790.645 242.312 790.645 243.719C790.645 244.797 790.891 245.711 791.383 246.461C791.875 247.211 792.707 247.949 793.879 248.676C795.051 249.379 796.645 250.199 798.66 251.137C801.168 252.285 803.242 253.562 804.883 254.969C806.523 256.352 807.344 258.215 807.344 260.559C807.344 264.098 806.125 266.875 803.688 268.891C801.25 270.883 797.887 271.879 793.598 271.879C791.395 271.879 789.355 271.645 787.48 271.176C785.629 270.73 784.34 270.355 783.613 270.051V260.488H787.27L788.148 266.605C788.875 267.074 789.766 267.531 790.82 267.977C791.898 268.398 793.141 268.609 794.547 268.609C796.609 268.609 798.203 268.035 799.328 266.887C800.453 265.738 801.016 264.449 801.016 263.02C801.016 261.145 800.242 259.68 798.695 258.625C797.172 257.547 795.016 256.34 792.227 255.004C789.602 253.738 787.586 252.438 786.18 251.102C784.797 249.766 784.105 248.02 784.105 245.863C784.105 242.652 785.23 240.109 787.48 238.234C789.73 236.359 792.93 235.422 797.078 235.422C799.188 235.422 801.062 235.621 802.703 236.02C804.367 236.395 805.562 236.746 806.289 237.074V245.582ZM856.07 245.582H852.309L851.746 240.555C851.23 240.156 850.469 239.781 849.461 239.43C848.453 239.078 847.387 238.902 846.262 238.902C844.293 238.902 842.828 239.359 841.867 240.273C840.906 241.164 840.426 242.312 840.426 243.719C840.426 244.797 840.672 245.711 841.164 246.461C841.656 247.211 842.488 247.949 843.66 248.676C844.832 249.379 846.426 250.199 848.441 251.137C850.949 252.285 853.023 253.562 854.664 254.969C856.305 256.352 857.125 258.215 857.125 260.559C857.125 264.098 855.906 266.875 853.469 268.891C851.031 270.883 847.668 271.879 843.379 271.879C841.176 271.879 839.137 271.645 837.262 271.176C835.41 270.73 834.121 270.355 833.395 270.051V260.488H837.051L837.93 266.605C838.656 267.074 839.547 267.531 840.602 267.977C841.68 268.398 842.922 268.609 844.328 268.609C846.391 268.609 847.984 268.035 849.109 266.887C850.234 265.738 850.797 264.449 850.797 263.02C850.797 261.145 850.023 259.68 848.477 258.625C846.953 257.547 844.797 256.34 842.008 255.004C839.383 253.738 837.367 252.438 835.961 251.102C834.578 249.766 833.887 248.02 833.887 245.863C833.887 242.652 835.012 240.109 837.262 238.234C839.512 236.359 842.711 235.422 846.859 235.422C848.969 235.422 850.844 235.621 852.484 236.02C854.148 236.395 855.344 236.746 856.07 237.074V245.582ZM875.301 224.418C875.301 225.637 874.879 226.691 874.035 227.582C873.191 228.449 872.16 228.883 870.941 228.883C869.723 228.883 868.668 228.449 867.777 227.582C866.91 226.691 866.477 225.637 866.477 224.418C866.477 223.176 866.91 222.133 867.777 221.289C868.668 220.445 869.723 220.023 870.941 220.023C872.16 220.023 873.191 220.445 874.035 221.289C874.879 222.133 875.301 223.176 875.301 224.418ZM878.992 271H862.082V268.188L865.598 267.977C866.605 267.906 867.109 267.379 867.109 266.395V240.695H862.152V238.164L870.941 235.422H873.789V266.395C873.789 266.84 873.93 267.215 874.211 267.52C874.516 267.801 874.879 267.953 875.301 267.977L878.992 268.188V271ZM941.113 271H924.977V268.188L928 267.977C929.008 267.906 929.512 267.379 929.512 266.395V248.043C929.512 245.816 929.043 244.035 928.105 242.699C927.191 241.363 925.527 240.695 923.113 240.695C921.918 240.695 920.605 240.883 919.176 241.258C917.77 241.633 916.516 242.113 915.414 242.699V266.395C915.414 267.379 915.918 267.906 916.926 267.977L919.949 268.188V271H904.164V268.188L907.188 267.977C908.195 267.906 908.699 267.379 908.699 266.395V247.586C908.699 245.547 908.219 243.895 907.258 242.629C906.297 241.34 904.668 240.695 902.371 240.695C901.012 240.695 899.594 240.93 898.117 241.398C896.641 241.844 895.492 242.301 894.672 242.77V266.395C894.672 267.379 895.176 267.906 896.184 267.977L899.207 268.188V271H882.93V268.188L886.445 267.977C887.453 267.906 887.957 267.379 887.957 266.395V241.398H883V239.043L891.719 236.301H894.672V239.887C895.75 239.23 896.957 238.562 898.293 237.883C899.652 237.203 901.035 236.629 902.441 236.16C903.848 235.668 905.172 235.422 906.414 235.422C908.5 235.422 910.188 235.961 911.477 237.039C912.766 238.094 913.715 239.219 914.324 240.414C915.285 239.805 916.504 239.113 917.98 238.34C919.457 237.543 920.98 236.863 922.551 236.301C924.145 235.715 925.574 235.422 926.84 235.422C929.371 235.422 931.305 236.008 932.641 237.18C933.977 238.328 934.891 239.758 935.383 241.469C935.875 243.156 936.121 244.82 936.121 246.461V266.395C936.121 266.84 936.262 267.203 936.543 267.484C936.848 267.766 937.211 267.93 937.633 267.977L941.113 268.188V271ZM980.523 253.141C980.523 256.914 979.797 260.207 978.344 263.02C976.891 265.832 974.805 268.012 972.086 269.559C969.367 271.105 966.109 271.879 962.312 271.879C961.234 271.879 960.168 271.809 959.113 271.668C958.059 271.527 956.992 271.375 955.914 271.211V281.934C955.914 282.379 956.066 282.73 956.371 282.988C956.676 283.246 957.051 283.398 957.496 283.445L961.75 283.902V286.68H944.242V283.902L947.688 283.445C948.695 283.328 949.199 282.824 949.199 281.934V241.398H944.242V239.043L953.102 236.301H955.914V239.887C957.555 238.621 959.324 237.566 961.223 236.723C963.121 235.855 964.973 235.422 966.777 235.422C969.262 235.422 971.535 236.16 973.598 237.637C975.684 239.09 977.359 241.141 978.625 243.789C979.891 246.438 980.523 249.555 980.523 253.141ZM973.316 254.16C973.316 251.676 972.93 249.402 972.156 247.34C971.406 245.277 970.281 243.625 968.781 242.383C967.305 241.117 965.465 240.484 963.262 240.484C962.043 240.484 960.777 240.707 959.465 241.152C958.152 241.598 956.969 242.09 955.914 242.629V267.414C957.883 268.164 959.828 268.539 961.75 268.539C964.398 268.539 966.566 267.859 968.254 266.5C969.965 265.141 971.23 263.371 972.051 261.191C972.895 258.988 973.316 256.645 973.316 254.16ZM1002.46 271H984.953V268.188L988.785 267.977C989.113 267.953 989.453 267.777 989.805 267.449C990.18 267.098 990.367 266.77 990.367 266.465V223.117H984.883V220.727L994.094 217.949H997.047V266.465C997.047 266.77 997.223 267.098 997.574 267.449C997.926 267.777 998.254 267.953 998.559 267.977L1002.46 268.188V271ZM1037.23 267.414C1035.21 268.656 1033.04 269.711 1030.69 270.578C1028.37 271.445 1025.99 271.879 1023.55 271.879C1020.65 271.879 1017.92 271.234 1015.36 269.945C1012.83 268.633 1010.78 266.652 1009.21 264.004C1007.64 261.355 1006.86 258.027 1006.86 254.02C1006.86 250.27 1007.58 247 1009.04 244.211C1010.49 241.422 1012.49 239.266 1015.05 237.742C1017.6 236.195 1020.51 235.422 1023.77 235.422C1028.24 235.422 1031.61 236.816 1033.86 239.605C1036.11 242.371 1037.23 245.898 1037.23 250.188C1037.23 250.422 1037.23 250.738 1037.23 251.137C1037.23 251.512 1037.21 251.863 1037.16 252.191H1013.82C1013.82 254.02 1014 255.848 1014.38 257.676C1014.78 259.48 1015.43 261.121 1016.35 262.598C1017.26 264.074 1018.49 265.258 1020.04 266.148C1021.59 267.039 1023.52 267.484 1025.84 267.484C1027.9 267.484 1029.91 267.016 1031.85 266.078C1033.82 265.117 1035.61 264.098 1037.23 263.02V267.414ZM1030.02 248.957V247.375C1030.02 245.008 1029.45 243.016 1028.3 241.398C1027.18 239.781 1025.42 238.973 1023.03 238.973C1020.66 238.973 1018.64 239.863 1016.98 241.645C1015.32 243.426 1014.39 245.863 1014.2 248.957H1030.02ZM1053.79 267.027C1053.79 268.363 1053.31 269.512 1052.35 270.473C1051.39 271.41 1050.24 271.879 1048.9 271.879C1047.57 271.879 1046.43 271.41 1045.49 270.473C1044.55 269.512 1044.09 268.363 1044.09 267.027C1044.09 265.715 1044.55 264.59 1045.49 263.652C1046.43 262.691 1047.57 262.211 1048.9 262.211C1050.24 262.211 1051.39 262.691 1052.35 263.652C1053.31 264.59 1053.79 265.715 1053.79 267.027Z" fill="black"/>
</g>
<defs>
<filter id="filter0_d_52_9" x="742.22" y="341.834" width="290.403" height="281.797" filterUnits="userSpaceOnUse" color-interpolation-filters="sRGB">
<feFlood flood-opacity="0" result="BackgroundImageFix"/>
<feColorMatrix in="SourceAlpha" type="matrix" values="0 0 0 0 0 0 0 0 0 0 0 0 0 0 0 0 0 0 127 0" result="hardAlpha"/>
<feOffset dy="4"/>
<feGaussianBlur stdDeviation="18"/>
<feComposite in2="hardAlpha" operator="out"/>
<feColorMatrix type="matrix" values="0 0 0 0 0 0 0 0 0 0 0 0 0 0 0 0 0 0 0.25 0"/>
<feBlend mode="normal" in2="BackgroundImageFix" result="effect1_dropShadow_52_9"/>
<feBlend mode="normal" in="SourceGraphic" in2="effect1_dropShadow_52_9" result="shape"/>
</filter>
<filter id="filter1_d_52_9" x="520.312" y="43.6875" width="734.312" height="265.992" filterUnits="userSpaceOnUse" color-interpolation-filters="sRGB">
<feFlood flood-opacity="0" result="BackgroundImageFix"/>
<feColorMatrix in="SourceAlpha" type="matrix" values="0 0 0 0 0 0 0 0 0 0 0 0 0 0 0 0 0 0 127 0" result="hardAlpha"/>
<feOffset dy="4"/>
<feGaussianBlur stdDeviation="9.5"/>
<feComposite in2="hardAlpha" operator="out"/>
<feColorMatrix type="matrix" values="0 0 0 0 0.575801 0 0 0 0 0 0 0 0 0 0.556608 0 0 0 1 0"/>
<feBlend mode="normal" in2="BackgroundImageFix" result="effect1_dropShadow_52_9"/>
<feBlend mode="normal" in="SourceGraphic" in2="effect1_dropShadow_52_9" result="shape"/>
</filter>
</defs>
</svg>
