<svg width="1634" height="1100" viewBox="0 0 1634 1100" fill="none" xmlns="http://www.w3.org/2000/svg">
<path d="M140.699 86H122.523V82.9062L126.355 82.625C126.871 82.5781 127.258 82.3906 127.516 82.0625C127.797 81.7344 127.938 81.3945 127.938 81.043V41.3516L111.379 86H107.793L91.7969 42.0195V81.043C91.7969 81.3945 91.9258 81.7344 92.1836 82.0625C92.4648 82.3906 92.8633 82.5781 93.3789 82.625L97.4922 82.9062V86H81.918V82.9062L86.0312 82.625C86.5469 82.5781 86.9219 82.3906 87.1562 82.0625C87.4141 81.7344 87.543 81.3945 87.543 81.043V42.6523C87.543 42.3008 87.4141 41.9609 87.1562 41.6328C86.9219 41.2812 86.5469 41.0938 86.0312 41.0703L81.918 40.7891V37.6953H98.0547V39.6289L111.098 74.9961L124.141 39.8398V37.6953H140.699V40.7891L136.797 41.0703C136.281 41.0938 135.883 41.2812 135.602 41.6328C135.344 41.9609 135.215 42.3008 135.215 42.6523V81.043C135.215 81.3945 135.344 81.7344 135.602 82.0625C135.883 82.3906 136.281 82.5781 136.797 82.625L140.699 82.9062V86ZM178.352 86H167.699L166.75 81.7461C166.75 81.7461 166.387 82.0039 165.66 82.5195C164.957 83.0352 164.02 83.6328 162.848 84.3125C161.676 84.9922 160.375 85.5898 158.945 86.1055C157.539 86.6211 156.133 86.8789 154.727 86.8789C152.125 86.8789 149.91 86.0117 148.082 84.2773C146.277 82.543 145.375 80.1641 145.375 77.1406C145.375 75.8047 145.609 74.5625 146.078 73.4141C146.57 72.2656 147.531 71.1758 148.961 70.1445C150.414 69.0898 152.559 68.0703 155.395 67.0859C158.254 66.0781 162.039 65.0586 166.75 64.0273C166.75 63.957 166.75 63.6641 166.75 63.1484C166.75 62.6328 166.75 62.1406 166.75 61.6719C166.75 61.1797 166.75 60.9336 166.75 60.9336C166.75 56.1992 164.512 53.832 160.035 53.832C158.793 53.832 157.715 53.9492 156.801 54.1836C155.91 54.418 155.289 54.6055 154.938 54.7461V61.0039H149.699C149.043 61.0039 148.434 60.8867 147.871 60.6523C147.309 60.3945 147.027 59.8203 147.027 58.9297C147.027 56.9609 147.777 55.3555 149.277 54.1133C150.777 52.8477 152.676 51.9219 154.973 51.3359C157.293 50.7266 159.637 50.4219 162.004 50.4219C164.98 50.4219 167.289 50.8906 168.93 51.8281C170.57 52.7422 171.719 54.0195 172.375 55.6602C173.031 57.2773 173.359 59.1289 173.359 61.2148V81.3945C173.359 81.8398 173.5 82.2031 173.781 82.4844C174.086 82.7656 174.449 82.9297 174.871 82.9766L178.352 83.1875V86ZM166.75 79.2148V66.7695C163.516 67.5664 160.938 68.375 159.016 69.1953C157.117 69.9922 155.699 70.8008 154.762 71.6211C153.824 72.418 153.203 73.2383 152.898 74.082C152.617 74.9023 152.477 75.7578 152.477 76.6484C152.477 78.125 152.945 79.4961 153.883 80.7617C154.844 82.0039 156.18 82.625 157.891 82.625C158.852 82.625 159.848 82.4609 160.879 82.1328C161.91 81.7812 162.871 81.3828 163.762 80.9375C164.652 80.4688 165.367 80.0703 165.906 79.7422C166.469 79.3906 166.75 79.2148 166.75 79.2148ZM217.27 86H205.738V83.1875L196.738 69.6523H192.73V81.3945C192.73 82.3789 193.234 82.9062 194.242 82.9766L197.336 83.1875V86H180.988V83.1875L184.504 82.9766C185.512 82.9062 186.016 82.3789 186.016 81.3945V38.1172H180.566V35.7266L189.777 32.9492H192.73V67.5781H194.172L204.754 55.625C204.941 55.3906 204.965 55.1328 204.824 54.8516C204.707 54.5703 204.484 54.418 204.156 54.3945L201.203 54.1133V51.3008H215.195V54.1133L210.59 54.6055L201.062 64.7656L213.473 82.7656L217.27 83.1875V86ZM250.844 82.4141C248.828 83.6562 246.648 84.7109 244.305 85.5781C241.984 86.4453 239.605 86.8789 237.168 86.8789C234.262 86.8789 231.531 86.2344 228.977 84.9453C226.445 83.6328 224.395 81.6523 222.824 79.0039C221.254 76.3555 220.469 73.0273 220.469 69.0195C220.469 65.2695 221.195 62 222.648 59.2109C224.102 56.4219 226.105 54.2656 228.66 52.7422C231.215 51.1953 234.121 50.4219 237.379 50.4219C241.855 50.4219 245.219 51.8164 247.469 54.6055C249.719 57.3711 250.844 60.8984 250.844 65.1875C250.844 65.4219 250.844 65.7383 250.844 66.1367C250.844 66.5117 250.82 66.8633 250.773 67.1914H227.43C227.43 69.0195 227.617 70.8477 227.992 72.6758C228.391 74.4805 229.047 76.1211 229.961 77.5977C230.875 79.0742 232.105 80.2578 233.652 81.1484C235.199 82.0391 237.133 82.4844 239.453 82.4844C241.516 82.4844 243.52 82.0156 245.465 81.0781C247.434 80.1172 249.227 79.0977 250.844 78.0195V82.4141ZM243.637 63.957V62.375C243.637 60.0078 243.062 58.0156 241.914 56.3984C240.789 54.7812 239.031 53.9727 236.641 53.9727C234.273 53.9727 232.258 54.8633 230.594 56.6445C228.93 58.4258 228.004 60.8633 227.816 63.957H243.637ZM309.836 86H299.184L298.234 81.7461C298.234 81.7461 297.871 82.0039 297.145 82.5195C296.441 83.0352 295.504 83.6328 294.332 84.3125C293.16 84.9922 291.859 85.5898 290.43 86.1055C289.023 86.6211 287.617 86.8789 286.211 86.8789C283.609 86.8789 281.395 86.0117 279.566 84.2773C277.762 82.543 276.859 80.1641 276.859 77.1406C276.859 75.8047 277.094 74.5625 277.562 73.4141C278.055 72.2656 279.016 71.1758 280.445 70.1445C281.898 69.0898 284.043 68.0703 286.879 67.0859C289.738 66.0781 293.523 65.0586 298.234 64.0273C298.234 63.957 298.234 63.6641 298.234 63.1484C298.234 62.6328 298.234 62.1406 298.234 61.6719C298.234 61.1797 298.234 60.9336 298.234 60.9336C298.234 56.1992 295.996 53.832 291.52 53.832C290.277 53.832 289.199 53.9492 288.285 54.1836C287.395 54.418 286.773 54.6055 286.422 54.7461V61.0039H281.184C280.527 61.0039 279.918 60.8867 279.355 60.6523C278.793 60.3945 278.512 59.8203 278.512 58.9297C278.512 56.9609 279.262 55.3555 280.762 54.1133C282.262 52.8477 284.16 51.9219 286.457 51.3359C288.777 50.7266 291.121 50.4219 293.488 50.4219C296.465 50.4219 298.773 50.8906 300.414 51.8281C302.055 52.7422 303.203 54.0195 303.859 55.6602C304.516 57.2773 304.844 59.1289 304.844 61.2148V81.3945C304.844 81.8398 304.984 82.2031 305.266 82.4844C305.57 82.7656 305.934 82.9297 306.355 82.9766L309.836 83.1875V86ZM298.234 79.2148V66.7695C295 67.5664 292.422 68.375 290.5 69.1953C288.602 69.9922 287.184 70.8008 286.246 71.6211C285.309 72.418 284.688 73.2383 284.383 74.082C284.102 74.9023 283.961 75.7578 283.961 76.6484C283.961 78.125 284.43 79.4961 285.367 80.7617C286.328 82.0039 287.664 82.625 289.375 82.625C290.336 82.625 291.332 82.4609 292.363 82.1328C293.395 81.7812 294.355 81.3828 295.246 80.9375C296.137 80.4688 296.852 80.0703 297.391 79.7422C297.953 79.3906 298.234 79.2148 298.234 79.2148ZM391.75 86H375.613V83.1875L378.637 82.9766C379.645 82.9062 380.148 82.3789 380.148 81.3945V63.043C380.148 60.8164 379.68 59.0352 378.742 57.6992C377.828 56.3633 376.164 55.6953 373.75 55.6953C372.555 55.6953 371.242 55.8828 369.812 56.2578C368.406 56.6328 367.152 57.1133 366.051 57.6992V81.3945C366.051 82.3789 366.555 82.9062 367.562 82.9766L370.586 83.1875V86H354.801V83.1875L357.824 82.9766C358.832 82.9062 359.336 82.3789 359.336 81.3945V62.5859C359.336 60.5469 358.855 58.8945 357.895 57.6289C356.934 56.3398 355.305 55.6953 353.008 55.6953C351.648 55.6953 350.23 55.9297 348.754 56.3984C347.277 56.8438 346.129 57.3008 345.309 57.7695V81.3945C345.309 82.3789 345.812 82.9062 346.82 82.9766L349.844 83.1875V86H333.566V83.1875L337.082 82.9766C338.09 82.9062 338.594 82.3789 338.594 81.3945V56.3984H333.637V54.043L342.355 51.3008H345.309V54.8867C346.387 54.2305 347.594 53.5625 348.93 52.8828C350.289 52.2031 351.672 51.6289 353.078 51.1602C354.484 50.668 355.809 50.4219 357.051 50.4219C359.137 50.4219 360.824 50.9609 362.113 52.0391C363.402 53.0938 364.352 54.2188 364.961 55.4141C365.922 54.8047 367.141 54.1133 368.617 53.3398C370.094 52.543 371.617 51.8633 373.188 51.3008C374.781 50.7148 376.211 50.4219 377.477 50.4219C380.008 50.4219 381.941 51.0078 383.277 52.1797C384.613 53.3281 385.527 54.7578 386.02 56.4688C386.512 58.1562 386.758 59.8203 386.758 61.4609V81.3945C386.758 81.8398 386.898 82.2031 387.18 82.4844C387.484 82.7656 387.848 82.9297 388.27 82.9766L391.75 83.1875V86ZM432.742 86H421.316V81.8867C420.496 82.5195 419.453 83.2227 418.188 83.9961C416.922 84.7695 415.562 85.4375 414.109 86C412.656 86.5859 411.215 86.8789 409.785 86.8789C406.691 86.8789 404.254 85.9531 402.473 84.1016C400.715 82.2266 399.836 79.2617 399.836 75.207V55.6953H394.809V53.2344L403.668 50.4219H406.551V73.8359C406.551 76.3906 407.066 78.3828 408.098 79.8125C409.152 81.2422 410.957 81.957 413.512 81.957C414.988 81.957 416.441 81.7109 417.871 81.2188C419.301 80.7031 420.449 80.2344 421.316 79.8125V55.6953H416.254V53.2344L425.043 50.4219H427.996V81.3945C427.996 81.8398 428.148 82.2031 428.453 82.4844C428.781 82.7656 429.156 82.9297 429.578 82.9766L432.742 83.1875V86ZM453.801 86H436.293V83.1875L440.125 82.9766C440.453 82.9531 440.793 82.7773 441.145 82.4492C441.52 82.0977 441.707 81.7695 441.707 81.4648V38.1172H436.223V35.7266L445.434 32.9492H448.387V81.4648C448.387 81.7695 448.562 82.0977 448.914 82.4492C449.266 82.7773 449.594 82.9531 449.898 82.9766L453.801 83.1875V86ZM479.711 84.4883C479.711 84.4883 479.254 84.6875 478.34 85.0859C477.449 85.4844 476.266 85.8828 474.789 86.2812C473.336 86.6797 471.742 86.8789 470.008 86.8789C467.312 86.8789 465.344 86.2461 464.102 84.9805C462.883 83.6914 462.273 81.6289 462.273 78.793V54.8867H457.668V52.5312L462.59 50.2109L465.824 42.582H468.988V51.3008H479.148V54.8867H468.988V74.9961C468.988 77.8555 469.469 79.8828 470.43 81.0781C471.391 82.25 472.832 82.8359 474.754 82.8359C476.16 82.8359 477.332 82.6367 478.27 82.2383C479.23 81.8164 479.711 81.6055 479.711 81.6055V84.4883ZM495.883 39.418C495.883 40.6367 495.461 41.6914 494.617 42.582C493.773 43.4492 492.742 43.8828 491.523 43.8828C490.305 43.8828 489.25 43.4492 488.359 42.582C487.492 41.6914 487.059 40.6367 487.059 39.418C487.059 38.1758 487.492 37.1328 488.359 36.2891C489.25 35.4453 490.305 35.0234 491.523 35.0234C492.742 35.0234 493.773 35.4453 494.617 36.2891C495.461 37.1328 495.883 38.1758 495.883 39.418ZM499.574 86H482.664V83.1875L486.18 82.9766C487.188 82.9062 487.691 82.3789 487.691 81.3945V55.6953H482.734V53.1641L491.523 50.4219H494.371V81.3945C494.371 81.8398 494.512 82.2148 494.793 82.5195C495.098 82.8008 495.461 82.9531 495.883 82.9766L499.574 83.1875V86ZM539.863 68.1406C539.863 71.9141 539.137 75.207 537.684 78.0195C536.23 80.832 534.145 83.0117 531.426 84.5586C528.707 86.1055 525.449 86.8789 521.652 86.8789C520.574 86.8789 519.508 86.8086 518.453 86.668C517.398 86.5273 516.332 86.375 515.254 86.2109V96.9336C515.254 97.3789 515.406 97.7305 515.711 97.9883C516.016 98.2461 516.391 98.3984 516.836 98.4453L521.09 98.9023V101.68H503.582V98.9023L507.027 98.4453C508.035 98.3281 508.539 97.8242 508.539 96.9336V56.3984H503.582V54.043L512.441 51.3008H515.254V54.8867C516.895 53.6211 518.664 52.5664 520.562 51.7227C522.461 50.8555 524.312 50.4219 526.117 50.4219C528.602 50.4219 530.875 51.1602 532.938 52.6367C535.023 54.0898 536.699 56.1406 537.965 58.7891C539.23 61.4375 539.863 64.5547 539.863 68.1406ZM532.656 69.1602C532.656 66.6758 532.27 64.4023 531.496 62.3398C530.746 60.2773 529.621 58.625 528.121 57.3828C526.645 56.1172 524.805 55.4844 522.602 55.4844C521.383 55.4844 520.117 55.707 518.805 56.1523C517.492 56.5977 516.309 57.0898 515.254 57.6289V82.4141C517.223 83.1641 519.168 83.5391 521.09 83.5391C523.738 83.5391 525.906 82.8594 527.594 81.5C529.305 80.1406 530.57 78.3711 531.391 76.1914C532.234 73.9883 532.656 71.6445 532.656 69.1602ZM561.801 86H544.293V83.1875L548.125 82.9766C548.453 82.9531 548.793 82.7773 549.145 82.4492C549.52 82.0977 549.707 81.7695 549.707 81.4648V38.1172H544.223V35.7266L553.434 32.9492H556.387V81.4648C556.387 81.7695 556.562 82.0977 556.914 82.4492C557.266 82.7773 557.594 82.9531 557.898 82.9766L561.801 83.1875V86ZM599.172 86H588.52L587.57 81.7461C587.57 81.7461 587.207 82.0039 586.48 82.5195C585.777 83.0352 584.84 83.6328 583.668 84.3125C582.496 84.9922 581.195 85.5898 579.766 86.1055C578.359 86.6211 576.953 86.8789 575.547 86.8789C572.945 86.8789 570.73 86.0117 568.902 84.2773C567.098 82.543 566.195 80.1641 566.195 77.1406C566.195 75.8047 566.43 74.5625 566.898 73.4141C567.391 72.2656 568.352 71.1758 569.781 70.1445C571.234 69.0898 573.379 68.0703 576.215 67.0859C579.074 66.0781 582.859 65.0586 587.57 64.0273C587.57 63.957 587.57 63.6641 587.57 63.1484C587.57 62.6328 587.57 62.1406 587.57 61.6719C587.57 61.1797 587.57 60.9336 587.57 60.9336C587.57 56.1992 585.332 53.832 580.855 53.832C579.613 53.832 578.535 53.9492 577.621 54.1836C576.73 54.418 576.109 54.6055 575.758 54.7461V61.0039H570.52C569.863 61.0039 569.254 60.8867 568.691 60.6523C568.129 60.3945 567.848 59.8203 567.848 58.9297C567.848 56.9609 568.598 55.3555 570.098 54.1133C571.598 52.8477 573.496 51.9219 575.793 51.3359C578.113 50.7266 580.457 50.4219 582.824 50.4219C585.801 50.4219 588.109 50.8906 589.75 51.8281C591.391 52.7422 592.539 54.0195 593.195 55.6602C593.852 57.2773 594.18 59.1289 594.18 61.2148V81.3945C594.18 81.8398 594.32 82.2031 594.602 82.4844C594.906 82.7656 595.27 82.9297 595.691 82.9766L599.172 83.1875V86ZM587.57 79.2148V66.7695C584.336 67.5664 581.758 68.375 579.836 69.1953C577.938 69.9922 576.52 70.8008 575.582 71.6211C574.645 72.418 574.023 73.2383 573.719 74.082C573.438 74.9023 573.297 75.7578 573.297 76.6484C573.297 78.125 573.766 79.4961 574.703 80.7617C575.664 82.0039 577 82.625 578.711 82.625C579.672 82.625 580.668 82.4609 581.699 82.1328C582.73 81.7812 583.691 81.3828 584.582 80.9375C585.473 80.4688 586.188 80.0703 586.727 79.7422C587.289 79.3906 587.57 79.2148 587.57 79.2148ZM637.809 54.1133L634.047 54.5352L620.23 88.2148C619.926 88.9883 619.445 90.0898 618.789 91.5195C618.156 92.9727 617.395 94.4492 616.504 95.9492C615.637 97.4727 614.699 98.7383 613.691 99.7461C612.824 100.613 611.863 101.281 610.809 101.75C609.777 102.242 608.652 102.488 607.434 102.488C605.723 102.488 604.41 102.066 603.496 101.223C602.605 100.402 602.16 99.4531 602.16 98.375C602.16 96.7812 602.934 95.3398 604.48 94.0508L611.23 97.1445C612.027 96.3477 612.824 95.2695 613.621 93.9102C614.418 92.5508 615.133 91.1445 615.766 89.6914C616.422 88.2383 616.926 86.9844 617.277 85.9297L605.043 54.5352L601.07 54.1133V51.3008H616.996V54.1133L613.551 54.3242C613.152 54.3477 612.824 54.5234 612.566 54.8516C612.332 55.1562 612.297 55.5078 612.461 55.9062L620.828 77.1406L629.371 55.9062C629.535 55.5312 629.512 55.1797 629.301 54.8516C629.09 54.5234 628.785 54.3477 628.387 54.3242L624.977 54.1133V51.3008H637.809V54.1133ZM671.383 82.4141C669.367 83.6562 667.188 84.7109 664.844 85.5781C662.523 86.4453 660.145 86.8789 657.707 86.8789C654.801 86.8789 652.07 86.2344 649.516 84.9453C646.984 83.6328 644.934 81.6523 643.363 79.0039C641.793 76.3555 641.008 73.0273 641.008 69.0195C641.008 65.2695 641.734 62 643.188 59.2109C644.641 56.4219 646.645 54.2656 649.199 52.7422C651.754 51.1953 654.66 50.4219 657.918 50.4219C662.395 50.4219 665.758 51.8164 668.008 54.6055C670.258 57.3711 671.383 60.8984 671.383 65.1875C671.383 65.4219 671.383 65.7383 671.383 66.1367C671.383 66.5117 671.359 66.8633 671.312 67.1914H647.969C647.969 69.0195 648.156 70.8477 648.531 72.6758C648.93 74.4805 649.586 76.1211 650.5 77.5977C651.414 79.0742 652.645 80.2578 654.191 81.1484C655.738 82.0391 657.672 82.4844 659.992 82.4844C662.055 82.4844 664.059 82.0156 666.004 81.0781C667.973 80.1172 669.766 79.0977 671.383 78.0195V82.4141ZM664.176 63.957V62.375C664.176 60.0078 663.602 58.0156 662.453 56.3984C661.328 54.7812 659.57 53.9727 657.18 53.9727C654.812 53.9727 652.797 54.8633 651.133 56.6445C649.469 58.4258 648.543 60.8633 648.355 63.957H664.176ZM701.266 58.6484H698.453C698.008 58.1094 697.469 57.6523 696.836 57.2773C696.227 56.8789 695.477 56.6797 694.586 56.6797C693.438 56.6797 692.254 57.0781 691.035 57.875C689.84 58.6719 688.621 59.7617 687.379 61.1445V81.3945C687.379 82.4023 687.883 82.9297 688.891 82.9766L693.637 83.1875V86H675.637V83.2578L679.188 82.9766C679.609 82.9297 679.961 82.7656 680.242 82.4844C680.547 82.2031 680.699 81.8398 680.699 81.3945V56.3984H675.496V54.043L684.426 51.3008H687.379V57.6992C689.418 55.332 691.188 53.5273 692.688 52.2852C694.211 51.043 695.605 50.4219 696.871 50.4219C697.621 50.4219 698.43 50.5391 699.297 50.7734C700.164 51.0078 700.82 51.2539 701.266 51.5117V58.6484ZM759.695 56.1172H752.523C753.062 56.9844 753.52 57.9336 753.895 58.9648C754.27 59.9961 754.457 61.2031 754.457 62.5859C754.457 65.1172 753.719 67.2734 752.242 69.0547C750.766 70.8125 748.844 72.125 746.477 72.9922C744.133 73.8359 741.613 74.1641 738.918 73.9766C738.543 74.5859 738.309 75.2539 738.215 75.9805C738.145 76.707 738.133 77.3398 738.18 77.8789C738.25 78.418 738.297 78.7227 738.32 78.793C739.609 78.9336 741.098 79.0977 742.785 79.2852C744.496 79.4727 746.219 79.7656 747.953 80.1641C749.711 80.5625 751.34 81.1133 752.84 81.8164C754.34 82.5195 755.547 83.4453 756.461 84.5938C757.375 85.7422 757.832 87.1719 757.832 88.8828C757.832 91.1562 757 93.3242 755.336 95.3867C753.672 97.4727 751.422 99.1719 748.586 100.484C745.773 101.82 742.621 102.488 739.129 102.488C734.84 102.488 731.512 101.504 729.145 99.5352C726.777 97.5898 725.594 95.1641 725.594 92.2578C725.594 90.1719 726.215 88.3086 727.457 86.668C728.699 85.0508 730.621 84.0078 733.223 83.5391C732.965 82.7891 732.777 82.25 732.66 81.9219C732.543 81.5938 732.484 81.0312 732.484 80.2344C732.484 79.2969 732.766 78.2656 733.328 77.1406C733.914 75.9922 734.84 74.7734 736.105 73.4844C733.715 72.9453 731.629 71.7383 729.848 69.8633C728.066 67.9648 727.176 65.5625 727.176 62.6562C727.176 58.8828 728.5 55.9062 731.148 53.7266C733.82 51.5234 737.312 50.4219 741.625 50.4219C743.336 50.4219 744.918 50.6797 746.371 51.1953C747.848 51.6875 749.055 52.1562 749.992 52.6016H759.695V56.1172ZM747.602 62.1641C747.602 60.6406 747.344 59.2109 746.828 57.875C746.312 56.5391 745.562 55.4609 744.578 54.6406C743.594 53.7969 742.375 53.375 740.922 53.375C738.906 53.375 737.254 54.1602 735.965 55.7305C734.699 57.2773 734.066 59.4453 734.066 62.2344C734.066 64.6484 734.641 66.7227 735.789 68.457C736.938 70.168 738.648 71.0234 740.922 71.0234C743.078 71.0234 744.73 70.1562 745.879 68.4219C747.027 66.6875 747.602 64.6016 747.602 62.1641ZM751.645 90.8164C751.645 89.3164 751.117 88.1562 750.062 87.3359C749.031 86.5156 747.742 85.9062 746.195 85.5078C744.648 85.1094 743.09 84.8281 741.52 84.6641C739.949 84.4766 738.625 84.2773 737.547 84.0664C735.461 84.8164 734.02 85.8359 733.223 87.125C732.449 88.4141 732.062 89.6445 732.062 90.8164C732.062 91.9648 732.391 93.1836 733.047 94.4727C733.727 95.7852 734.758 96.8984 736.141 97.8125C737.547 98.7266 739.328 99.1836 741.484 99.1836C743.781 99.1836 745.68 98.7266 747.18 97.8125C748.68 96.8984 749.793 95.7852 750.52 94.4727C751.27 93.1836 751.645 91.9648 751.645 90.8164ZM796.398 86H785.746L784.797 81.7461C784.797 81.7461 784.434 82.0039 783.707 82.5195C783.004 83.0352 782.066 83.6328 780.895 84.3125C779.723 84.9922 778.422 85.5898 776.992 86.1055C775.586 86.6211 774.18 86.8789 772.773 86.8789C770.172 86.8789 767.957 86.0117 766.129 84.2773C764.324 82.543 763.422 80.1641 763.422 77.1406C763.422 75.8047 763.656 74.5625 764.125 73.4141C764.617 72.2656 765.578 71.1758 767.008 70.1445C768.461 69.0898 770.605 68.0703 773.441 67.0859C776.301 66.0781 780.086 65.0586 784.797 64.0273C784.797 63.957 784.797 63.6641 784.797 63.1484C784.797 62.6328 784.797 62.1406 784.797 61.6719C784.797 61.1797 784.797 60.9336 784.797 60.9336C784.797 56.1992 782.559 53.832 778.082 53.832C776.84 53.832 775.762 53.9492 774.848 54.1836C773.957 54.418 773.336 54.6055 772.984 54.7461V61.0039H767.746C767.09 61.0039 766.48 60.8867 765.918 60.6523C765.355 60.3945 765.074 59.8203 765.074 58.9297C765.074 56.9609 765.824 55.3555 767.324 54.1133C768.824 52.8477 770.723 51.9219 773.02 51.3359C775.34 50.7266 777.684 50.4219 780.051 50.4219C783.027 50.4219 785.336 50.8906 786.977 51.8281C788.617 52.7422 789.766 54.0195 790.422 55.6602C791.078 57.2773 791.406 59.1289 791.406 61.2148V81.3945C791.406 81.8398 791.547 82.2031 791.828 82.4844C792.133 82.7656 792.496 82.9297 792.918 82.9766L796.398 83.1875V86ZM784.797 79.2148V66.7695C781.562 67.5664 778.984 68.375 777.062 69.1953C775.164 69.9922 773.746 70.8008 772.809 71.6211C771.871 72.418 771.25 73.2383 770.945 74.082C770.664 74.9023 770.523 75.7578 770.523 76.6484C770.523 78.125 770.992 79.4961 771.93 80.7617C772.891 82.0039 774.227 82.625 775.938 82.625C776.898 82.625 777.895 82.4609 778.926 82.1328C779.957 81.7812 780.918 81.3828 781.809 80.9375C782.699 80.4688 783.414 80.0703 783.953 79.7422C784.516 79.3906 784.797 79.2148 784.797 79.2148ZM857.219 86H841.082V83.1875L844.105 82.9766C845.113 82.9062 845.617 82.3789 845.617 81.3945V63.043C845.617 60.8164 845.148 59.0352 844.211 57.6992C843.297 56.3633 841.633 55.6953 839.219 55.6953C838.023 55.6953 836.711 55.8828 835.281 56.2578C833.875 56.6328 832.621 57.1133 831.52 57.6992V81.3945C831.52 82.3789 832.023 82.9062 833.031 82.9766L836.055 83.1875V86H820.27V83.1875L823.293 82.9766C824.301 82.9062 824.805 82.3789 824.805 81.3945V62.5859C824.805 60.5469 824.324 58.8945 823.363 57.6289C822.402 56.3398 820.773 55.6953 818.477 55.6953C817.117 55.6953 815.699 55.9297 814.223 56.3984C812.746 56.8438 811.598 57.3008 810.777 57.7695V81.3945C810.777 82.3789 811.281 82.9062 812.289 82.9766L815.312 83.1875V86H799.035V83.1875L802.551 82.9766C803.559 82.9062 804.062 82.3789 804.062 81.3945V56.3984H799.105V54.043L807.824 51.3008H810.777V54.8867C811.855 54.2305 813.062 53.5625 814.398 52.8828C815.758 52.2031 817.141 51.6289 818.547 51.1602C819.953 50.668 821.277 50.4219 822.52 50.4219C824.605 50.4219 826.293 50.9609 827.582 52.0391C828.871 53.0938 829.82 54.2188 830.43 55.4141C831.391 54.8047 832.609 54.1133 834.086 53.3398C835.562 52.543 837.086 51.8633 838.656 51.3008C840.25 50.7148 841.68 50.4219 842.945 50.4219C845.477 50.4219 847.41 51.0078 848.746 52.1797C850.082 53.3281 850.996 54.7578 851.488 56.4688C851.98 58.1562 852.227 59.8203 852.227 61.4609V81.3945C852.227 81.8398 852.367 82.2031 852.648 82.4844C852.953 82.7656 853.316 82.9297 853.738 82.9766L857.219 83.1875V86ZM891.672 82.4141C889.656 83.6562 887.477 84.7109 885.133 85.5781C882.812 86.4453 880.434 86.8789 877.996 86.8789C875.09 86.8789 872.359 86.2344 869.805 84.9453C867.273 83.6328 865.223 81.6523 863.652 79.0039C862.082 76.3555 861.297 73.0273 861.297 69.0195C861.297 65.2695 862.023 62 863.477 59.2109C864.93 56.4219 866.934 54.2656 869.488 52.7422C872.043 51.1953 874.949 50.4219 878.207 50.4219C882.684 50.4219 886.047 51.8164 888.297 54.6055C890.547 57.3711 891.672 60.8984 891.672 65.1875C891.672 65.4219 891.672 65.7383 891.672 66.1367C891.672 66.5117 891.648 66.8633 891.602 67.1914H868.258C868.258 69.0195 868.445 70.8477 868.82 72.6758C869.219 74.4805 869.875 76.1211 870.789 77.5977C871.703 79.0742 872.934 80.2578 874.48 81.1484C876.027 82.0391 877.961 82.4844 880.281 82.4844C882.344 82.4844 884.348 82.0156 886.293 81.0781C888.262 80.1172 890.055 79.0977 891.672 78.0195V82.4141ZM884.465 63.957V62.375C884.465 60.0078 883.891 58.0156 882.742 56.3984C881.617 54.7812 879.859 53.9727 877.469 53.9727C875.102 53.9727 873.086 54.8633 871.422 56.6445C869.758 58.4258 868.832 60.8633 868.645 63.957H884.465ZM954.602 86H943.176V81.8867C942.355 82.5195 941.312 83.2227 940.047 83.9961C938.781 84.7695 937.422 85.4375 935.969 86C934.516 86.5859 933.074 86.8789 931.645 86.8789C928.551 86.8789 926.113 85.9531 924.332 84.1016C922.574 82.2266 921.695 79.2617 921.695 75.207V55.6953H916.668V53.2344L925.527 50.4219H928.41V73.8359C928.41 76.3906 928.926 78.3828 929.957 79.8125C931.012 81.2422 932.816 81.957 935.371 81.957C936.848 81.957 938.301 81.7109 939.73 81.2188C941.16 80.7031 942.309 80.2344 943.176 79.8125V55.6953H938.113V53.2344L946.902 50.4219H949.855V81.3945C949.855 81.8398 950.008 82.2031 950.312 82.4844C950.641 82.7656 951.016 82.9297 951.438 82.9766L954.602 83.1875V86ZM981.355 60.582H977.594L977.031 55.5547C976.516 55.1562 975.754 54.7812 974.746 54.4297C973.738 54.0781 972.672 53.9023 971.547 53.9023C969.578 53.9023 968.113 54.3594 967.152 55.2734C966.191 56.1641 965.711 57.3125 965.711 58.7188C965.711 59.7969 965.957 60.7109 966.449 61.4609C966.941 62.2109 967.773 62.9492 968.945 63.6758C970.117 64.3789 971.711 65.1992 973.727 66.1367C976.234 67.2852 978.309 68.5625 979.949 69.9688C981.59 71.3516 982.41 73.2148 982.41 75.5586C982.41 79.0977 981.191 81.875 978.754 83.8906C976.316 85.8828 972.953 86.8789 968.664 86.8789C966.461 86.8789 964.422 86.6445 962.547 86.1758C960.695 85.7305 959.406 85.3555 958.68 85.0508V75.4883H962.336L963.215 81.6055C963.941 82.0742 964.832 82.5312 965.887 82.9766C966.965 83.3984 968.207 83.6094 969.613 83.6094C971.676 83.6094 973.27 83.0352 974.395 81.8867C975.52 80.7383 976.082 79.4492 976.082 78.0195C976.082 76.1445 975.309 74.6797 973.762 73.625C972.238 72.5469 970.082 71.3398 967.293 70.0039C964.668 68.7383 962.652 67.4375 961.246 66.1016C959.863 64.7656 959.172 63.0195 959.172 60.8633C959.172 57.6523 960.297 55.1094 962.547 53.2344C964.797 51.3594 967.996 50.4219 972.145 50.4219C974.254 50.4219 976.129 50.6211 977.77 51.0195C979.434 51.3945 980.629 51.7461 981.355 52.0742V60.582ZM1000.59 39.418C1000.59 40.6367 1000.16 41.6914 999.32 42.582C998.477 43.4492 997.445 43.8828 996.227 43.8828C995.008 43.8828 993.953 43.4492 993.062 42.582C992.195 41.6914 991.762 40.6367 991.762 39.418C991.762 38.1758 992.195 37.1328 993.062 36.2891C993.953 35.4453 995.008 35.0234 996.227 35.0234C997.445 35.0234 998.477 35.4453 999.32 36.2891C1000.16 37.1328 1000.59 38.1758 1000.59 39.418ZM1004.28 86H987.367V83.1875L990.883 82.9766C991.891 82.9062 992.395 82.3789 992.395 81.3945V55.6953H987.438V53.1641L996.227 50.4219H999.074V81.3945C999.074 81.8398 999.215 82.2148 999.496 82.5195C999.801 82.8008 1000.16 82.9531 1000.59 82.9766L1004.28 83.1875V86ZM1046.15 86H1030.26V83.1875L1033.28 82.9766C1033.7 82.9297 1034.05 82.7656 1034.34 82.4844C1034.64 82.2031 1034.79 81.8398 1034.79 81.3945V62.6562C1034.79 60.3828 1034.27 58.6602 1033.21 57.4883C1032.16 56.293 1030.38 55.6953 1027.87 55.6953C1026.51 55.6953 1025.15 55.8945 1023.79 56.293C1022.45 56.668 1021.18 57.1602 1019.96 57.7695V81.3945C1019.96 82.3789 1020.46 82.9062 1021.47 82.9766L1024.49 83.1875V86H1008.21V83.1875L1011.73 82.9766C1012.74 82.9062 1013.24 82.3789 1013.24 81.3945V56.3984H1008.21V54.043L1017 51.3008H1019.96V54.8867C1021.97 53.7383 1024.04 52.707 1026.14 51.793C1028.28 50.8789 1030.18 50.4219 1031.84 50.4219C1034.98 50.4219 1037.37 51.4062 1039.01 53.375C1040.65 55.3203 1041.47 58.0391 1041.47 61.5312V81.3945C1041.47 81.8398 1041.61 82.2031 1041.89 82.4844C1042.2 82.7656 1042.56 82.9297 1042.98 82.9766L1046.15 83.1875V86ZM1084.19 56.1172H1077.02C1077.55 56.9844 1078.01 57.9336 1078.39 58.9648C1078.76 59.9961 1078.95 61.2031 1078.95 62.5859C1078.95 65.1172 1078.21 67.2734 1076.73 69.0547C1075.26 70.8125 1073.34 72.125 1070.97 72.9922C1068.62 73.8359 1066.11 74.1641 1063.41 73.9766C1063.04 74.5859 1062.8 75.2539 1062.71 75.9805C1062.64 76.707 1062.62 77.3398 1062.67 77.8789C1062.74 78.418 1062.79 78.7227 1062.81 78.793C1064.1 78.9336 1065.59 79.0977 1067.28 79.2852C1068.99 79.4727 1070.71 79.7656 1072.45 80.1641C1074.2 80.5625 1075.83 81.1133 1077.33 81.8164C1078.83 82.5195 1080.04 83.4453 1080.95 84.5938C1081.87 85.7422 1082.32 87.1719 1082.32 88.8828C1082.32 91.1562 1081.49 93.3242 1079.83 95.3867C1078.16 97.4727 1075.91 99.1719 1073.08 100.484C1070.27 101.82 1067.11 102.488 1063.62 102.488C1059.33 102.488 1056 101.504 1053.64 99.5352C1051.27 97.5898 1050.09 95.1641 1050.09 92.2578C1050.09 90.1719 1050.71 88.3086 1051.95 86.668C1053.19 85.0508 1055.11 84.0078 1057.71 83.5391C1057.46 82.7891 1057.27 82.25 1057.15 81.9219C1057.04 81.5938 1056.98 81.0312 1056.98 80.2344C1056.98 79.2969 1057.26 78.2656 1057.82 77.1406C1058.41 75.9922 1059.33 74.7734 1060.6 73.4844C1058.21 72.9453 1056.12 71.7383 1054.34 69.8633C1052.56 67.9648 1051.67 65.5625 1051.67 62.6562C1051.67 58.8828 1052.99 55.9062 1055.64 53.7266C1058.31 51.5234 1061.8 50.4219 1066.12 50.4219C1067.83 50.4219 1069.41 50.6797 1070.86 51.1953C1072.34 51.6875 1073.55 52.1562 1074.48 52.6016H1084.19V56.1172ZM1072.09 62.1641C1072.09 60.6406 1071.84 59.2109 1071.32 57.875C1070.8 56.5391 1070.05 55.4609 1069.07 54.6406C1068.09 53.7969 1066.87 53.375 1065.41 53.375C1063.4 53.375 1061.75 54.1602 1060.46 55.7305C1059.19 57.2773 1058.56 59.4453 1058.56 62.2344C1058.56 64.6484 1059.13 66.7227 1060.28 68.457C1061.43 70.168 1063.14 71.0234 1065.41 71.0234C1067.57 71.0234 1069.22 70.1562 1070.37 68.4219C1071.52 66.6875 1072.09 64.6016 1072.09 62.1641ZM1076.14 90.8164C1076.14 89.3164 1075.61 88.1562 1074.55 87.3359C1073.52 86.5156 1072.23 85.9062 1070.69 85.5078C1069.14 85.1094 1067.58 84.8281 1066.01 84.6641C1064.44 84.4766 1063.12 84.2773 1062.04 84.0664C1059.95 84.8164 1058.51 85.8359 1057.71 87.125C1056.94 88.4141 1056.55 89.6445 1056.55 90.8164C1056.55 91.9648 1056.88 93.1836 1057.54 94.4727C1058.22 95.7852 1059.25 96.8984 1060.63 97.8125C1062.04 98.7266 1063.82 99.1836 1065.98 99.1836C1068.27 99.1836 1070.17 98.7266 1071.67 97.8125C1073.17 96.8984 1074.29 95.7852 1075.01 94.4727C1075.76 93.1836 1076.14 91.9648 1076.14 90.8164ZM1141.98 86H1131.33L1130.38 81.7461C1130.38 81.7461 1130.02 82.0039 1129.29 82.5195C1128.59 83.0352 1127.65 83.6328 1126.48 84.3125C1125.31 84.9922 1124.01 85.5898 1122.58 86.1055C1121.17 86.6211 1119.77 86.8789 1118.36 86.8789C1115.76 86.8789 1113.54 86.0117 1111.71 84.2773C1109.91 82.543 1109.01 80.1641 1109.01 77.1406C1109.01 75.8047 1109.24 74.5625 1109.71 73.4141C1110.2 72.2656 1111.16 71.1758 1112.59 70.1445C1114.05 69.0898 1116.19 68.0703 1119.03 67.0859C1121.89 66.0781 1125.67 65.0586 1130.38 64.0273C1130.38 63.957 1130.38 63.6641 1130.38 63.1484C1130.38 62.6328 1130.38 62.1406 1130.38 61.6719C1130.38 61.1797 1130.38 60.9336 1130.38 60.9336C1130.38 56.1992 1128.14 53.832 1123.67 53.832C1122.43 53.832 1121.35 53.9492 1120.43 54.1836C1119.54 54.418 1118.92 54.6055 1118.57 54.7461V61.0039H1113.33C1112.68 61.0039 1112.07 60.8867 1111.5 60.6523C1110.94 60.3945 1110.66 59.8203 1110.66 58.9297C1110.66 56.9609 1111.41 55.3555 1112.91 54.1133C1114.41 52.8477 1116.31 51.9219 1118.61 51.3359C1120.93 50.7266 1123.27 50.4219 1125.64 50.4219C1128.61 50.4219 1130.92 50.8906 1132.56 51.8281C1134.2 52.7422 1135.35 54.0195 1136.01 55.6602C1136.66 57.2773 1136.99 59.1289 1136.99 61.2148V81.3945C1136.99 81.8398 1137.13 82.2031 1137.41 82.4844C1137.72 82.7656 1138.08 82.9297 1138.5 82.9766L1141.98 83.1875V86ZM1130.38 79.2148V66.7695C1127.15 67.5664 1124.57 68.375 1122.65 69.1953C1120.75 69.9922 1119.33 70.8008 1118.39 71.6211C1117.46 72.418 1116.84 73.2383 1116.53 74.082C1116.25 74.9023 1116.11 75.7578 1116.11 76.6484C1116.11 78.125 1116.58 79.4961 1117.52 80.7617C1118.48 82.0039 1119.81 82.625 1121.52 82.625C1122.48 82.625 1123.48 82.4609 1124.51 82.1328C1125.54 81.7812 1126.5 81.3828 1127.39 80.9375C1128.29 80.4688 1129 80.0703 1129.54 79.7422C1130.1 79.3906 1130.38 79.2148 1130.38 79.2148ZM1189.41 60.582H1185.65L1185.09 55.5547C1184.57 55.1562 1183.81 54.7812 1182.8 54.4297C1181.79 54.0781 1180.73 53.9023 1179.6 53.9023C1177.63 53.9023 1176.17 54.3594 1175.21 55.2734C1174.25 56.1641 1173.77 57.3125 1173.77 58.7188C1173.77 59.7969 1174.01 60.7109 1174.5 61.4609C1175 62.2109 1175.83 62.9492 1177 63.6758C1178.17 64.3789 1179.77 65.1992 1181.78 66.1367C1184.29 67.2852 1186.36 68.5625 1188 69.9688C1189.64 71.3516 1190.46 73.2148 1190.46 75.5586C1190.46 79.0977 1189.25 81.875 1186.81 83.8906C1184.37 85.8828 1181.01 86.8789 1176.72 86.8789C1174.52 86.8789 1172.48 86.6445 1170.6 86.1758C1168.75 85.7305 1167.46 85.3555 1166.73 85.0508V75.4883H1170.39L1171.27 81.6055C1172 82.0742 1172.89 82.5312 1173.94 82.9766C1175.02 83.3984 1176.26 83.6094 1177.67 83.6094C1179.73 83.6094 1181.32 83.0352 1182.45 81.8867C1183.57 80.7383 1184.14 79.4492 1184.14 78.0195C1184.14 76.1445 1183.36 74.6797 1181.82 73.625C1180.29 72.5469 1178.14 71.3398 1175.35 70.0039C1172.72 68.7383 1170.71 67.4375 1169.3 66.1016C1167.92 64.7656 1167.23 63.0195 1167.23 60.8633C1167.23 57.6523 1168.35 55.1094 1170.6 53.2344C1172.85 51.3594 1176.05 50.4219 1180.2 50.4219C1182.31 50.4219 1184.18 50.6211 1185.82 51.0195C1187.49 51.3945 1188.68 51.7461 1189.41 52.0742V60.582ZM1232.62 86H1216.59V83.1875L1219.54 82.9766C1219.96 82.9297 1220.32 82.7656 1220.63 82.4844C1220.96 82.2031 1221.12 81.8398 1221.12 81.3945V62.832C1221.12 60.7695 1220.63 59.0703 1219.64 57.7344C1218.66 56.375 1216.77 55.6953 1213.98 55.6953C1212.72 55.6953 1211.35 55.8945 1209.87 56.293C1208.42 56.6914 1207.18 57.1836 1206.14 57.7695V81.3945C1206.14 82.3789 1206.62 82.9062 1207.59 82.9766L1210.68 83.1875V86H1194.47V83.1875L1197.92 82.9766C1198.93 82.9062 1199.43 82.3789 1199.43 81.3945V38.1172H1194.05V35.7266L1203.26 32.9492H1206.14V54.8867C1207.01 54.3477 1208.14 53.7383 1209.52 53.0586C1210.9 52.3555 1212.36 51.7461 1213.88 51.2305C1215.4 50.6914 1216.79 50.4219 1218.03 50.4219C1220.79 50.4219 1223.11 51.3125 1224.99 53.0938C1226.86 54.875 1227.8 57.6172 1227.8 61.3203V81.3945C1227.8 81.8398 1227.95 82.2031 1228.26 82.4844C1228.59 82.7656 1228.96 82.9297 1229.38 82.9766L1232.62 83.1875V86ZM1269.74 86H1259.09L1258.14 81.7461C1258.14 81.7461 1257.78 82.0039 1257.05 82.5195C1256.35 83.0352 1255.41 83.6328 1254.24 84.3125C1253.07 84.9922 1251.77 85.5898 1250.34 86.1055C1248.93 86.6211 1247.52 86.8789 1246.12 86.8789C1243.52 86.8789 1241.3 86.0117 1239.47 84.2773C1237.67 82.543 1236.77 80.1641 1236.77 77.1406C1236.77 75.8047 1237 74.5625 1237.47 73.4141C1237.96 72.2656 1238.92 71.1758 1240.35 70.1445C1241.8 69.0898 1243.95 68.0703 1246.79 67.0859C1249.64 66.0781 1253.43 65.0586 1258.14 64.0273C1258.14 63.957 1258.14 63.6641 1258.14 63.1484C1258.14 62.6328 1258.14 62.1406 1258.14 61.6719C1258.14 61.1797 1258.14 60.9336 1258.14 60.9336C1258.14 56.1992 1255.9 53.832 1251.43 53.832C1250.18 53.832 1249.11 53.9492 1248.19 54.1836C1247.3 54.418 1246.68 54.6055 1246.33 54.7461V61.0039H1241.09C1240.43 61.0039 1239.82 60.8867 1239.26 60.6523C1238.7 60.3945 1238.42 59.8203 1238.42 58.9297C1238.42 56.9609 1239.17 55.3555 1240.67 54.1133C1242.17 52.8477 1244.07 51.9219 1246.36 51.3359C1248.68 50.7266 1251.03 50.4219 1253.39 50.4219C1256.37 50.4219 1258.68 50.8906 1260.32 51.8281C1261.96 52.7422 1263.11 54.0195 1263.77 55.6602C1264.42 57.2773 1264.75 59.1289 1264.75 61.2148V81.3945C1264.75 81.8398 1264.89 82.2031 1265.17 82.4844C1265.48 82.7656 1265.84 82.9297 1266.26 82.9766L1269.74 83.1875V86ZM1258.14 79.2148V66.7695C1254.91 67.5664 1252.33 68.375 1250.41 69.1953C1248.51 69.9922 1247.09 70.8008 1246.15 71.6211C1245.21 72.418 1244.59 73.2383 1244.29 74.082C1244.01 74.9023 1243.87 75.7578 1243.87 76.6484C1243.87 78.125 1244.34 79.4961 1245.27 80.7617C1246.23 82.0039 1247.57 82.625 1249.28 82.625C1250.24 82.625 1251.24 82.4609 1252.27 82.1328C1253.3 81.7812 1254.26 81.3828 1255.15 80.9375C1256.04 80.4688 1256.76 80.0703 1257.3 79.7422C1257.86 79.3906 1258.14 79.2148 1258.14 79.2148ZM1298.36 58.6484H1295.55C1295.1 58.1094 1294.56 57.6523 1293.93 57.2773C1293.32 56.8789 1292.57 56.6797 1291.68 56.6797C1290.53 56.6797 1289.35 57.0781 1288.13 57.875C1286.93 58.6719 1285.71 59.7617 1284.47 61.1445V81.3945C1284.47 82.4023 1284.98 82.9297 1285.98 82.9766L1290.73 83.1875V86H1272.73V83.2578L1276.28 82.9766C1276.7 82.9297 1277.05 82.7656 1277.34 82.4844C1277.64 82.2031 1277.79 81.8398 1277.79 81.3945V56.3984H1272.59V54.043L1281.52 51.3008H1284.47V57.6992C1286.51 55.332 1288.28 53.5273 1289.78 52.2852C1291.3 51.043 1292.7 50.4219 1293.96 50.4219C1294.71 50.4219 1295.52 50.5391 1296.39 50.7734C1297.26 51.0078 1297.91 51.2539 1298.36 51.5117V58.6484ZM1331.97 82.4141C1329.95 83.6562 1327.77 84.7109 1325.43 85.5781C1323.11 86.4453 1320.73 86.8789 1318.29 86.8789C1315.39 86.8789 1312.66 86.2344 1310.1 84.9453C1307.57 83.6328 1305.52 81.6523 1303.95 79.0039C1302.38 76.3555 1301.59 73.0273 1301.59 69.0195C1301.59 65.2695 1302.32 62 1303.77 59.2109C1305.23 56.4219 1307.23 54.2656 1309.79 52.7422C1312.34 51.1953 1315.25 50.4219 1318.5 50.4219C1322.98 50.4219 1326.34 51.8164 1328.59 54.6055C1330.84 57.3711 1331.97 60.8984 1331.97 65.1875C1331.97 65.4219 1331.97 65.7383 1331.97 66.1367C1331.97 66.5117 1331.95 66.8633 1331.9 67.1914H1308.55C1308.55 69.0195 1308.74 70.8477 1309.12 72.6758C1309.52 74.4805 1310.17 76.1211 1311.09 77.5977C1312 79.0742 1313.23 80.2578 1314.78 81.1484C1316.32 82.0391 1318.26 82.4844 1320.58 82.4844C1322.64 82.4844 1324.64 82.0156 1326.59 81.0781C1328.56 80.1172 1330.35 79.0977 1331.97 78.0195V82.4141ZM1324.76 63.957V62.375C1324.76 60.0078 1324.19 58.0156 1323.04 56.3984C1321.91 54.7812 1320.16 53.9727 1317.77 53.9727C1315.4 53.9727 1313.38 54.8633 1311.72 56.6445C1310.05 58.4258 1309.13 60.8633 1308.94 63.957H1324.76ZM1373.17 86H1361.85V82.168C1360.21 83.4336 1358.46 84.5352 1356.61 85.4727C1354.76 86.4102 1352.79 86.8789 1350.71 86.8789C1348.29 86.8789 1346.21 86.375 1344.45 85.3672C1342.71 84.3359 1341.29 82.9766 1340.16 81.2891C1339.06 79.6016 1338.24 77.7383 1337.7 75.6992C1337.16 73.6602 1336.89 71.6211 1336.89 69.582C1336.89 66.3242 1337.56 63.2422 1338.89 60.3359C1340.23 57.4062 1342.26 55.0273 1344.98 53.1992C1347.7 51.3477 1351.12 50.4219 1355.24 50.4219C1356.39 50.4219 1357.63 50.5391 1358.97 50.7734C1360.33 50.9844 1361.29 51.1602 1361.85 51.3008V38.1172H1356.4V35.7266L1365.68 32.9492H1368.57V81.3945C1368.57 82.3789 1369.07 82.9062 1370.08 82.9766L1373.17 83.1875V86ZM1361.85 79.4609V54.957C1361.24 54.7461 1360.33 54.5234 1359.11 54.2891C1357.91 54.0312 1356.79 53.9023 1355.73 53.9023C1352.17 53.9023 1349.32 55.2266 1347.19 57.875C1345.06 60.5 1343.99 63.9922 1343.99 68.3516C1343.99 72.2656 1344.91 75.5117 1346.73 78.0898C1348.56 80.668 1351.13 81.957 1354.43 81.957C1355.89 81.957 1357.25 81.6875 1358.51 81.1484C1359.8 80.5859 1360.91 80.0234 1361.85 79.4609ZM1421.3 60.582H1417.54L1416.98 55.5547C1416.46 55.1562 1415.7 54.7812 1414.69 54.4297C1413.68 54.0781 1412.62 53.9023 1411.49 53.9023C1409.52 53.9023 1408.06 54.3594 1407.1 55.2734C1406.14 56.1641 1405.66 57.3125 1405.66 58.7188C1405.66 59.7969 1405.9 60.7109 1406.39 61.4609C1406.89 62.2109 1407.72 62.9492 1408.89 63.6758C1410.06 64.3789 1411.66 65.1992 1413.67 66.1367C1416.18 67.2852 1418.25 68.5625 1419.89 69.9688C1421.54 71.3516 1422.36 73.2148 1422.36 75.5586C1422.36 79.0977 1421.14 81.875 1418.7 83.8906C1416.26 85.8828 1412.9 86.8789 1408.61 86.8789C1406.41 86.8789 1404.37 86.6445 1402.49 86.1758C1400.64 85.7305 1399.35 85.3555 1398.62 85.0508V75.4883H1402.28L1403.16 81.6055C1403.89 82.0742 1404.78 82.5312 1405.83 82.9766C1406.91 83.3984 1408.15 83.6094 1409.56 83.6094C1411.62 83.6094 1413.21 83.0352 1414.34 81.8867C1415.46 80.7383 1416.03 79.4492 1416.03 78.0195C1416.03 76.1445 1415.25 74.6797 1413.71 73.625C1412.18 72.5469 1410.03 71.3398 1407.24 70.0039C1404.61 68.7383 1402.6 67.4375 1401.19 66.1016C1399.81 64.7656 1399.12 63.0195 1399.12 60.8633C1399.12 57.6523 1400.24 55.1094 1402.49 53.2344C1404.74 51.3594 1407.94 50.4219 1412.09 50.4219C1414.2 50.4219 1416.07 50.6211 1417.71 51.0195C1419.38 51.3945 1420.57 51.7461 1421.3 52.0742V60.582ZM1462.64 68.1406C1462.64 71.9141 1461.92 75.207 1460.46 78.0195C1459.01 80.832 1456.93 83.0117 1454.21 84.5586C1451.49 86.1055 1448.23 86.8789 1444.43 86.8789C1443.36 86.8789 1442.29 86.8086 1441.23 86.668C1440.18 86.5273 1439.11 86.375 1438.04 86.2109V96.9336C1438.04 97.3789 1438.19 97.7305 1438.49 97.9883C1438.8 98.2461 1439.17 98.3984 1439.62 98.4453L1443.87 98.9023V101.68H1426.36V98.9023L1429.81 98.4453C1430.82 98.3281 1431.32 97.8242 1431.32 96.9336V56.3984H1426.36V54.043L1435.22 51.3008H1438.04V54.8867C1439.68 53.6211 1441.45 52.5664 1443.34 51.7227C1445.24 50.8555 1447.09 50.4219 1448.9 50.4219C1451.38 50.4219 1453.66 51.1602 1455.72 52.6367C1457.8 54.0898 1459.48 56.1406 1460.75 58.7891C1462.01 61.4375 1462.64 64.5547 1462.64 68.1406ZM1455.44 69.1602C1455.44 66.6758 1455.05 64.4023 1454.28 62.3398C1453.53 60.2773 1452.4 58.625 1450.9 57.3828C1449.43 56.1172 1447.59 55.4844 1445.38 55.4844C1444.16 55.4844 1442.9 55.707 1441.59 56.1523C1440.27 56.5977 1439.09 57.0898 1438.04 57.6289V82.4141C1440 83.1641 1441.95 83.5391 1443.87 83.5391C1446.52 83.5391 1448.69 82.8594 1450.38 81.5C1452.09 80.1406 1453.35 78.3711 1454.17 76.1914C1455.02 73.9883 1455.44 71.6445 1455.44 69.1602ZM1497.98 82.4141C1495.96 83.6562 1493.78 84.7109 1491.44 85.5781C1489.12 86.4453 1486.74 86.8789 1484.3 86.8789C1481.39 86.8789 1478.66 86.2344 1476.11 84.9453C1473.58 83.6328 1471.53 81.6523 1469.96 79.0039C1468.39 76.3555 1467.6 73.0273 1467.6 69.0195C1467.6 65.2695 1468.33 62 1469.78 59.2109C1471.23 56.4219 1473.24 54.2656 1475.79 52.7422C1478.35 51.1953 1481.25 50.4219 1484.51 50.4219C1488.99 50.4219 1492.35 51.8164 1494.6 54.6055C1496.85 57.3711 1497.98 60.8984 1497.98 65.1875C1497.98 65.4219 1497.98 65.7383 1497.98 66.1367C1497.98 66.5117 1497.95 66.8633 1497.91 67.1914H1474.56C1474.56 69.0195 1474.75 70.8477 1475.12 72.6758C1475.52 74.4805 1476.18 76.1211 1477.09 77.5977C1478.01 79.0742 1479.24 80.2578 1480.79 81.1484C1482.33 82.0391 1484.27 82.4844 1486.59 82.4844C1488.65 82.4844 1490.65 82.0156 1492.6 81.0781C1494.57 80.1172 1496.36 79.0977 1497.98 78.0195V82.4141ZM1490.77 63.957V62.375C1490.77 60.0078 1490.2 58.0156 1489.05 56.3984C1487.92 54.7812 1486.16 53.9727 1483.77 53.9727C1481.41 53.9727 1479.39 54.8633 1477.73 56.6445C1476.06 58.4258 1475.14 60.8633 1474.95 63.957H1490.77ZM1531.55 83.3281C1529.93 84.1953 1528.11 85.0039 1526.07 85.7539C1524.05 86.5039 1521.82 86.8789 1519.39 86.8789C1516.04 86.8789 1513.12 86.0938 1510.63 84.5234C1508.17 82.9531 1506.26 80.8203 1504.9 78.125C1503.57 75.4062 1502.9 72.3242 1502.9 68.8789C1502.9 64.8477 1503.7 61.4609 1505.29 58.7188C1506.91 55.9766 1509.03 53.9141 1511.65 52.5312C1514.3 51.125 1517.16 50.4219 1520.23 50.4219C1523.39 50.4219 1526.04 51.043 1528.18 52.2852C1530.33 53.5039 1531.41 55.2852 1531.41 57.6289C1531.41 59.0352 1530.96 60.1016 1530.07 60.8281C1529.21 61.5312 1528.23 61.8828 1527.16 61.8828C1526.36 61.8828 1525.67 61.7539 1525.08 61.4961C1524.5 61.2148 1523.98 60.9336 1523.54 60.6523V54.3945C1522.43 53.7617 1521.43 53.4453 1520.51 53.4453C1518.38 53.4453 1516.54 54.0781 1514.99 55.3438C1513.47 56.5859 1512.3 58.2969 1511.48 60.4766C1510.66 62.6562 1510.25 65.1406 1510.25 67.9297C1510.25 70.5781 1510.69 73.0039 1511.58 75.207C1512.47 77.3867 1513.8 79.1211 1515.55 80.4102C1517.34 81.6992 1519.54 82.3438 1522.16 82.3438C1523.83 82.3438 1525.42 82.0742 1526.95 81.5352C1528.47 80.9961 1530 80.2227 1531.55 79.2148V83.3281ZM1548.07 82.0273C1548.07 83.3633 1547.59 84.5117 1546.63 85.4727C1545.67 86.4102 1544.52 86.8789 1543.19 86.8789C1541.85 86.8789 1540.71 86.4102 1539.78 85.4727C1538.84 84.5117 1538.37 83.3633 1538.37 82.0273C1538.37 80.7148 1538.84 79.5898 1539.78 78.6523C1540.71 77.6914 1541.85 77.2109 1543.19 77.2109C1544.52 77.2109 1545.67 77.6914 1546.63 78.6523C1547.59 79.5898 1548.07 80.7148 1548.07 82.0273Z" fill="black"/>
<rect x="269.5" y="156.5" width="935.563" height="935.563" fill="white" stroke="black" stroke-width="15"/>
<mask id="path-3-inside-1_54_10" fill="white">
<rect x="277" y="777.709" width="153.427" height="153.427" rx="10"/>
</mask>
<rect x="277" y="777.709" width="153.427" height="153.427" rx="10" fill="#99690F"/>
<rect x="277" y="777.709" width="153.427" height="153.427" rx="10" stroke="black" stroke-width="30" mask="url(#path-3-inside-1_54_10)"/>
<rect x="277" y="777.709" width="153.427" height="153.427" rx="10" stroke="#69900E" stroke-width="30" mask="url(#path-3-inside-1_54_10)"/>
<mask id="path-4-inside-2_54_10" fill="white">
<rect x="430.427" y="931.136" width="153.427" height="153.427" rx="10"/>
</mask>
<rect x="430.427" y="931.136" width="153.427" height="153.427" rx="10" fill="#7AC1FF"/>
<rect x="430.427" y="931.136" width="153.427" height="153.427" rx="10" stroke="#7AC1FF" stroke-width="30" mask="url(#path-4-inside-2_54_10)"/>
<rect x="430.427" y="931.136" width="153.427" height="153.427" rx="10" stroke="#3C6EBE" stroke-width="30" mask="url(#path-4-inside-2_54_10)"/>
<mask id="path-5-inside-3_54_10" fill="white">
<rect x="583.855" y="931.136" width="153.427" height="153.427" rx="10"/>
</mask>
<rect x="583.855" y="931.136" width="153.427" height="153.427" rx="10" fill="#7AC1FF"/>
<rect x="583.855" y="931.136" width="153.427" height="153.427" rx="10" stroke="#7AC1FF" stroke-width="30" mask="url(#path-5-inside-3_54_10)"/>
<rect x="583.855" y="931.136" width="153.427" height="153.427" rx="10" stroke="#3C6EBE" stroke-width="30" mask="url(#path-5-inside-3_54_10)"/>
<mask id="path-6-inside-4_54_10" fill="white">
<rect x="737.282" y="931.136" width="153.427" height="153.427" rx="10"/>
</mask>
<rect x="737.282" y="931.136" width="153.427" height="153.427" rx="10" fill="#99690F"/>
<rect x="737.282" y="931.136" width="153.427" height="153.427" rx="10" stroke="#99690F" stroke-width="30" mask="url(#path-6-inside-4_54_10)"/>
<rect x="737.282" y="931.136" width="153.427" height="153.427" rx="10" stroke="#93570E" stroke-width="30" mask="url(#path-6-inside-4_54_10)"/>
<mask id="path-7-inside-5_54_10" fill="white">
<rect x="277" y="931.136" width="153.427" height="153.427" rx="10"/>
</mask>
<rect x="277" y="931.136" width="153.427" height="153.427" rx="10" fill="#99690F"/>
<rect x="277" y="931.136" width="153.427" height="153.427" rx="10" stroke="#99690F" stroke-width="30" mask="url(#path-7-inside-5_54_10)"/>
<rect x="277" y="931.136" width="153.427" height="153.427" rx="10" stroke="#93570E" stroke-width="30" mask="url(#path-7-inside-5_54_10)"/>
<mask id="path-8-inside-6_54_10" fill="white">
<rect x="737.282" y="777.709" width="153.427" height="153.427" rx="10"/>
</mask>
<rect x="737.282" y="777.709" width="153.427" height="153.427" rx="10" fill="#99690F"/>
<rect x="737.282" y="777.709" width="153.427" height="153.427" rx="10" stroke="black" stroke-width="30" mask="url(#path-8-inside-6_54_10)"/>
<rect x="737.282" y="777.709" width="153.427" height="153.427" rx="10" stroke="#69900E" stroke-width="30" mask="url(#path-8-inside-6_54_10)"/>
<mask id="path-9-inside-7_54_10" fill="white">
<rect x="890.709" y="777.709" width="153.427" height="153.427" rx="10"/>
</mask>
<rect x="890.709" y="777.709" width="153.427" height="153.427" rx="10" fill="#99690F"/>
<rect x="890.709" y="777.709" width="153.427" height="153.427" rx="10" stroke="#99690F" stroke-width="30" mask="url(#path-9-inside-7_54_10)"/>
<rect x="890.709" y="777.709" width="153.427" height="153.427" rx="10" stroke="#93570E" stroke-width="30" mask="url(#path-9-inside-7_54_10)"/>
<mask id="path-10-inside-8_54_10" fill="white">
<rect x="1044.14" y="470.855" width="153.427" height="153.427" rx="10"/>
</mask>
<rect x="1044.14" y="470.855" width="153.427" height="153.427" rx="10" fill="#99690F"/>
<rect x="1044.14" y="470.855" width="153.427" height="153.427" rx="10" stroke="black" stroke-width="30" mask="url(#path-10-inside-8_54_10)"/>
<rect x="1044.14" y="470.855" width="153.427" height="153.427" rx="10" stroke="#69900E" stroke-width="30" mask="url(#path-10-inside-8_54_10)"/>
<mask id="path-11-inside-9_54_10" fill="white">
<rect x="890.709" y="305.153" width="153.427" height="153.427" rx="10"/>
</mask>
<rect x="890.709" y="305.153" width="153.427" height="153.427" rx="10" fill="white" stroke="black" stroke-width="30" stroke-dasharray="30 30" mask="url(#path-11-inside-9_54_10)"/>
<mask id="path-12-inside-10_54_10" fill="white">
<rect x="277" y="164" width="153.427" height="153.427" rx="10"/>
</mask>
<rect x="277" y="164" width="153.427" height="153.427" rx="10" fill="#FFA600"/>
<rect x="277" y="164" width="153.427" height="153.427" rx="10" stroke="black" stroke-width="30" mask="url(#path-12-inside-10_54_10)"/>
<rect x="277" y="164" width="153.427" height="153.427" rx="10" stroke="#FFE100" stroke-width="30" mask="url(#path-12-inside-10_54_10)"/>
<mask id="path-13-inside-11_54_10" fill="white">
<rect x="1044.14" y="624.282" width="153.427" height="153.427" rx="10"/>
</mask>
<rect x="1044.14" y="624.282" width="153.427" height="153.427" rx="10" fill="#99690F"/>
<rect x="1044.14" y="624.282" width="153.427" height="153.427" rx="10" stroke="#99690F" stroke-width="30" mask="url(#path-13-inside-11_54_10)"/>
<rect x="1044.14" y="624.282" width="153.427" height="153.427" rx="10" stroke="#93570E" stroke-width="30" mask="url(#path-13-inside-11_54_10)"/>
<mask id="path-14-inside-12_54_10" fill="white">
<rect x="890.709" y="624.282" width="153.427" height="153.427" rx="10"/>
</mask>
<rect x="890.709" y="624.282" width="153.427" height="153.427" rx="10" fill="#99690F"/>
<rect x="890.709" y="624.282" width="153.427" height="153.427" rx="10" stroke="black" stroke-width="30" mask="url(#path-14-inside-12_54_10)"/>
<rect x="890.709" y="624.282" width="153.427" height="153.427" rx="10" stroke="#69900E" stroke-width="30" mask="url(#path-14-inside-12_54_10)"/>
<mask id="path-15-inside-13_54_10" fill="white">
<rect x="1044.14" y="777.709" width="153.427" height="153.427" rx="10"/>
</mask>
<rect x="1044.14" y="777.709" width="153.427" height="153.427" rx="10" fill="#99690F"/>
<rect x="1044.14" y="777.709" width="153.427" height="153.427" rx="10" stroke="#99690F" stroke-width="30" mask="url(#path-15-inside-13_54_10)"/>
<rect x="1044.14" y="777.709" width="153.427" height="153.427" rx="10" stroke="#93570E" stroke-width="30" mask="url(#path-15-inside-13_54_10)"/>
<mask id="path-16-inside-14_54_10" fill="white">
<rect x="1044.14" y="931.136" width="153.427" height="153.427" rx="10"/>
</mask>
<rect x="1044.14" y="931.136" width="153.427" height="153.427" rx="10" fill="#99690F"/>
<rect x="1044.14" y="931.136" width="153.427" height="153.427" rx="10" stroke="#99690F" stroke-width="30" mask="url(#path-16-inside-14_54_10)"/>
<rect x="1044.14" y="931.136" width="153.427" height="153.427" rx="10" stroke="#93570E" stroke-width="30" mask="url(#path-16-inside-14_54_10)"/>
<mask id="path-17-inside-15_54_10" fill="white">
<rect x="890.709" y="931.136" width="153.427" height="153.427" rx="10"/>
</mask>
<rect x="890.709" y="931.136" width="153.427" height="153.427" rx="10" fill="#99690F"/>
<rect x="890.709" y="931.136" width="153.427" height="153.427" rx="10" stroke="#99690F" stroke-width="30" mask="url(#path-17-inside-15_54_10)"/>
<rect x="890.709" y="931.136" width="153.427" height="153.427" rx="10" stroke="#93570E" stroke-width="30" mask="url(#path-17-inside-15_54_10)"/>
<path d="M356.783 366.524L413.551 492.335M454.976 329.702L573.115 450.909M496.402 239.18L642.157 297.482" stroke="#FFE100" stroke-width="3"/>
<path d="M861.791 199.055C860.815 198.079 859.232 198.079 858.256 199.055L842.346 214.965C841.37 215.941 841.37 217.524 842.346 218.501C843.322 219.477 844.905 219.477 845.882 218.501L860.024 204.359L874.166 218.501C875.142 219.477 876.725 219.477 877.701 218.501C878.678 217.524 878.678 215.941 877.701 214.965L861.791 199.055ZM860.024 277.537H862.524V200.823H860.024H857.524V277.537H860.024Z" fill="black"/>
<path d="M938.505 279.304C939.481 278.328 939.481 276.745 938.505 275.769L922.595 259.859C921.619 258.883 920.036 258.883 919.06 259.859C918.083 260.835 918.083 262.418 919.06 263.394L933.202 277.537L919.06 291.679C918.083 292.655 918.083 294.238 919.06 295.214C920.036 296.191 921.619 296.191 922.595 295.214L938.505 279.304ZM860.024 277.537V280.037H936.737V277.537V275.037H860.024V277.537Z" fill="black"/>
<path d="M781.542 275.769C780.566 276.745 780.566 278.328 781.542 279.304L797.452 295.214C798.429 296.191 800.011 296.191 800.988 295.214C801.964 294.238 801.964 292.655 800.988 291.679L786.846 277.537L800.988 263.394C801.964 262.418 801.964 260.835 800.988 259.859C800.011 258.883 798.429 258.883 797.452 259.859L781.542 275.769ZM860.024 277.537V275.037H783.31V277.537V280.037H860.024V277.537Z" fill="black"/>
<path d="M858.256 356.018C859.232 356.994 860.815 356.994 861.791 356.018L877.701 340.108C878.678 339.132 878.678 337.549 877.701 336.573C876.725 335.596 875.142 335.596 874.166 336.573L860.024 350.715L845.882 336.573C844.905 335.596 843.322 335.596 842.346 336.573C841.37 337.549 841.37 339.132 842.346 340.108L858.256 356.018ZM860.024 277.537H857.524V354.25H860.024H862.524V277.537H860.024Z" fill="black"/>
</svg>
