<svg width="1775" height="954" viewBox="0 0 1775 954" fill="none" xmlns="http://www.w3.org/2000/svg">
<path d="M530.207 52.2148C530.207 55.7539 529.363 58.6953 527.676 61.0391C525.988 63.3594 523.727 65.0938 520.891 66.2422C518.055 67.3906 514.891 67.9531 511.398 67.9297C510.461 67.9297 509.418 67.8945 508.27 67.8242C507.145 67.7305 506.488 67.6719 506.301 67.6484V81.043C506.301 81.3945 506.418 81.7344 506.652 82.0625C506.91 82.3906 507.297 82.5781 507.812 82.625L512.559 82.9062V86H493.645V82.9062L497.441 82.625C497.957 82.5781 498.344 82.3906 498.602 82.0625C498.883 81.7344 499.023 81.3945 499.023 81.043V42.6523C499.023 42.3008 498.883 41.9609 498.602 41.6328C498.344 41.2812 497.957 41.0938 497.441 41.0703L493.117 40.7891V37.6953H510.344C517.141 37.6953 522.145 38.7852 525.355 40.9648C528.59 43.1445 530.207 46.8945 530.207 52.2148ZM522.719 52.3203C522.719 48.8281 521.734 46.1094 519.766 44.1641C517.82 42.1953 514.551 41.2109 509.957 41.2109C509.301 41.2109 508.527 41.2227 507.637 41.2461C506.746 41.2695 506.301 41.2812 506.301 41.2812V63.957C506.418 63.957 506.945 64.0273 507.883 64.168C508.844 64.2852 509.664 64.3438 510.344 64.3438C514.117 64.3672 517.117 63.418 519.344 61.4961C521.594 59.5508 522.719 56.4922 522.719 52.3203ZM552.461 86H534.953V83.1875L538.785 82.9766C539.113 82.9531 539.453 82.7773 539.805 82.4492C540.18 82.0977 540.367 81.7695 540.367 81.4648V38.1172H534.883V35.7266L544.094 32.9492H547.047V81.4648C547.047 81.7695 547.223 82.0977 547.574 82.4492C547.926 82.7773 548.254 82.9531 548.559 82.9766L552.461 83.1875V86ZM589.832 86H579.18L578.23 81.7461C578.23 81.7461 577.867 82.0039 577.141 82.5195C576.438 83.0352 575.5 83.6328 574.328 84.3125C573.156 84.9922 571.855 85.5898 570.426 86.1055C569.02 86.6211 567.613 86.8789 566.207 86.8789C563.605 86.8789 561.391 86.0117 559.562 84.2773C557.758 82.543 556.855 80.1641 556.855 77.1406C556.855 75.8047 557.09 74.5625 557.559 73.4141C558.051 72.2656 559.012 71.1758 560.441 70.1445C561.895 69.0898 564.039 68.0703 566.875 67.0859C569.734 66.0781 573.52 65.0586 578.23 64.0273C578.23 63.957 578.23 63.6641 578.23 63.1484C578.23 62.6328 578.23 62.1406 578.23 61.6719C578.23 61.1797 578.23 60.9336 578.23 60.9336C578.23 56.1992 575.992 53.832 571.516 53.832C570.273 53.832 569.195 53.9492 568.281 54.1836C567.391 54.418 566.77 54.6055 566.418 54.7461V61.0039H561.18C560.523 61.0039 559.914 60.8867 559.352 60.6523C558.789 60.3945 558.508 59.8203 558.508 58.9297C558.508 56.9609 559.258 55.3555 560.758 54.1133C562.258 52.8477 564.156 51.9219 566.453 51.3359C568.773 50.7266 571.117 50.4219 573.484 50.4219C576.461 50.4219 578.77 50.8906 580.41 51.8281C582.051 52.7422 583.199 54.0195 583.855 55.6602C584.512 57.2773 584.84 59.1289 584.84 61.2148V81.3945C584.84 81.8398 584.98 82.2031 585.262 82.4844C585.566 82.7656 585.93 82.9297 586.352 82.9766L589.832 83.1875V86ZM578.23 79.2148V66.7695C574.996 67.5664 572.418 68.375 570.496 69.1953C568.598 69.9922 567.18 70.8008 566.242 71.6211C565.305 72.418 564.684 73.2383 564.379 74.082C564.098 74.9023 563.957 75.7578 563.957 76.6484C563.957 78.125 564.426 79.4961 565.363 80.7617C566.324 82.0039 567.66 82.625 569.371 82.625C570.332 82.625 571.328 82.4609 572.359 82.1328C573.391 81.7812 574.352 81.3828 575.242 80.9375C576.133 80.4688 576.848 80.0703 577.387 79.7422C577.949 79.3906 578.23 79.2148 578.23 79.2148ZM628.469 54.1133L624.707 54.5352L610.891 88.2148C610.586 88.9883 610.105 90.0898 609.449 91.5195C608.816 92.9727 608.055 94.4492 607.164 95.9492C606.297 97.4727 605.359 98.7383 604.352 99.7461C603.484 100.613 602.523 101.281 601.469 101.75C600.438 102.242 599.312 102.488 598.094 102.488C596.383 102.488 595.07 102.066 594.156 101.223C593.266 100.402 592.82 99.4531 592.82 98.375C592.82 96.7812 593.594 95.3398 595.141 94.0508L601.891 97.1445C602.688 96.3477 603.484 95.2695 604.281 93.9102C605.078 92.5508 605.793 91.1445 606.426 89.6914C607.082 88.2383 607.586 86.9844 607.938 85.9297L595.703 54.5352L591.73 54.1133V51.3008H607.656V54.1133L604.211 54.3242C603.812 54.3477 603.484 54.5234 603.227 54.8516C602.992 55.1562 602.957 55.5078 603.121 55.9062L611.488 77.1406L620.031 55.9062C620.195 55.5312 620.172 55.1797 619.961 54.8516C619.75 54.5234 619.445 54.3477 619.047 54.3242L615.637 54.1133V51.3008H628.469V54.1133ZM674.277 84.4883C674.277 84.4883 673.82 84.6875 672.906 85.0859C672.016 85.4844 670.832 85.8828 669.355 86.2812C667.902 86.6797 666.309 86.8789 664.574 86.8789C661.879 86.8789 659.91 86.2461 658.668 84.9805C657.449 83.6914 656.84 81.6289 656.84 78.793V54.8867H652.234V52.5312L657.156 50.2109L660.391 42.582H663.555V51.3008H673.715V54.8867H663.555V74.9961C663.555 77.8555 664.035 79.8828 664.996 81.0781C665.957 82.25 667.398 82.8359 669.32 82.8359C670.727 82.8359 671.898 82.6367 672.836 82.2383C673.797 81.8164 674.277 81.6055 674.277 81.6055V84.4883ZM714.426 86H698.395V83.1875L701.348 82.9766C701.77 82.9297 702.133 82.7656 702.438 82.4844C702.766 82.2031 702.93 81.8398 702.93 81.3945V62.832C702.93 60.7695 702.438 59.0703 701.453 57.7344C700.469 56.375 698.582 55.6953 695.793 55.6953C694.527 55.6953 693.156 55.8945 691.68 56.293C690.227 56.6914 688.984 57.1836 687.953 57.7695V81.3945C687.953 82.3789 688.434 82.9062 689.395 82.9766L692.488 83.1875V86H676.281V83.1875L679.727 82.9766C680.734 82.9062 681.238 82.3789 681.238 81.3945V38.1172H675.859V35.7266L685.07 32.9492H687.953V54.8867C688.82 54.3477 689.945 53.7383 691.328 53.0586C692.711 52.3555 694.164 51.7461 695.688 51.2305C697.211 50.6914 698.594 50.4219 699.836 50.4219C702.602 50.4219 704.922 51.3125 706.797 53.0938C708.672 54.875 709.609 57.6172 709.609 61.3203V81.3945C709.609 81.8398 709.762 82.2031 710.066 82.4844C710.395 82.7656 710.77 82.9297 711.191 82.9766L714.426 83.1875V86ZM748.949 82.4141C746.934 83.6562 744.754 84.7109 742.41 85.5781C740.09 86.4453 737.711 86.8789 735.273 86.8789C732.367 86.8789 729.637 86.2344 727.082 84.9453C724.551 83.6328 722.5 81.6523 720.93 79.0039C719.359 76.3555 718.574 73.0273 718.574 69.0195C718.574 65.2695 719.301 62 720.754 59.2109C722.207 56.4219 724.211 54.2656 726.766 52.7422C729.32 51.1953 732.227 50.4219 735.484 50.4219C739.961 50.4219 743.324 51.8164 745.574 54.6055C747.824 57.3711 748.949 60.8984 748.949 65.1875C748.949 65.4219 748.949 65.7383 748.949 66.1367C748.949 66.5117 748.926 66.8633 748.879 67.1914H725.535C725.535 69.0195 725.723 70.8477 726.098 72.6758C726.496 74.4805 727.152 76.1211 728.066 77.5977C728.98 79.0742 730.211 80.2578 731.758 81.1484C733.305 82.0391 735.238 82.4844 737.559 82.4844C739.621 82.4844 741.625 82.0156 743.57 81.0781C745.539 80.1172 747.332 79.0977 748.949 78.0195V82.4141ZM741.742 63.957V62.375C741.742 60.0078 741.168 58.0156 740.02 56.3984C738.895 54.7812 737.137 53.9727 734.746 53.9727C732.379 53.9727 730.363 54.8633 728.699 56.6445C727.035 58.4258 726.109 60.8633 725.922 63.957H741.742ZM809.066 56.1172H801.895C802.434 56.9844 802.891 57.9336 803.266 58.9648C803.641 59.9961 803.828 61.2031 803.828 62.5859C803.828 65.1172 803.09 67.2734 801.613 69.0547C800.137 70.8125 798.215 72.125 795.848 72.9922C793.504 73.8359 790.984 74.1641 788.289 73.9766C787.914 74.5859 787.68 75.2539 787.586 75.9805C787.516 76.707 787.504 77.3398 787.551 77.8789C787.621 78.418 787.668 78.7227 787.691 78.793C788.98 78.9336 790.469 79.0977 792.156 79.2852C793.867 79.4727 795.59 79.7656 797.324 80.1641C799.082 80.5625 800.711 81.1133 802.211 81.8164C803.711 82.5195 804.918 83.4453 805.832 84.5938C806.746 85.7422 807.203 87.1719 807.203 88.8828C807.203 91.1562 806.371 93.3242 804.707 95.3867C803.043 97.4727 800.793 99.1719 797.957 100.484C795.145 101.82 791.992 102.488 788.5 102.488C784.211 102.488 780.883 101.504 778.516 99.5352C776.148 97.5898 774.965 95.1641 774.965 92.2578C774.965 90.1719 775.586 88.3086 776.828 86.668C778.07 85.0508 779.992 84.0078 782.594 83.5391C782.336 82.7891 782.148 82.25 782.031 81.9219C781.914 81.5938 781.855 81.0312 781.855 80.2344C781.855 79.2969 782.137 78.2656 782.699 77.1406C783.285 75.9922 784.211 74.7734 785.477 73.4844C783.086 72.9453 781 71.7383 779.219 69.8633C777.438 67.9648 776.547 65.5625 776.547 62.6562C776.547 58.8828 777.871 55.9062 780.52 53.7266C783.191 51.5234 786.684 50.4219 790.996 50.4219C792.707 50.4219 794.289 50.6797 795.742 51.1953C797.219 51.6875 798.426 52.1562 799.363 52.6016H809.066V56.1172ZM796.973 62.1641C796.973 60.6406 796.715 59.2109 796.199 57.875C795.684 56.5391 794.934 55.4609 793.949 54.6406C792.965 53.7969 791.746 53.375 790.293 53.375C788.277 53.375 786.625 54.1602 785.336 55.7305C784.07 57.2773 783.438 59.4453 783.438 62.2344C783.438 64.6484 784.012 66.7227 785.16 68.457C786.309 70.168 788.02 71.0234 790.293 71.0234C792.449 71.0234 794.102 70.1562 795.25 68.4219C796.398 66.6875 796.973 64.6016 796.973 62.1641ZM801.016 90.8164C801.016 89.3164 800.488 88.1562 799.434 87.3359C798.402 86.5156 797.113 85.9062 795.566 85.5078C794.02 85.1094 792.461 84.8281 790.891 84.6641C789.32 84.4766 787.996 84.2773 786.918 84.0664C784.832 84.8164 783.391 85.8359 782.594 87.125C781.82 88.4141 781.434 89.6445 781.434 90.8164C781.434 91.9648 781.762 93.1836 782.418 94.4727C783.098 95.7852 784.129 96.8984 785.512 97.8125C786.918 98.7266 788.699 99.1836 790.855 99.1836C793.152 99.1836 795.051 98.7266 796.551 97.8125C798.051 96.8984 799.164 95.7852 799.891 94.4727C800.641 93.1836 801.016 91.9648 801.016 90.8164ZM845.77 86H835.117L834.168 81.7461C834.168 81.7461 833.805 82.0039 833.078 82.5195C832.375 83.0352 831.438 83.6328 830.266 84.3125C829.094 84.9922 827.793 85.5898 826.363 86.1055C824.957 86.6211 823.551 86.8789 822.145 86.8789C819.543 86.8789 817.328 86.0117 815.5 84.2773C813.695 82.543 812.793 80.1641 812.793 77.1406C812.793 75.8047 813.027 74.5625 813.496 73.4141C813.988 72.2656 814.949 71.1758 816.379 70.1445C817.832 69.0898 819.977 68.0703 822.812 67.0859C825.672 66.0781 829.457 65.0586 834.168 64.0273C834.168 63.957 834.168 63.6641 834.168 63.1484C834.168 62.6328 834.168 62.1406 834.168 61.6719C834.168 61.1797 834.168 60.9336 834.168 60.9336C834.168 56.1992 831.93 53.832 827.453 53.832C826.211 53.832 825.133 53.9492 824.219 54.1836C823.328 54.418 822.707 54.6055 822.355 54.7461V61.0039H817.117C816.461 61.0039 815.852 60.8867 815.289 60.6523C814.727 60.3945 814.445 59.8203 814.445 58.9297C814.445 56.9609 815.195 55.3555 816.695 54.1133C818.195 52.8477 820.094 51.9219 822.391 51.3359C824.711 50.7266 827.055 50.4219 829.422 50.4219C832.398 50.4219 834.707 50.8906 836.348 51.8281C837.988 52.7422 839.137 54.0195 839.793 55.6602C840.449 57.2773 840.777 59.1289 840.777 61.2148V81.3945C840.777 81.8398 840.918 82.2031 841.199 82.4844C841.504 82.7656 841.867 82.9297 842.289 82.9766L845.77 83.1875V86ZM834.168 79.2148V66.7695C830.934 67.5664 828.355 68.375 826.434 69.1953C824.535 69.9922 823.117 70.8008 822.18 71.6211C821.242 72.418 820.621 73.2383 820.316 74.082C820.035 74.9023 819.895 75.7578 819.895 76.6484C819.895 78.125 820.363 79.4961 821.301 80.7617C822.262 82.0039 823.598 82.625 825.309 82.625C826.27 82.625 827.266 82.4609 828.297 82.1328C829.328 81.7812 830.289 81.3828 831.18 80.9375C832.07 80.4688 832.785 80.0703 833.324 79.7422C833.887 79.3906 834.168 79.2148 834.168 79.2148ZM906.59 86H890.453V83.1875L893.477 82.9766C894.484 82.9062 894.988 82.3789 894.988 81.3945V63.043C894.988 60.8164 894.52 59.0352 893.582 57.6992C892.668 56.3633 891.004 55.6953 888.59 55.6953C887.395 55.6953 886.082 55.8828 884.652 56.2578C883.246 56.6328 881.992 57.1133 880.891 57.6992V81.3945C880.891 82.3789 881.395 82.9062 882.402 82.9766L885.426 83.1875V86H869.641V83.1875L872.664 82.9766C873.672 82.9062 874.176 82.3789 874.176 81.3945V62.5859C874.176 60.5469 873.695 58.8945 872.734 57.6289C871.773 56.3398 870.145 55.6953 867.848 55.6953C866.488 55.6953 865.07 55.9297 863.594 56.3984C862.117 56.8438 860.969 57.3008 860.148 57.7695V81.3945C860.148 82.3789 860.652 82.9062 861.66 82.9766L864.684 83.1875V86H848.406V83.1875L851.922 82.9766C852.93 82.9062 853.434 82.3789 853.434 81.3945V56.3984H848.477V54.043L857.195 51.3008H860.148V54.8867C861.227 54.2305 862.434 53.5625 863.77 52.8828C865.129 52.2031 866.512 51.6289 867.918 51.1602C869.324 50.668 870.648 50.4219 871.891 50.4219C873.977 50.4219 875.664 50.9609 876.953 52.0391C878.242 53.0938 879.191 54.2188 879.801 55.4141C880.762 54.8047 881.98 54.1133 883.457 53.3398C884.934 52.543 886.457 51.8633 888.027 51.3008C889.621 50.7148 891.051 50.4219 892.316 50.4219C894.848 50.4219 896.781 51.0078 898.117 52.1797C899.453 53.3281 900.367 54.7578 900.859 56.4688C901.352 58.1562 901.598 59.8203 901.598 61.4609V81.3945C901.598 81.8398 901.738 82.2031 902.02 82.4844C902.324 82.7656 902.688 82.9297 903.109 82.9766L906.59 83.1875V86ZM941.043 82.4141C939.027 83.6562 936.848 84.7109 934.504 85.5781C932.184 86.4453 929.805 86.8789 927.367 86.8789C924.461 86.8789 921.73 86.2344 919.176 84.9453C916.645 83.6328 914.594 81.6523 913.023 79.0039C911.453 76.3555 910.668 73.0273 910.668 69.0195C910.668 65.2695 911.395 62 912.848 59.2109C914.301 56.4219 916.305 54.2656 918.859 52.7422C921.414 51.1953 924.32 50.4219 927.578 50.4219C932.055 50.4219 935.418 51.8164 937.668 54.6055C939.918 57.3711 941.043 60.8984 941.043 65.1875C941.043 65.4219 941.043 65.7383 941.043 66.1367C941.043 66.5117 941.02 66.8633 940.973 67.1914H917.629C917.629 69.0195 917.816 70.8477 918.191 72.6758C918.59 74.4805 919.246 76.1211 920.16 77.5977C921.074 79.0742 922.305 80.2578 923.852 81.1484C925.398 82.0391 927.332 82.4844 929.652 82.4844C931.715 82.4844 933.719 82.0156 935.664 81.0781C937.633 80.1172 939.426 79.0977 941.043 78.0195V82.4141ZM933.836 63.957V62.375C933.836 60.0078 933.262 58.0156 932.113 56.3984C930.988 54.7812 929.23 53.9727 926.84 53.9727C924.473 53.9727 922.457 54.8633 920.793 56.6445C919.129 58.4258 918.203 60.8633 918.016 63.957H933.836ZM968.641 60.582H964.879L964.316 55.5547C963.801 55.1562 963.039 54.7812 962.031 54.4297C961.023 54.0781 959.957 53.9023 958.832 53.9023C956.863 53.9023 955.398 54.3594 954.438 55.2734C953.477 56.1641 952.996 57.3125 952.996 58.7188C952.996 59.7969 953.242 60.7109 953.734 61.4609C954.227 62.2109 955.059 62.9492 956.23 63.6758C957.402 64.3789 958.996 65.1992 961.012 66.1367C963.52 67.2852 965.594 68.5625 967.234 69.9688C968.875 71.3516 969.695 73.2148 969.695 75.5586C969.695 79.0977 968.477 81.875 966.039 83.8906C963.602 85.8828 960.238 86.8789 955.949 86.8789C953.746 86.8789 951.707 86.6445 949.832 86.1758C947.98 85.7305 946.691 85.3555 945.965 85.0508V75.4883H949.621L950.5 81.6055C951.227 82.0742 952.117 82.5312 953.172 82.9766C954.25 83.3984 955.492 83.6094 956.898 83.6094C958.961 83.6094 960.555 83.0352 961.68 81.8867C962.805 80.7383 963.367 79.4492 963.367 78.0195C963.367 76.1445 962.594 74.6797 961.047 73.625C959.523 72.5469 957.367 71.3398 954.578 70.0039C951.953 68.7383 949.938 67.4375 948.531 66.1016C947.148 64.7656 946.457 63.0195 946.457 60.8633C946.457 57.6523 947.582 55.1094 949.832 53.2344C952.082 51.3594 955.281 50.4219 959.43 50.4219C961.539 50.4219 963.414 50.6211 965.055 51.0195C966.719 51.3945 967.914 51.7461 968.641 52.0742V60.582ZM1017.26 84.4883C1017.26 84.4883 1016.8 84.6875 1015.89 85.0859C1015 85.4844 1013.82 85.8828 1012.34 86.2812C1010.89 86.6797 1009.29 86.8789 1007.56 86.8789C1004.86 86.8789 1002.89 86.2461 1001.65 84.9805C1000.43 83.6914 999.824 81.6289 999.824 78.793V54.8867H995.219V52.5312L1000.14 50.2109L1003.38 42.582H1006.54V51.3008H1016.7V54.8867H1006.54V74.9961C1006.54 77.8555 1007.02 79.8828 1007.98 81.0781C1008.94 82.25 1010.38 82.8359 1012.3 82.8359C1013.71 82.8359 1014.88 82.6367 1015.82 82.2383C1016.78 81.8164 1017.26 81.6055 1017.26 81.6055V84.4883ZM1054.46 68.7031C1054.46 72.1016 1053.75 75.1836 1052.35 77.9492C1050.94 80.6914 1048.95 82.8711 1046.37 84.4883C1043.82 86.082 1040.78 86.8789 1037.27 86.8789C1033.77 86.8789 1030.75 86.082 1028.2 84.4883C1025.64 82.8945 1023.67 80.7266 1022.29 77.9844C1020.91 75.2422 1020.21 72.1484 1020.21 68.7031C1020.21 65.2812 1020.91 62.1875 1022.29 59.4219C1023.7 56.6562 1025.69 54.4648 1028.27 52.8477C1030.87 51.2305 1033.94 50.4219 1037.48 50.4219C1041.06 50.4219 1044.12 51.2422 1046.65 52.8828C1049.18 54.5234 1051.12 56.7266 1052.45 59.4922C1053.79 62.2578 1054.46 65.3281 1054.46 68.7031ZM1046.97 68.6328C1046.97 66.0078 1046.62 63.5586 1045.91 61.2852C1045.23 59.0117 1044.18 57.1719 1042.75 55.7656C1041.34 54.3594 1039.56 53.6562 1037.41 53.6562C1035.18 53.6562 1033.35 54.3594 1031.92 55.7656C1030.52 57.1719 1029.47 59.0117 1028.79 61.2852C1028.11 63.5586 1027.77 66.0078 1027.77 68.6328C1027.77 71.2344 1028.11 73.6836 1028.79 75.9805C1029.5 78.2539 1030.55 80.0938 1031.96 81.5C1033.39 82.9062 1035.18 83.6094 1037.34 83.6094C1039.54 83.6094 1041.34 82.9062 1042.75 81.5C1044.18 80.0938 1045.23 78.2539 1045.91 75.9805C1046.62 73.707 1046.97 71.2578 1046.97 68.6328ZM1093.48 56.1172H1086.31C1086.85 56.9844 1087.3 57.9336 1087.68 58.9648C1088.05 59.9961 1088.24 61.2031 1088.24 62.5859C1088.24 65.1172 1087.5 67.2734 1086.03 69.0547C1084.55 70.8125 1082.63 72.125 1080.26 72.9922C1077.92 73.8359 1075.4 74.1641 1072.7 73.9766C1072.33 74.5859 1072.09 75.2539 1072 75.9805C1071.93 76.707 1071.92 77.3398 1071.96 77.8789C1072.04 78.418 1072.08 78.7227 1072.11 78.793C1073.39 78.9336 1074.88 79.0977 1076.57 79.2852C1078.28 79.4727 1080 79.7656 1081.74 80.1641C1083.5 80.5625 1085.12 81.1133 1086.62 81.8164C1088.12 82.5195 1089.33 83.4453 1090.25 84.5938C1091.16 85.7422 1091.62 87.1719 1091.62 88.8828C1091.62 91.1562 1090.79 93.3242 1089.12 95.3867C1087.46 97.4727 1085.21 99.1719 1082.37 100.484C1079.56 101.82 1076.41 102.488 1072.91 102.488C1068.62 102.488 1065.3 101.504 1062.93 99.5352C1060.56 97.5898 1059.38 95.1641 1059.38 92.2578C1059.38 90.1719 1060 88.3086 1061.24 86.668C1062.48 85.0508 1064.41 84.0078 1067.01 83.5391C1066.75 82.7891 1066.56 82.25 1066.45 81.9219C1066.33 81.5938 1066.27 81.0312 1066.27 80.2344C1066.27 79.2969 1066.55 78.2656 1067.11 77.1406C1067.7 75.9922 1068.62 74.7734 1069.89 73.4844C1067.5 72.9453 1065.41 71.7383 1063.63 69.8633C1061.85 67.9648 1060.96 65.5625 1060.96 62.6562C1060.96 58.8828 1062.29 55.9062 1064.93 53.7266C1067.61 51.5234 1071.1 50.4219 1075.41 50.4219C1077.12 50.4219 1078.7 50.6797 1080.16 51.1953C1081.63 51.6875 1082.84 52.1562 1083.78 52.6016H1093.48V56.1172ZM1081.39 62.1641C1081.39 60.6406 1081.13 59.2109 1080.61 57.875C1080.1 56.5391 1079.35 55.4609 1078.36 54.6406C1077.38 53.7969 1076.16 53.375 1074.71 53.375C1072.69 53.375 1071.04 54.1602 1069.75 55.7305C1068.48 57.2773 1067.85 59.4453 1067.85 62.2344C1067.85 64.6484 1068.43 66.7227 1069.57 68.457C1070.72 70.168 1072.43 71.0234 1074.71 71.0234C1076.86 71.0234 1078.52 70.1562 1079.66 68.4219C1080.81 66.6875 1081.39 64.6016 1081.39 62.1641ZM1085.43 90.8164C1085.43 89.3164 1084.9 88.1562 1083.85 87.3359C1082.82 86.5156 1081.53 85.9062 1079.98 85.5078C1078.43 85.1094 1076.88 84.8281 1075.3 84.6641C1073.73 84.4766 1072.41 84.2773 1071.33 84.0664C1069.25 84.8164 1067.8 85.8359 1067.01 87.125C1066.23 88.4141 1065.85 89.6445 1065.85 90.8164C1065.85 91.9648 1066.18 93.1836 1066.83 94.4727C1067.51 95.7852 1068.54 96.8984 1069.93 97.8125C1071.33 98.7266 1073.11 99.1836 1075.27 99.1836C1077.57 99.1836 1079.46 98.7266 1080.96 97.8125C1082.46 96.8984 1083.58 95.7852 1084.3 94.4727C1085.05 93.1836 1085.43 91.9648 1085.43 90.8164ZM1127.58 82.4141C1125.57 83.6562 1123.39 84.7109 1121.04 85.5781C1118.72 86.4453 1116.34 86.8789 1113.91 86.8789C1111 86.8789 1108.27 86.2344 1105.71 84.9453C1103.18 83.6328 1101.13 81.6523 1099.56 79.0039C1097.99 76.3555 1097.21 73.0273 1097.21 69.0195C1097.21 65.2695 1097.93 62 1099.39 59.2109C1100.84 56.4219 1102.84 54.2656 1105.4 52.7422C1107.95 51.1953 1110.86 50.4219 1114.12 50.4219C1118.59 50.4219 1121.96 51.8164 1124.21 54.6055C1126.46 57.3711 1127.58 60.8984 1127.58 65.1875C1127.58 65.4219 1127.58 65.7383 1127.58 66.1367C1127.58 66.5117 1127.56 66.8633 1127.51 67.1914H1104.17C1104.17 69.0195 1104.36 70.8477 1104.73 72.6758C1105.13 74.4805 1105.79 76.1211 1106.7 77.5977C1107.61 79.0742 1108.84 80.2578 1110.39 81.1484C1111.94 82.0391 1113.87 82.4844 1116.19 82.4844C1118.25 82.4844 1120.26 82.0156 1122.2 81.0781C1124.17 80.1172 1125.96 79.0977 1127.58 78.0195V82.4141ZM1120.38 63.957V62.375C1120.38 60.0078 1119.8 58.0156 1118.65 56.3984C1117.53 54.7812 1115.77 53.9727 1113.38 53.9727C1111.01 53.9727 1109 54.8633 1107.33 56.6445C1105.67 58.4258 1104.74 60.8633 1104.55 63.957H1120.38ZM1154.02 84.4883C1154.02 84.4883 1153.56 84.6875 1152.65 85.0859C1151.76 85.4844 1150.57 85.8828 1149.1 86.2812C1147.64 86.6797 1146.05 86.8789 1144.32 86.8789C1141.62 86.8789 1139.65 86.2461 1138.41 84.9805C1137.19 83.6914 1136.58 81.6289 1136.58 78.793V54.8867H1131.98V52.5312L1136.9 50.2109L1140.13 42.582H1143.3V51.3008H1153.46V54.8867H1143.3V74.9961C1143.3 77.8555 1143.78 79.8828 1144.74 81.0781C1145.7 82.25 1147.14 82.8359 1149.06 82.8359C1150.47 82.8359 1151.64 82.6367 1152.58 82.2383C1153.54 81.8164 1154.02 81.6055 1154.02 81.6055V84.4883ZM1194.17 86H1178.14V83.1875L1181.09 82.9766C1181.51 82.9297 1181.88 82.7656 1182.18 82.4844C1182.51 82.2031 1182.67 81.8398 1182.67 81.3945V62.832C1182.67 60.7695 1182.18 59.0703 1181.2 57.7344C1180.21 56.375 1178.32 55.6953 1175.54 55.6953C1174.27 55.6953 1172.9 55.8945 1171.42 56.293C1169.97 56.6914 1168.73 57.1836 1167.7 57.7695V81.3945C1167.7 82.3789 1168.18 82.9062 1169.14 82.9766L1172.23 83.1875V86H1156.02V83.1875L1159.47 82.9766C1160.48 82.9062 1160.98 82.3789 1160.98 81.3945V38.1172H1155.6V35.7266L1164.81 32.9492H1167.7V54.8867C1168.56 54.3477 1169.69 53.7383 1171.07 53.0586C1172.45 52.3555 1173.91 51.7461 1175.43 51.2305C1176.95 50.6914 1178.34 50.4219 1179.58 50.4219C1182.34 50.4219 1184.66 51.3125 1186.54 53.0938C1188.41 54.875 1189.35 57.6172 1189.35 61.3203V81.3945C1189.35 81.8398 1189.5 82.2031 1189.81 82.4844C1190.14 82.7656 1190.51 82.9297 1190.93 82.9766L1194.17 83.1875V86ZM1228.69 82.4141C1226.68 83.6562 1224.5 84.7109 1222.15 85.5781C1219.83 86.4453 1217.45 86.8789 1215.02 86.8789C1212.11 86.8789 1209.38 86.2344 1206.82 84.9453C1204.29 83.6328 1202.24 81.6523 1200.67 79.0039C1199.1 76.3555 1198.32 73.0273 1198.32 69.0195C1198.32 65.2695 1199.04 62 1200.5 59.2109C1201.95 56.4219 1203.95 54.2656 1206.51 52.7422C1209.06 51.1953 1211.97 50.4219 1215.23 50.4219C1219.7 50.4219 1223.07 51.8164 1225.32 54.6055C1227.57 57.3711 1228.69 60.8984 1228.69 65.1875C1228.69 65.4219 1228.69 65.7383 1228.69 66.1367C1228.69 66.5117 1228.67 66.8633 1228.62 67.1914H1205.28C1205.28 69.0195 1205.46 70.8477 1205.84 72.6758C1206.24 74.4805 1206.89 76.1211 1207.81 77.5977C1208.72 79.0742 1209.95 80.2578 1211.5 81.1484C1213.05 82.0391 1214.98 82.4844 1217.3 82.4844C1219.36 82.4844 1221.37 82.0156 1223.31 81.0781C1225.28 80.1172 1227.07 79.0977 1228.69 78.0195V82.4141ZM1221.48 63.957V62.375C1221.48 60.0078 1220.91 58.0156 1219.76 56.3984C1218.64 54.7812 1216.88 53.9727 1214.49 53.9727C1212.12 53.9727 1210.11 54.8633 1208.44 56.6445C1206.78 58.4258 1205.85 60.8633 1205.66 63.957H1221.48ZM1258.57 58.6484H1255.76C1255.32 58.1094 1254.78 57.6523 1254.14 57.2773C1253.54 56.8789 1252.79 56.6797 1251.89 56.6797C1250.75 56.6797 1249.56 57.0781 1248.34 57.875C1247.15 58.6719 1245.93 59.7617 1244.69 61.1445V81.3945C1244.69 82.4023 1245.19 82.9297 1246.2 82.9766L1250.95 83.1875V86H1232.95V83.2578L1236.5 82.9766C1236.92 82.9297 1237.27 82.7656 1237.55 82.4844C1237.86 82.2031 1238.01 81.8398 1238.01 81.3945V56.3984H1232.8V54.043L1241.73 51.3008H1244.69V57.6992C1246.73 55.332 1248.5 53.5273 1250 52.2852C1251.52 51.043 1252.91 50.4219 1254.18 50.4219C1254.93 50.4219 1255.74 50.5391 1256.61 50.7734C1257.47 51.0078 1258.13 51.2539 1258.57 51.5117V58.6484ZM1275.91 41.2109C1275.91 41.3984 1275.84 42.3008 1275.7 43.918C1275.58 45.5117 1275.41 47.5156 1275.2 49.9297C1275.02 52.3438 1274.82 54.875 1274.61 57.5234C1274.39 60.1719 1274.18 62.668 1273.97 65.0117C1273.79 67.3555 1273.62 69.2656 1273.48 70.7422C1273.36 72.2188 1273.3 72.957 1273.3 72.957H1269.79C1269.79 72.957 1269.72 72.2188 1269.58 70.7422C1269.46 69.2656 1269.3 67.3555 1269.09 65.0117C1268.9 62.668 1268.69 60.1719 1268.45 57.5234C1268.22 54.875 1268 52.3438 1267.79 49.9297C1267.6 47.5156 1267.43 45.5117 1267.29 43.918C1267.18 42.3008 1267.12 41.3984 1267.12 41.2109C1267.12 39.7578 1267.47 38.6211 1268.17 37.8008C1268.9 36.957 1270.01 36.5352 1271.51 36.5352C1273.04 36.5352 1274.15 36.957 1274.85 37.8008C1275.55 38.6211 1275.91 39.7578 1275.91 41.2109ZM1275.98 82.4141C1275.98 83.5859 1275.54 84.6289 1274.68 85.543C1273.81 86.4336 1272.75 86.8789 1271.51 86.8789C1270.29 86.8789 1269.25 86.4336 1268.38 85.543C1267.54 84.6289 1267.12 83.5859 1267.12 82.4141C1267.12 81.1719 1267.54 80.1289 1268.38 79.2852C1269.25 78.4414 1270.29 78.0195 1271.51 78.0195C1272.75 78.0195 1273.81 78.4414 1274.68 79.2852C1275.54 80.1289 1275.98 81.1719 1275.98 82.4141ZM527.746 214.23C523.996 213.809 520.809 212.707 518.184 210.926C515.582 209.145 513.484 206.836 511.891 204C510.297 201.188 509.137 198.012 508.41 194.473C507.684 190.934 507.32 187.195 507.32 183.258C507.32 179.344 507.684 175.617 508.41 172.078C509.137 168.539 510.297 165.375 511.891 162.586C513.484 159.773 515.582 157.477 518.184 155.695C520.809 153.914 523.996 152.812 527.746 152.391V155.555C522.684 156.375 519.121 159.199 517.059 164.027C515.02 168.855 514 175.266 514 183.258C514 188.578 514.445 193.23 515.336 197.215C516.227 201.176 517.668 204.328 519.66 206.672C521.676 209.039 524.371 210.504 527.746 211.066V214.23ZM572.113 167.191H567.859L566.84 160.441C566.676 159.621 566.277 159.211 565.645 159.211H555.344V199.043C555.344 199.395 555.461 199.734 555.695 200.062C555.953 200.391 556.34 200.578 556.855 200.625L561.461 200.906V204H541.949V200.906L546.555 200.625C547.07 200.578 547.445 200.391 547.68 200.062C547.938 199.734 548.066 199.395 548.066 199.043V159.211H537.695C536.945 159.211 536.535 159.621 536.465 160.441L535.48 167.191H531.297V155.695H572.113V167.191ZM612.965 204H596.934V201.188L599.887 200.977C600.309 200.93 600.672 200.766 600.977 200.484C601.305 200.203 601.469 199.84 601.469 199.395V180.832C601.469 178.77 600.977 177.07 599.992 175.734C599.008 174.375 597.121 173.695 594.332 173.695C593.066 173.695 591.695 173.895 590.219 174.293C588.766 174.691 587.523 175.184 586.492 175.77V199.395C586.492 200.379 586.973 200.906 587.934 200.977L591.027 201.188V204H574.82V201.188L578.266 200.977C579.273 200.906 579.777 200.379 579.777 199.395V156.117H574.398V153.727L583.609 150.949H586.492V172.887C587.359 172.348 588.484 171.738 589.867 171.059C591.25 170.355 592.703 169.746 594.227 169.23C595.75 168.691 597.133 168.422 598.375 168.422C601.141 168.422 603.461 169.312 605.336 171.094C607.211 172.875 608.148 175.617 608.148 179.32V199.395C608.148 199.84 608.301 200.203 608.605 200.484C608.934 200.766 609.309 200.93 609.73 200.977L612.965 201.188V204ZM647.488 200.414C645.473 201.656 643.293 202.711 640.949 203.578C638.629 204.445 636.25 204.879 633.812 204.879C630.906 204.879 628.176 204.234 625.621 202.945C623.09 201.633 621.039 199.652 619.469 197.004C617.898 194.355 617.113 191.027 617.113 187.02C617.113 183.27 617.84 180 619.293 177.211C620.746 174.422 622.75 172.266 625.305 170.742C627.859 169.195 630.766 168.422 634.023 168.422C638.5 168.422 641.863 169.816 644.113 172.605C646.363 175.371 647.488 178.898 647.488 183.188C647.488 183.422 647.488 183.738 647.488 184.137C647.488 184.512 647.465 184.863 647.418 185.191H624.074C624.074 187.02 624.262 188.848 624.637 190.676C625.035 192.48 625.691 194.121 626.605 195.598C627.52 197.074 628.75 198.258 630.297 199.148C631.844 200.039 633.777 200.484 636.098 200.484C638.16 200.484 640.164 200.016 642.109 199.078C644.078 198.117 645.871 197.098 647.488 196.02V200.414ZM640.281 181.957V180.375C640.281 178.008 639.707 176.016 638.559 174.398C637.434 172.781 635.676 171.973 633.285 171.973C630.918 171.973 628.902 172.863 627.238 174.645C625.574 176.426 624.648 178.863 624.461 181.957H640.281ZM687.391 172.113L683.629 172.535L669.812 206.215C669.508 206.988 669.027 208.09 668.371 209.52C667.738 210.973 666.977 212.449 666.086 213.949C665.219 215.473 664.281 216.738 663.273 217.746C662.406 218.613 661.445 219.281 660.391 219.75C659.359 220.242 658.234 220.488 657.016 220.488C655.305 220.488 653.992 220.066 653.078 219.223C652.188 218.402 651.742 217.453 651.742 216.375C651.742 214.781 652.516 213.34 654.062 212.051L660.812 215.145C661.609 214.348 662.406 213.27 663.203 211.91C664 210.551 664.715 209.145 665.348 207.691C666.004 206.238 666.508 204.984 666.859 203.93L654.625 172.535L650.652 172.113V169.301H666.578V172.113L663.133 172.324C662.734 172.348 662.406 172.523 662.148 172.852C661.914 173.156 661.879 173.508 662.043 173.906L670.41 195.141L678.953 173.906C679.117 173.531 679.094 173.18 678.883 172.852C678.672 172.523 678.367 172.348 677.969 172.324L674.559 172.113V169.301H687.391V172.113ZM703.105 159.633C703.105 161.391 702.789 163.008 702.156 164.484C701.523 165.938 700.75 167.238 699.836 168.387C698.945 169.512 698.066 170.461 697.199 171.234C696.332 172.008 695.664 172.605 695.195 173.027L692.523 172.465C694.141 170.871 695.547 169.172 696.742 167.367C697.961 165.539 698.547 163.594 698.5 161.531C698.5 161.344 698.488 161.121 698.465 160.863C698.441 160.605 698.43 160.395 698.43 160.23H693.895C693.895 160.23 693.707 159.961 693.332 159.422C692.98 158.859 692.805 158.168 692.805 157.348C692.805 156.105 693.18 155.062 693.93 154.219C694.703 153.375 695.77 152.953 697.129 152.953C698.934 152.953 700.375 153.551 701.453 154.746C702.555 155.918 703.105 157.547 703.105 159.633ZM733.34 176.648H730.527C730.082 176.109 729.543 175.652 728.91 175.277C728.301 174.879 727.551 174.68 726.66 174.68C725.512 174.68 724.328 175.078 723.109 175.875C721.914 176.672 720.695 177.762 719.453 179.145V199.395C719.453 200.402 719.957 200.93 720.965 200.977L725.711 201.188V204H707.711V201.258L711.262 200.977C711.684 200.93 712.035 200.766 712.316 200.484C712.621 200.203 712.773 199.84 712.773 199.395V174.398H707.57V172.043L716.5 169.301H719.453V175.699C721.492 173.332 723.262 171.527 724.762 170.285C726.285 169.043 727.68 168.422 728.945 168.422C729.695 168.422 730.504 168.539 731.371 168.773C732.238 169.008 732.895 169.254 733.34 169.512V176.648ZM766.949 200.414C764.934 201.656 762.754 202.711 760.41 203.578C758.09 204.445 755.711 204.879 753.273 204.879C750.367 204.879 747.637 204.234 745.082 202.945C742.551 201.633 740.5 199.652 738.93 197.004C737.359 194.355 736.574 191.027 736.574 187.02C736.574 183.27 737.301 180 738.754 177.211C740.207 174.422 742.211 172.266 744.766 170.742C747.32 169.195 750.227 168.422 753.484 168.422C757.961 168.422 761.324 169.816 763.574 172.605C765.824 175.371 766.949 178.898 766.949 183.188C766.949 183.422 766.949 183.738 766.949 184.137C766.949 184.512 766.926 184.863 766.879 185.191H743.535C743.535 187.02 743.723 188.848 744.098 190.676C744.496 192.48 745.152 194.121 746.066 195.598C746.98 197.074 748.211 198.258 749.758 199.148C751.305 200.039 753.238 200.484 755.559 200.484C757.621 200.484 759.625 200.016 761.57 199.078C763.539 198.117 765.332 197.098 766.949 196.02V200.414ZM759.742 181.957V180.375C759.742 178.008 759.168 176.016 758.02 174.398C756.895 172.781 755.137 171.973 752.746 171.973C750.379 171.973 748.363 172.863 746.699 174.645C745.035 176.426 744.109 178.863 743.922 181.957H759.742ZM825.941 204H815.289L814.34 199.746C814.34 199.746 813.977 200.004 813.25 200.52C812.547 201.035 811.609 201.633 810.438 202.312C809.266 202.992 807.965 203.59 806.535 204.105C805.129 204.621 803.723 204.879 802.316 204.879C799.715 204.879 797.5 204.012 795.672 202.277C793.867 200.543 792.965 198.164 792.965 195.141C792.965 193.805 793.199 192.562 793.668 191.414C794.16 190.266 795.121 189.176 796.551 188.145C798.004 187.09 800.148 186.07 802.984 185.086C805.844 184.078 809.629 183.059 814.34 182.027C814.34 181.957 814.34 181.664 814.34 181.148C814.34 180.633 814.34 180.141 814.34 179.672C814.34 179.18 814.34 178.934 814.34 178.934C814.34 174.199 812.102 171.832 807.625 171.832C806.383 171.832 805.305 171.949 804.391 172.184C803.5 172.418 802.879 172.605 802.527 172.746V179.004H797.289C796.633 179.004 796.023 178.887 795.461 178.652C794.898 178.395 794.617 177.82 794.617 176.93C794.617 174.961 795.367 173.355 796.867 172.113C798.367 170.848 800.266 169.922 802.562 169.336C804.883 168.727 807.227 168.422 809.594 168.422C812.57 168.422 814.879 168.891 816.52 169.828C818.16 170.742 819.309 172.02 819.965 173.66C820.621 175.277 820.949 177.129 820.949 179.215V199.395C820.949 199.84 821.09 200.203 821.371 200.484C821.676 200.766 822.039 200.93 822.461 200.977L825.941 201.188V204ZM814.34 197.215V184.77C811.105 185.566 808.527 186.375 806.605 187.195C804.707 187.992 803.289 188.801 802.352 189.621C801.414 190.418 800.793 191.238 800.488 192.082C800.207 192.902 800.066 193.758 800.066 194.648C800.066 196.125 800.535 197.496 801.473 198.762C802.434 200.004 803.77 200.625 805.48 200.625C806.441 200.625 807.438 200.461 808.469 200.133C809.5 199.781 810.461 199.383 811.352 198.938C812.242 198.469 812.957 198.07 813.496 197.742C814.059 197.391 814.34 197.215 814.34 197.215ZM846.578 204H829.07V201.188L832.902 200.977C833.23 200.953 833.57 200.777 833.922 200.449C834.297 200.098 834.484 199.77 834.484 199.465V156.117H829V153.727L838.211 150.949H841.164V199.465C841.164 199.77 841.34 200.098 841.691 200.449C842.043 200.777 842.371 200.953 842.676 200.977L846.578 201.188V204ZM867.953 204H850.445V201.188L854.277 200.977C854.605 200.953 854.945 200.777 855.297 200.449C855.672 200.098 855.859 199.77 855.859 199.465V156.117H850.375V153.727L859.586 150.949H862.539V199.465C862.539 199.77 862.715 200.098 863.066 200.449C863.418 200.777 863.746 200.953 864.051 200.977L867.953 201.188V204ZM922.094 201.328C920.477 202.195 918.648 203.004 916.609 203.754C914.594 204.504 912.367 204.879 909.93 204.879C906.578 204.879 903.66 204.094 901.176 202.523C898.715 200.953 896.805 198.82 895.445 196.125C894.109 193.406 893.441 190.324 893.441 186.879C893.441 182.848 894.238 179.461 895.832 176.719C897.449 173.977 899.57 171.914 902.195 170.531C904.844 169.125 907.703 168.422 910.773 168.422C913.938 168.422 916.586 169.043 918.719 170.285C920.875 171.504 921.953 173.285 921.953 175.629C921.953 177.035 921.508 178.102 920.617 178.828C919.75 179.531 918.777 179.883 917.699 179.883C916.902 179.883 916.211 179.754 915.625 179.496C915.039 179.215 914.523 178.934 914.078 178.652V172.395C912.977 171.762 911.969 171.445 911.055 171.445C908.922 171.445 907.082 172.078 905.535 173.344C904.012 174.586 902.84 176.297 902.02 178.477C901.199 180.656 900.789 183.141 900.789 185.93C900.789 188.578 901.234 191.004 902.125 193.207C903.016 195.387 904.34 197.121 906.098 198.41C907.879 199.699 910.082 200.344 912.707 200.344C914.371 200.344 915.965 200.074 917.488 199.535C919.012 198.996 920.547 198.223 922.094 197.215V201.328ZM961.223 186.703C961.223 190.102 960.52 193.184 959.113 195.949C957.707 198.691 955.715 200.871 953.137 202.488C950.582 204.082 947.547 204.879 944.031 204.879C940.539 204.879 937.516 204.082 934.961 202.488C932.406 200.895 930.438 198.727 929.055 195.984C927.672 193.242 926.98 190.148 926.98 186.703C926.98 183.281 927.672 180.188 929.055 177.422C930.461 174.656 932.453 172.465 935.031 170.848C937.633 169.23 940.703 168.422 944.242 168.422C947.828 168.422 950.887 169.242 953.418 170.883C955.949 172.523 957.883 174.727 959.219 177.492C960.555 180.258 961.223 183.328 961.223 186.703ZM953.734 186.633C953.734 184.008 953.383 181.559 952.68 179.285C952 177.012 950.945 175.172 949.516 173.766C948.109 172.359 946.328 171.656 944.172 171.656C941.945 171.656 940.117 172.359 938.688 173.766C937.281 175.172 936.238 177.012 935.559 179.285C934.879 181.559 934.539 184.008 934.539 186.633C934.539 189.234 934.879 191.684 935.559 193.98C936.262 196.254 937.316 198.094 938.723 199.5C940.152 200.906 941.945 201.609 944.102 201.609C946.305 201.609 948.109 200.906 949.516 199.5C950.945 198.094 952 196.254 952.68 193.98C953.383 191.707 953.734 189.258 953.734 186.633ZM1023.31 204H1007.17V201.188L1010.2 200.977C1011.2 200.906 1011.71 200.379 1011.71 199.395V181.043C1011.71 178.816 1011.24 177.035 1010.3 175.699C1009.39 174.363 1007.72 173.695 1005.31 173.695C1004.11 173.695 1002.8 173.883 1001.37 174.258C999.965 174.633 998.711 175.113 997.609 175.699V199.395C997.609 200.379 998.113 200.906 999.121 200.977L1002.14 201.188V204H986.359V201.188L989.383 200.977C990.391 200.906 990.895 200.379 990.895 199.395V180.586C990.895 178.547 990.414 176.895 989.453 175.629C988.492 174.34 986.863 173.695 984.566 173.695C983.207 173.695 981.789 173.93 980.312 174.398C978.836 174.844 977.688 175.301 976.867 175.77V199.395C976.867 200.379 977.371 200.906 978.379 200.977L981.402 201.188V204H965.125V201.188L968.641 200.977C969.648 200.906 970.152 200.379 970.152 199.395V174.398H965.195V172.043L973.914 169.301H976.867V172.887C977.945 172.23 979.152 171.562 980.488 170.883C981.848 170.203 983.23 169.629 984.637 169.16C986.043 168.668 987.367 168.422 988.609 168.422C990.695 168.422 992.383 168.961 993.672 170.039C994.961 171.094 995.91 172.219 996.52 173.414C997.48 172.805 998.699 172.113 1000.18 171.34C1001.65 170.543 1003.18 169.863 1004.75 169.301C1006.34 168.715 1007.77 168.422 1009.04 168.422C1011.57 168.422 1013.5 169.008 1014.84 170.18C1016.17 171.328 1017.09 172.758 1017.58 174.469C1018.07 176.156 1018.32 177.82 1018.32 179.461V199.395C1018.32 199.84 1018.46 200.203 1018.74 200.484C1019.04 200.766 1019.41 200.93 1019.83 200.977L1023.31 201.188V204ZM1062.72 186.141C1062.72 189.914 1061.99 193.207 1060.54 196.02C1059.09 198.832 1057 201.012 1054.28 202.559C1051.56 204.105 1048.3 204.879 1044.51 204.879C1043.43 204.879 1042.36 204.809 1041.31 204.668C1040.25 204.527 1039.19 204.375 1038.11 204.211V214.934C1038.11 215.379 1038.26 215.73 1038.57 215.988C1038.87 216.246 1039.25 216.398 1039.69 216.445L1043.95 216.902V219.68H1026.44V216.902L1029.88 216.445C1030.89 216.328 1031.39 215.824 1031.39 214.934V174.398H1026.44V172.043L1035.3 169.301H1038.11V172.887C1039.75 171.621 1041.52 170.566 1043.42 169.723C1045.32 168.855 1047.17 168.422 1048.97 168.422C1051.46 168.422 1053.73 169.16 1055.79 170.637C1057.88 172.09 1059.55 174.141 1060.82 176.789C1062.09 179.438 1062.72 182.555 1062.72 186.141ZM1055.51 187.16C1055.51 184.676 1055.12 182.402 1054.35 180.34C1053.6 178.277 1052.48 176.625 1050.98 175.383C1049.5 174.117 1047.66 173.484 1045.46 173.484C1044.24 173.484 1042.97 173.707 1041.66 174.152C1040.35 174.598 1039.16 175.09 1038.11 175.629V200.414C1040.08 201.164 1042.02 201.539 1043.95 201.539C1046.59 201.539 1048.76 200.859 1050.45 199.5C1052.16 198.141 1053.43 196.371 1054.25 194.191C1055.09 191.988 1055.51 189.645 1055.51 187.16ZM1100.65 204H1090L1089.05 199.746C1089.05 199.746 1088.69 200.004 1087.96 200.52C1087.26 201.035 1086.32 201.633 1085.15 202.312C1083.98 202.992 1082.68 203.59 1081.25 204.105C1079.84 204.621 1078.43 204.879 1077.03 204.879C1074.43 204.879 1072.21 204.012 1070.38 202.277C1068.58 200.543 1067.68 198.164 1067.68 195.141C1067.68 193.805 1067.91 192.562 1068.38 191.414C1068.87 190.266 1069.83 189.176 1071.26 188.145C1072.71 187.09 1074.86 186.07 1077.7 185.086C1080.55 184.078 1084.34 183.059 1089.05 182.027C1089.05 181.957 1089.05 181.664 1089.05 181.148C1089.05 180.633 1089.05 180.141 1089.05 179.672C1089.05 179.18 1089.05 178.934 1089.05 178.934C1089.05 174.199 1086.81 171.832 1082.34 171.832C1081.09 171.832 1080.02 171.949 1079.1 172.184C1078.21 172.418 1077.59 172.605 1077.24 172.746V179.004H1072C1071.34 179.004 1070.73 178.887 1070.17 178.652C1069.61 178.395 1069.33 177.82 1069.33 176.93C1069.33 174.961 1070.08 173.355 1071.58 172.113C1073.08 170.848 1074.98 169.922 1077.27 169.336C1079.59 168.727 1081.94 168.422 1084.3 168.422C1087.28 168.422 1089.59 168.891 1091.23 169.828C1092.87 170.742 1094.02 172.02 1094.68 173.66C1095.33 175.277 1095.66 177.129 1095.66 179.215V199.395C1095.66 199.84 1095.8 200.203 1096.08 200.484C1096.39 200.766 1096.75 200.93 1097.17 200.977L1100.65 201.188V204ZM1089.05 197.215V184.77C1085.82 185.566 1083.24 186.375 1081.32 187.195C1079.42 187.992 1078 188.801 1077.06 189.621C1076.12 190.418 1075.5 191.238 1075.2 192.082C1074.92 192.902 1074.78 193.758 1074.78 194.648C1074.78 196.125 1075.25 197.496 1076.18 198.762C1077.14 200.004 1078.48 200.625 1080.19 200.625C1081.15 200.625 1082.15 200.461 1083.18 200.133C1084.21 199.781 1085.17 199.383 1086.06 198.938C1086.95 198.469 1087.67 198.07 1088.21 197.742C1088.77 197.391 1089.05 197.215 1089.05 197.215ZM1125.82 202.488C1125.82 202.488 1125.37 202.688 1124.45 203.086C1123.56 203.484 1122.38 203.883 1120.9 204.281C1119.45 204.68 1117.86 204.879 1116.12 204.879C1113.43 204.879 1111.46 204.246 1110.21 202.98C1109 201.691 1108.39 199.629 1108.39 196.793V172.887H1103.78V170.531L1108.7 168.211L1111.94 160.582H1115.1V169.301H1125.26V172.887H1115.1V192.996C1115.1 195.855 1115.58 197.883 1116.54 199.078C1117.5 200.25 1118.95 200.836 1120.87 200.836C1122.27 200.836 1123.45 200.637 1124.38 200.238C1125.34 199.816 1125.82 199.605 1125.82 199.605V202.488ZM1142 157.418C1142 158.637 1141.57 159.691 1140.73 160.582C1139.89 161.449 1138.86 161.883 1137.64 161.883C1136.42 161.883 1135.36 161.449 1134.47 160.582C1133.61 159.691 1133.17 158.637 1133.17 157.418C1133.17 156.176 1133.61 155.133 1134.47 154.289C1135.36 153.445 1136.42 153.023 1137.64 153.023C1138.86 153.023 1139.89 153.445 1140.73 154.289C1141.57 155.133 1142 156.176 1142 157.418ZM1145.69 204H1128.78V201.188L1132.29 200.977C1133.3 200.906 1133.8 200.379 1133.8 199.395V173.695H1128.85V171.164L1137.64 168.422H1140.48V199.395C1140.48 199.84 1140.62 200.215 1140.91 200.52C1141.21 200.801 1141.57 200.953 1142 200.977L1145.69 201.188V204ZM1185.7 184.98C1185.7 188.59 1184.98 191.836 1183.55 194.719C1182.12 197.578 1179.88 199.84 1176.84 201.504C1173.79 203.168 1169.85 204 1165.02 204H1154.65V156.117H1149.2V153.727L1158.48 150.949H1161.37V171.094C1162.19 170.695 1163.51 170.156 1165.34 169.477C1167.19 168.773 1169.17 168.422 1171.28 168.422C1174.45 168.422 1177.09 169.184 1179.23 170.707C1181.36 172.23 1182.96 174.258 1184.04 176.789C1185.14 179.297 1185.7 182.027 1185.7 184.98ZM1178.35 186.422C1178.35 181.875 1177.39 178.453 1175.46 176.156C1173.54 173.836 1170.84 172.676 1167.34 172.676C1166.55 172.676 1165.53 172.805 1164.29 173.062C1163.07 173.32 1162.09 173.578 1161.37 173.836V200.555C1161.95 200.578 1162.54 200.602 1163.12 200.625C1163.71 200.625 1164.3 200.625 1164.88 200.625C1169.15 200.625 1172.45 199.57 1174.8 197.461C1177.16 195.352 1178.35 191.672 1178.35 186.422ZM1207.63 204H1190.12V201.188L1193.96 200.977C1194.29 200.953 1194.62 200.777 1194.98 200.449C1195.35 200.098 1195.54 199.77 1195.54 199.465V156.117H1190.05V153.727L1199.27 150.949H1202.22V199.465C1202.22 199.77 1202.39 200.098 1202.75 200.449C1203.1 200.777 1203.43 200.953 1203.73 200.977L1207.63 201.188V204ZM1242.4 200.414C1240.39 201.656 1238.21 202.711 1235.86 203.578C1233.54 204.445 1231.16 204.879 1228.73 204.879C1225.82 204.879 1223.09 204.234 1220.54 202.945C1218 201.633 1215.95 199.652 1214.38 197.004C1212.81 194.355 1212.03 191.027 1212.03 187.02C1212.03 183.27 1212.75 180 1214.21 177.211C1215.66 174.422 1217.66 172.266 1220.22 170.742C1222.77 169.195 1225.68 168.422 1228.94 168.422C1233.41 168.422 1236.78 169.816 1239.03 172.605C1241.28 175.371 1242.4 178.898 1242.4 183.188C1242.4 183.422 1242.4 183.738 1242.4 184.137C1242.4 184.512 1242.38 184.863 1242.33 185.191H1218.99C1218.99 187.02 1219.18 188.848 1219.55 190.676C1219.95 192.48 1220.61 194.121 1221.52 195.598C1222.43 197.074 1223.66 198.258 1225.21 199.148C1226.76 200.039 1228.69 200.484 1231.01 200.484C1233.07 200.484 1235.08 200.016 1237.02 199.078C1238.99 198.117 1240.79 197.098 1242.4 196.02V200.414ZM1235.2 181.957V180.375C1235.2 178.008 1234.62 176.016 1233.47 174.398C1232.35 172.781 1230.59 171.973 1228.2 171.973C1225.83 171.973 1223.82 172.863 1222.15 174.645C1220.49 176.426 1219.56 178.863 1219.38 181.957H1235.2ZM1267.75 183.258C1267.75 187.195 1267.39 190.934 1266.66 194.473C1265.93 198.012 1264.77 201.188 1263.18 204C1261.59 206.836 1259.49 209.145 1256.89 210.926C1254.29 212.707 1251.1 213.809 1247.32 214.23V211.066C1250.7 210.504 1253.38 209.039 1255.38 206.672C1257.39 204.328 1258.83 201.176 1259.7 197.215C1260.57 193.23 1261 188.578 1261 183.258C1261 177.938 1260.57 173.309 1259.7 169.371C1258.83 165.41 1257.39 162.258 1255.38 159.914C1253.38 157.547 1250.7 156.094 1247.32 155.555V152.391C1251.1 152.812 1254.29 153.914 1256.89 155.695C1259.49 157.477 1261.59 159.773 1263.18 162.586C1264.77 165.375 1265.93 168.539 1266.66 172.078C1267.39 175.617 1267.75 179.344 1267.75 183.258Z" fill="black"/>
<path d="M993.285 98.3047H1057.43V102.523H993.285V98.3047ZM1090.3 98.3047H1259.35V102.523H1090.3V98.3047Z" fill="black"/>
<path d="M532.5 566.404L515.89 602.362C504.502 627.012 514.623 656.255 538.811 668.594L542.065 670.254C575.783 687.454 577.681 734.927 545.445 754.765L525.855 766.82C501.561 781.77 503.484 817.693 529.236 829.963C544.097 837.043 552.26 853.304 549.059 869.451L532.5 953M532.5 566.404C598.774 566.404 653.757 622.977 688.473 679.431C722.484 734.738 775.875 775.817 827.583 756.589C841.414 751.446 852.173 740.398 859.073 727.354C920.904 610.478 879.509 351.151 758.705 356.069H713.943H345.802C328.117 356.069 310.057 358.755 295.603 368.945C190.684 442.912 177.925 689.725 221.556 746.176C251.72 798.033 317.427 740.422 363.287 674.489C401.131 620.082 466.226 566.404 532.5 566.404Z" stroke="black" stroke-width="6"/>
<circle cx="342.608" cy="503.833" r="61.9777" fill="white" stroke="black" stroke-width="6"/>
<path d="M355.941 507.782H339.366V524.357H335.575V507.782H319V503.961H335.575V487.386H339.366V503.961H355.941V507.782Z" fill="black"/>
<path d="M758.562 475.744H747.575V473.759L750.237 473.533C750.387 473.533 750.515 473.428 750.62 473.217C750.726 473.007 750.756 472.849 750.711 472.744L747.529 464.283H736.858L733.789 472.608C733.729 472.789 733.782 472.992 733.947 473.217C734.128 473.428 734.293 473.533 734.444 473.533L737.174 473.759V475.744H727.878V473.759L730.563 473.195L741.325 444H744.799L755.516 472.518C755.637 472.834 755.742 473.044 755.832 473.15C755.922 473.255 756.14 473.338 756.486 473.398L758.562 473.759V475.744ZM746.695 462.072L742.16 449.956L737.67 462.072H746.695Z" fill="black"/>
<path d="M734.128 542.151C734.128 544.016 733.752 545.55 733 546.754C732.248 547.942 731.27 548.874 730.067 549.551C728.878 550.213 727.607 550.672 726.254 550.927C724.9 551.183 723.614 551.311 722.396 551.311H709.468V549.326L711.904 549.145C712.235 549.115 712.476 548.995 712.626 548.784C712.792 548.573 712.875 548.355 712.875 548.13V523.492C712.875 523.267 712.792 523.049 712.626 522.838C712.476 522.612 712.235 522.492 711.904 522.477L709.468 522.297V520.311H721.832C725.517 520.311 728.171 520.973 729.796 522.297C731.42 523.62 732.233 525.44 732.233 527.757C732.233 529.291 731.864 530.539 731.127 531.502C730.405 532.464 729.525 533.209 728.487 533.735C727.465 534.247 726.494 534.623 725.577 534.863C726.961 534.863 728.307 535.097 729.615 535.563C730.924 536.014 731.999 536.774 732.842 537.842C733.699 538.895 734.128 540.331 734.128 542.151ZM727.246 528.072C727.246 526.267 726.652 524.876 725.464 523.898C724.291 522.921 722.516 522.432 720.139 522.432C719.658 522.432 719.139 522.455 718.583 522.5C718.026 522.545 717.665 522.567 717.5 522.567V534.254C717.5 534.254 717.71 534.262 718.132 534.277C718.568 534.292 718.914 534.299 719.169 534.299C722.178 534.299 724.276 533.758 725.464 532.675C726.652 531.592 727.246 530.058 727.246 528.072ZM729.096 542.534C729.096 540.429 728.465 538.887 727.201 537.909C725.953 536.932 724.103 536.443 721.651 536.443C721.155 536.443 720.598 536.465 719.982 536.51C719.365 536.556 718.816 536.601 718.335 536.646C717.868 536.691 717.59 536.714 717.5 536.714V548.919C717.5 548.919 717.673 548.934 718.019 548.965C718.38 548.98 718.786 549.002 719.237 549.032C719.703 549.047 720.079 549.055 720.365 549.055C723.599 549.055 725.863 548.513 727.156 547.43C728.45 546.347 729.096 544.715 729.096 542.534Z" fill="black"/>
<path d="M776.657 550.251C776.581 550.281 776.1 550.446 775.213 550.747C774.34 551.048 773.22 551.341 771.851 551.627C770.482 551.913 769.008 552.056 767.429 552.056C764.842 552.056 762.548 551.612 760.548 550.724C758.547 549.822 756.855 548.604 755.471 547.069C754.102 545.535 753.065 543.798 752.358 541.858C751.651 539.902 751.297 537.864 751.297 535.743C751.297 532.555 751.974 529.75 753.328 527.328C754.681 524.891 756.569 522.989 758.991 521.62C761.427 520.251 764.255 519.567 767.474 519.567C768.978 519.567 770.414 519.725 771.783 520.04C773.167 520.356 774.791 520.8 776.657 521.372V528.614H773.881L773.205 524.417C773.19 524.207 773.084 523.996 772.889 523.786C772.708 523.56 772.55 523.417 772.415 523.357C772.069 523.192 771.482 522.951 770.655 522.635C769.843 522.319 768.858 522.161 767.7 522.161C765.609 522.161 763.721 522.68 762.037 523.718C760.367 524.741 759.043 526.26 758.066 528.275C757.088 530.291 756.599 532.78 756.599 535.743C756.599 540.045 757.637 543.414 759.713 545.851C761.788 548.288 764.654 549.506 768.309 549.506C769.392 549.506 770.272 549.378 770.948 549.122C771.625 548.867 771.986 548.731 772.031 548.716C772.513 548.536 772.806 548.228 772.911 547.791L773.972 542.76H776.657V550.251Z" fill="black"/>
<path d="M1373.5 566.404L1356.89 602.362C1345.5 627.012 1355.62 656.255 1379.81 668.594L1383.06 670.254C1416.78 687.454 1418.68 734.927 1386.44 754.765L1366.85 766.82C1342.56 781.77 1344.48 817.693 1370.24 829.963C1385.1 837.043 1393.26 853.304 1390.06 869.451L1373.5 953M1373.5 566.404C1439.77 566.404 1494.76 622.977 1529.47 679.431C1563.48 734.738 1616.87 775.817 1668.58 756.589C1682.41 751.446 1693.17 740.398 1700.07 727.354C1761.9 610.478 1720.51 351.151 1599.7 356.069H1554.94H1186.8C1169.12 356.069 1151.06 358.755 1136.6 368.945C1031.68 442.912 1018.92 689.725 1062.56 746.176C1092.72 798.033 1158.43 740.422 1204.29 674.489C1242.13 620.082 1307.23 566.404 1373.5 566.404Z" stroke="black" stroke-width="6"/>
<circle cx="1183.61" cy="503.833" r="61.9777" fill="white" stroke="black" stroke-width="6"/>
<path d="M1196.94 507.782H1180.37V524.357H1176.58V507.782H1160V503.961H1176.58V487.386H1180.37V503.961H1196.94V507.782Z" fill="black"/>
<path d="M1599.56 475.744H1588.57V473.759L1591.24 473.533C1591.39 473.533 1591.52 473.428 1591.62 473.217C1591.73 473.007 1591.76 472.849 1591.71 472.744L1588.53 464.283H1577.86L1574.79 472.608C1574.73 472.789 1574.78 472.992 1574.95 473.217C1575.13 473.428 1575.29 473.533 1575.44 473.533L1578.17 473.759V475.744H1568.88V473.759L1571.56 473.195L1582.32 444H1585.8L1596.52 472.518C1596.64 472.834 1596.74 473.044 1596.83 473.15C1596.92 473.255 1597.14 473.338 1597.49 473.398L1599.56 473.759V475.744ZM1587.69 462.072L1583.16 449.956L1578.67 462.072H1587.69Z" fill="black"/>
<path d="M1575.13 542.151C1575.13 544.016 1574.75 545.55 1574 546.754C1573.25 547.942 1572.27 548.874 1571.07 549.551C1569.88 550.213 1568.61 550.672 1567.25 550.927C1565.9 551.183 1564.61 551.311 1563.4 551.311H1550.47V549.326L1552.9 549.145C1553.24 549.115 1553.48 548.995 1553.63 548.784C1553.79 548.573 1553.87 548.355 1553.87 548.13V523.492C1553.87 523.267 1553.79 523.049 1553.63 522.838C1553.48 522.612 1553.24 522.492 1552.9 522.477L1550.47 522.297V520.311H1562.83C1566.52 520.311 1569.17 520.973 1570.8 522.297C1572.42 523.62 1573.23 525.44 1573.23 527.757C1573.23 529.291 1572.86 530.539 1572.13 531.502C1571.41 532.464 1570.53 533.209 1569.49 533.735C1568.46 534.247 1567.49 534.623 1566.58 534.863C1567.96 534.863 1569.31 535.097 1570.62 535.563C1571.92 536.014 1573 536.774 1573.84 537.842C1574.7 538.895 1575.13 540.331 1575.13 542.151ZM1568.25 528.072C1568.25 526.267 1567.65 524.876 1566.46 523.898C1565.29 522.921 1563.52 522.432 1561.14 522.432C1560.66 522.432 1560.14 522.455 1559.58 522.5C1559.03 522.545 1558.67 522.567 1558.5 522.567V534.254C1558.5 534.254 1558.71 534.262 1559.13 534.277C1559.57 534.292 1559.91 534.299 1560.17 534.299C1563.18 534.299 1565.28 533.758 1566.46 532.675C1567.65 531.592 1568.25 530.058 1568.25 528.072ZM1570.1 542.534C1570.1 540.429 1569.46 538.887 1568.2 537.909C1566.95 536.932 1565.1 536.443 1562.65 536.443C1562.15 536.443 1561.6 536.465 1560.98 536.51C1560.36 536.556 1559.82 536.601 1559.33 536.646C1558.87 536.691 1558.59 536.714 1558.5 536.714V548.919C1558.5 548.919 1558.67 548.934 1559.02 548.965C1559.38 548.98 1559.79 549.002 1560.24 549.032C1560.7 549.047 1561.08 549.055 1561.37 549.055C1564.6 549.055 1566.86 548.513 1568.16 547.43C1569.45 546.347 1570.1 544.715 1570.1 542.534Z" fill="black"/>
<path d="M1617.66 550.251C1617.58 550.281 1617.1 550.446 1616.21 550.747C1615.34 551.048 1614.22 551.341 1612.85 551.627C1611.48 551.913 1610.01 552.056 1608.43 552.056C1605.84 552.056 1603.55 551.612 1601.55 550.724C1599.55 549.822 1597.85 548.604 1596.47 547.069C1595.1 545.535 1594.06 543.798 1593.36 541.858C1592.65 539.902 1592.3 537.864 1592.3 535.743C1592.3 532.555 1592.97 529.75 1594.33 527.328C1595.68 524.891 1597.57 522.989 1599.99 521.62C1602.43 520.251 1605.26 519.567 1608.47 519.567C1609.98 519.567 1611.41 519.725 1612.78 520.04C1614.17 520.356 1615.79 520.8 1617.66 521.372V528.614H1614.88L1614.2 524.417C1614.19 524.207 1614.08 523.996 1613.89 523.786C1613.71 523.56 1613.55 523.417 1613.41 523.357C1613.07 523.192 1612.48 522.951 1611.66 522.635C1610.84 522.319 1609.86 522.161 1608.7 522.161C1606.61 522.161 1604.72 522.68 1603.04 523.718C1601.37 524.741 1600.04 526.26 1599.07 528.275C1598.09 530.291 1597.6 532.78 1597.6 535.743C1597.6 540.045 1598.64 543.414 1600.71 545.851C1602.79 548.288 1605.65 549.506 1609.31 549.506C1610.39 549.506 1611.27 549.378 1611.95 549.122C1612.63 548.867 1612.99 548.731 1613.03 548.716C1613.51 548.536 1613.81 548.228 1613.91 547.791L1614.97 542.76H1617.66V550.251Z" fill="black"/>
</svg>
