<svg width="1930" height="894" viewBox="0 0 1930 894" fill="none" xmlns="http://www.w3.org/2000/svg">
<path d="M66.4766 65.7852L62.8203 66.1367C62.3047 66.1602 61.918 66.3242 61.6602 66.6289C61.4258 66.9336 61.3086 67.2734 61.3086 67.6484V84.2773C61.3086 84.2773 60.582 84.5234 59.1289 85.0156C57.6992 85.4844 55.8359 85.9531 53.5391 86.4219C51.2422 86.9141 48.793 87.1602 46.1914 87.1602C42.1836 87.1602 38.6211 86.4688 35.5039 85.0859C32.3867 83.7031 29.75 81.8281 27.5938 79.4609C25.4609 77.0703 23.832 74.3516 22.707 71.3047C21.6055 68.2578 21.0547 65.0703 21.0547 61.7422C21.0547 56.7031 22.0977 52.2969 24.1836 48.5234C26.293 44.7266 29.293 41.7852 33.1836 39.6992C37.0977 37.5898 41.7383 36.5352 47.1055 36.5352C49.8242 36.5352 52.3086 36.8047 54.5586 37.3438C56.8086 37.8594 59.0352 38.4102 61.2383 38.9961V50.6328H56.9141L55.7539 44.1641C55.6836 43.7422 55.5078 43.3906 55.2266 43.1094C54.9453 42.8047 54.6406 42.582 54.3125 42.4414C53.6328 42.1602 52.6367 41.7852 51.3242 41.3164C50.0117 40.8242 48.5117 40.5781 46.8242 40.5781C43.3789 40.5781 40.332 41.3867 37.6836 43.0039C35.0352 44.5977 32.9609 46.9414 31.4609 50.0352C29.9844 53.1289 29.2461 56.9141 29.2461 61.3906C29.2461 68.3047 30.9102 73.6602 34.2383 77.457C37.5898 81.2305 42.0781 83.1172 47.7031 83.1172C49.2969 83.1172 50.7031 82.9414 51.9219 82.5898C53.1641 82.2148 53.8672 82.0273 54.0312 82.0273V67.6484C54.0312 67.2734 53.9023 66.9336 53.6445 66.6289C53.4102 66.3242 53.0352 66.1602 52.5195 66.1367L47.7031 65.7852V62.6562H66.4766V65.7852ZM101.141 82.4141C99.125 83.6562 96.9453 84.7109 94.6016 85.5781C92.2812 86.4453 89.9023 86.8789 87.4648 86.8789C84.5586 86.8789 81.8281 86.2344 79.2734 84.9453C76.7422 83.6328 74.6914 81.6523 73.1211 79.0039C71.5508 76.3555 70.7656 73.0273 70.7656 69.0195C70.7656 65.2695 71.4922 62 72.9453 59.2109C74.3984 56.4219 76.4023 54.2656 78.957 52.7422C81.5117 51.1953 84.418 50.4219 87.6758 50.4219C92.1523 50.4219 95.5156 51.8164 97.7656 54.6055C100.016 57.3711 101.141 60.8984 101.141 65.1875C101.141 65.4219 101.141 65.7383 101.141 66.1367C101.141 66.5117 101.117 66.8633 101.07 67.1914H77.7266C77.7266 69.0195 77.9141 70.8477 78.2891 72.6758C78.6875 74.4805 79.3438 76.1211 80.2578 77.5977C81.1719 79.0742 82.4023 80.2578 83.9492 81.1484C85.4961 82.0391 87.4297 82.4844 89.75 82.4844C91.8125 82.4844 93.8164 82.0156 95.7617 81.0781C97.7305 80.1172 99.5234 79.0977 101.141 78.0195V82.4141ZM93.9336 63.957V62.375C93.9336 60.0078 93.3594 58.0156 92.2109 56.3984C91.0859 54.7812 89.3281 53.9727 86.9375 53.9727C84.5703 53.9727 82.5547 54.8633 80.8906 56.6445C79.2266 58.4258 78.3008 60.8633 78.1133 63.957H93.9336ZM127.578 84.4883C127.578 84.4883 127.121 84.6875 126.207 85.0859C125.316 85.4844 124.133 85.8828 122.656 86.2812C121.203 86.6797 119.609 86.8789 117.875 86.8789C115.18 86.8789 113.211 86.2461 111.969 84.9805C110.75 83.6914 110.141 81.6289 110.141 78.793V54.8867H105.535V52.5312L110.457 50.2109L113.691 42.582H116.855V51.3008H127.016V54.8867H116.855V74.9961C116.855 77.8555 117.336 79.8828 118.297 81.0781C119.258 82.25 120.699 82.8359 122.621 82.8359C124.027 82.8359 125.199 82.6367 126.137 82.2383C127.098 81.8164 127.578 81.6055 127.578 81.6055V84.4883ZM184.602 86H173.949L173 81.7461C173 81.7461 172.637 82.0039 171.91 82.5195C171.207 83.0352 170.27 83.6328 169.098 84.3125C167.926 84.9922 166.625 85.5898 165.195 86.1055C163.789 86.6211 162.383 86.8789 160.977 86.8789C158.375 86.8789 156.16 86.0117 154.332 84.2773C152.527 82.543 151.625 80.1641 151.625 77.1406C151.625 75.8047 151.859 74.5625 152.328 73.4141C152.82 72.2656 153.781 71.1758 155.211 70.1445C156.664 69.0898 158.809 68.0703 161.645 67.0859C164.504 66.0781 168.289 65.0586 173 64.0273C173 63.957 173 63.6641 173 63.1484C173 62.6328 173 62.1406 173 61.6719C173 61.1797 173 60.9336 173 60.9336C173 56.1992 170.762 53.832 166.285 53.832C165.043 53.832 163.965 53.9492 163.051 54.1836C162.16 54.418 161.539 54.6055 161.188 54.7461V61.0039H155.949C155.293 61.0039 154.684 60.8867 154.121 60.6523C153.559 60.3945 153.277 59.8203 153.277 58.9297C153.277 56.9609 154.027 55.3555 155.527 54.1133C157.027 52.8477 158.926 51.9219 161.223 51.3359C163.543 50.7266 165.887 50.4219 168.254 50.4219C171.23 50.4219 173.539 50.8906 175.18 51.8281C176.82 52.7422 177.969 54.0195 178.625 55.6602C179.281 57.2773 179.609 59.1289 179.609 61.2148V81.3945C179.609 81.8398 179.75 82.2031 180.031 82.4844C180.336 82.7656 180.699 82.9297 181.121 82.9766L184.602 83.1875V86ZM173 79.2148V66.7695C169.766 67.5664 167.188 68.375 165.266 69.1953C163.367 69.9922 161.949 70.8008 161.012 71.6211C160.074 72.418 159.453 73.2383 159.148 74.082C158.867 74.9023 158.727 75.7578 158.727 76.6484C158.727 78.125 159.195 79.4961 160.133 80.7617C161.094 82.0039 162.43 82.625 164.141 82.625C165.102 82.625 166.098 82.4609 167.129 82.1328C168.16 81.7812 169.121 81.3828 170.012 80.9375C170.902 80.4688 171.617 80.0703 172.156 79.7422C172.719 79.3906 173 79.2148 173 79.2148ZM232.027 60.582H228.266L227.703 55.5547C227.188 55.1562 226.426 54.7812 225.418 54.4297C224.41 54.0781 223.344 53.9023 222.219 53.9023C220.25 53.9023 218.785 54.3594 217.824 55.2734C216.863 56.1641 216.383 57.3125 216.383 58.7188C216.383 59.7969 216.629 60.7109 217.121 61.4609C217.613 62.2109 218.445 62.9492 219.617 63.6758C220.789 64.3789 222.383 65.1992 224.398 66.1367C226.906 67.2852 228.98 68.5625 230.621 69.9688C232.262 71.3516 233.082 73.2148 233.082 75.5586C233.082 79.0977 231.863 81.875 229.426 83.8906C226.988 85.8828 223.625 86.8789 219.336 86.8789C217.133 86.8789 215.094 86.6445 213.219 86.1758C211.367 85.7305 210.078 85.3555 209.352 85.0508V75.4883H213.008L213.887 81.6055C214.613 82.0742 215.504 82.5312 216.559 82.9766C217.637 83.3984 218.879 83.6094 220.285 83.6094C222.348 83.6094 223.941 83.0352 225.066 81.8867C226.191 80.7383 226.754 79.4492 226.754 78.0195C226.754 76.1445 225.98 74.6797 224.434 73.625C222.91 72.5469 220.754 71.3398 217.965 70.0039C215.34 68.7383 213.324 67.4375 211.918 66.1016C210.535 64.7656 209.844 63.0195 209.844 60.8633C209.844 57.6523 210.969 55.1094 213.219 53.2344C215.469 51.3594 218.668 50.4219 222.816 50.4219C224.926 50.4219 226.801 50.6211 228.441 51.0195C230.105 51.3945 231.301 51.7461 232.027 52.0742V60.582ZM275.234 86H259.203V83.1875L262.156 82.9766C262.578 82.9297 262.941 82.7656 263.246 82.4844C263.574 82.2031 263.738 81.8398 263.738 81.3945V62.832C263.738 60.7695 263.246 59.0703 262.262 57.7344C261.277 56.375 259.391 55.6953 256.602 55.6953C255.336 55.6953 253.965 55.8945 252.488 56.293C251.035 56.6914 249.793 57.1836 248.762 57.7695V81.3945C248.762 82.3789 249.242 82.9062 250.203 82.9766L253.297 83.1875V86H237.09V83.1875L240.535 82.9766C241.543 82.9062 242.047 82.3789 242.047 81.3945V38.1172H236.668V35.7266L245.879 32.9492H248.762V54.8867C249.629 54.3477 250.754 53.7383 252.137 53.0586C253.52 52.3555 254.973 51.7461 256.496 51.2305C258.02 50.6914 259.402 50.4219 260.645 50.4219C263.41 50.4219 265.73 51.3125 267.605 53.0938C269.48 54.875 270.418 57.6172 270.418 61.3203V81.3945C270.418 81.8398 270.57 82.2031 270.875 82.4844C271.203 82.7656 271.578 82.9297 272 82.9766L275.234 83.1875V86ZM292.602 39.418C292.602 40.6367 292.18 41.6914 291.336 42.582C290.492 43.4492 289.461 43.8828 288.242 43.8828C287.023 43.8828 285.969 43.4492 285.078 42.582C284.211 41.6914 283.777 40.6367 283.777 39.418C283.777 38.1758 284.211 37.1328 285.078 36.2891C285.969 35.4453 287.023 35.0234 288.242 35.0234C289.461 35.0234 290.492 35.4453 291.336 36.2891C292.18 37.1328 292.602 38.1758 292.602 39.418ZM296.293 86H279.383V83.1875L282.898 82.9766C283.906 82.9062 284.41 82.3789 284.41 81.3945V55.6953H279.453V53.1641L288.242 50.4219H291.09V81.3945C291.09 81.8398 291.23 82.2148 291.512 82.5195C291.816 82.8008 292.18 82.9531 292.602 82.9766L296.293 83.1875V86ZM326.211 58.6484H323.398C322.953 58.1094 322.414 57.6523 321.781 57.2773C321.172 56.8789 320.422 56.6797 319.531 56.6797C318.383 56.6797 317.199 57.0781 315.98 57.875C314.785 58.6719 313.566 59.7617 312.324 61.1445V81.3945C312.324 82.4023 312.828 82.9297 313.836 82.9766L318.582 83.1875V86H300.582V83.2578L304.133 82.9766C304.555 82.9297 304.906 82.7656 305.188 82.4844C305.492 82.2031 305.645 81.8398 305.645 81.3945V56.3984H300.441V54.043L309.371 51.3008H312.324V57.6992C314.363 55.332 316.133 53.5273 317.633 52.2852C319.156 51.043 320.551 50.4219 321.816 50.4219C322.566 50.4219 323.375 50.5391 324.242 50.7734C325.109 51.0078 325.766 51.2539 326.211 51.5117V58.6484ZM350.961 84.4883C350.961 84.4883 350.504 84.6875 349.59 85.0859C348.699 85.4844 347.516 85.8828 346.039 86.2812C344.586 86.6797 342.992 86.8789 341.258 86.8789C338.562 86.8789 336.594 86.2461 335.352 84.9805C334.133 83.6914 333.523 81.6289 333.523 78.793V54.8867H328.918V52.5312L333.84 50.2109L337.074 42.582H340.238V51.3008H350.398V54.8867H340.238V74.9961C340.238 77.8555 340.719 79.8828 341.68 81.0781C342.641 82.25 344.082 82.8359 346.004 82.8359C347.41 82.8359 348.582 82.6367 349.52 82.2383C350.48 81.8164 350.961 81.6055 350.961 81.6055V84.4883ZM366.289 85.2969C366.289 87.6875 365.703 89.8203 364.531 91.6953C363.359 93.5703 361.812 95.082 359.891 96.2305C357.992 97.3789 355.953 98.0469 353.773 98.2344V95.6328C356.328 95.0703 358.297 94.0508 359.68 92.5742C361.062 91.1211 361.73 88.7656 361.684 85.5078H357.148C357.055 85.3906 356.809 85.0508 356.41 84.4883C356.035 83.9258 355.848 83.1523 355.848 82.168C355.848 80.9258 356.27 79.7891 357.113 78.7578C357.957 77.7266 359.023 77.2109 360.312 77.2109C362.375 77.2109 363.887 77.9844 364.848 79.5312C365.809 81.0547 366.289 82.9766 366.289 85.2969ZM427.426 72.4648C427.426 74.8789 426.77 77.2109 425.457 79.4609C424.168 81.7109 422.117 83.5625 419.305 85.0156C416.516 86.4453 412.859 87.1602 408.336 87.1602C405.5 87.1602 402.922 86.8555 400.602 86.2461C398.305 85.6602 396.617 85.0742 395.539 84.4883V71.7266H400.074L401.023 79.8828C401.07 80.1641 401.223 80.4688 401.48 80.7969C401.738 81.125 401.984 81.3477 402.219 81.4648C402.969 81.8398 403.941 82.2148 405.137 82.5898C406.332 82.9414 407.785 83.1172 409.496 83.1172C412.566 83.1172 415.098 82.3672 417.09 80.8672C419.082 79.3672 420.078 77.2812 420.078 74.6094C420.078 72.9453 419.551 71.5273 418.496 70.3555C417.441 69.1602 415.965 68.0352 414.066 66.9805C412.191 65.9258 409.977 64.8008 407.422 63.6055C405.453 62.668 403.625 61.6719 401.938 60.6172C400.25 59.5391 398.891 58.2148 397.859 56.6445C396.828 55.0742 396.312 53.0703 396.312 50.6328C396.312 47.7734 397.039 45.2891 398.492 43.1797C399.945 41.0703 401.926 39.4414 404.434 38.293C406.941 37.1211 409.777 36.5352 412.941 36.5352C415.449 36.5352 417.793 36.8164 419.973 37.3789C422.176 37.918 424.062 38.457 425.633 38.9961V50.2109H421.52L420.43 43.3203C420.406 43.0625 420.277 42.8281 420.043 42.6172C419.809 42.4062 419.586 42.2305 419.375 42.0898C419 41.832 418.332 41.4922 417.371 41.0703C416.41 40.6484 414.969 40.4375 413.047 40.4375C410.164 40.4375 407.891 41.2461 406.227 42.8633C404.562 44.457 403.73 46.4727 403.73 48.9102C403.73 51.1133 404.586 52.9414 406.297 54.3945C408.031 55.8477 410.516 57.1953 413.75 58.4375C418.109 60.0781 421.473 61.9297 423.84 63.9922C426.23 66.0312 427.426 68.8555 427.426 72.4648ZM454.25 84.4883C454.25 84.4883 453.793 84.6875 452.879 85.0859C451.988 85.4844 450.805 85.8828 449.328 86.2812C447.875 86.6797 446.281 86.8789 444.547 86.8789C441.852 86.8789 439.883 86.2461 438.641 84.9805C437.422 83.6914 436.812 81.6289 436.812 78.793V54.8867H432.207V52.5312L437.129 50.2109L440.363 42.582H443.527V51.3008H453.688V54.8867H443.527V74.9961C443.527 77.8555 444.008 79.8828 444.969 81.0781C445.93 82.25 447.371 82.8359 449.293 82.8359C450.699 82.8359 451.871 82.6367 452.809 82.2383C453.77 81.8164 454.25 81.6055 454.25 81.6055V84.4883ZM487.578 82.4141C485.562 83.6562 483.383 84.7109 481.039 85.5781C478.719 86.4453 476.34 86.8789 473.902 86.8789C470.996 86.8789 468.266 86.2344 465.711 84.9453C463.18 83.6328 461.129 81.6523 459.559 79.0039C457.988 76.3555 457.203 73.0273 457.203 69.0195C457.203 65.2695 457.93 62 459.383 59.2109C460.836 56.4219 462.84 54.2656 465.395 52.7422C467.949 51.1953 470.855 50.4219 474.113 50.4219C478.59 50.4219 481.953 51.8164 484.203 54.6055C486.453 57.3711 487.578 60.8984 487.578 65.1875C487.578 65.4219 487.578 65.7383 487.578 66.1367C487.578 66.5117 487.555 66.8633 487.508 67.1914H464.164C464.164 69.0195 464.352 70.8477 464.727 72.6758C465.125 74.4805 465.781 76.1211 466.695 77.5977C467.609 79.0742 468.84 80.2578 470.387 81.1484C471.934 82.0391 473.867 82.4844 476.188 82.4844C478.25 82.4844 480.254 82.0156 482.199 81.0781C484.168 80.1172 485.961 79.0977 487.578 78.0195V82.4141ZM480.371 63.957V62.375C480.371 60.0078 479.797 58.0156 478.648 56.3984C477.523 54.7812 475.766 53.9727 473.375 53.9727C471.008 53.9727 468.992 54.8633 467.328 56.6445C465.664 58.4258 464.738 60.8633 464.551 63.957H480.371ZM525.477 86H514.824L513.875 81.7461C513.875 81.7461 513.512 82.0039 512.785 82.5195C512.082 83.0352 511.145 83.6328 509.973 84.3125C508.801 84.9922 507.5 85.5898 506.07 86.1055C504.664 86.6211 503.258 86.8789 501.852 86.8789C499.25 86.8789 497.035 86.0117 495.207 84.2773C493.402 82.543 492.5 80.1641 492.5 77.1406C492.5 75.8047 492.734 74.5625 493.203 73.4141C493.695 72.2656 494.656 71.1758 496.086 70.1445C497.539 69.0898 499.684 68.0703 502.52 67.0859C505.379 66.0781 509.164 65.0586 513.875 64.0273C513.875 63.957 513.875 63.6641 513.875 63.1484C513.875 62.6328 513.875 62.1406 513.875 61.6719C513.875 61.1797 513.875 60.9336 513.875 60.9336C513.875 56.1992 511.637 53.832 507.16 53.832C505.918 53.832 504.84 53.9492 503.926 54.1836C503.035 54.418 502.414 54.6055 502.062 54.7461V61.0039H496.824C496.168 61.0039 495.559 60.8867 494.996 60.6523C494.434 60.3945 494.152 59.8203 494.152 58.9297C494.152 56.9609 494.902 55.3555 496.402 54.1133C497.902 52.8477 499.801 51.9219 502.098 51.3359C504.418 50.7266 506.762 50.4219 509.129 50.4219C512.105 50.4219 514.414 50.8906 516.055 51.8281C517.695 52.7422 518.844 54.0195 519.5 55.6602C520.156 57.2773 520.484 59.1289 520.484 61.2148V81.3945C520.484 81.8398 520.625 82.2031 520.906 82.4844C521.211 82.7656 521.574 82.9297 521.996 82.9766L525.477 83.1875V86ZM513.875 79.2148V66.7695C510.641 67.5664 508.062 68.375 506.141 69.1953C504.242 69.9922 502.824 70.8008 501.887 71.6211C500.949 72.418 500.328 73.2383 500.023 74.082C499.742 74.9023 499.602 75.7578 499.602 76.6484C499.602 78.125 500.07 79.4961 501.008 80.7617C501.969 82.0039 503.305 82.625 505.016 82.625C505.977 82.625 506.973 82.4609 508.004 82.1328C509.035 81.7812 509.996 81.3828 510.887 80.9375C511.777 80.4688 512.492 80.0703 513.031 79.7422C513.594 79.3906 513.875 79.2148 513.875 79.2148ZM586.297 86H570.16V83.1875L573.184 82.9766C574.191 82.9062 574.695 82.3789 574.695 81.3945V63.043C574.695 60.8164 574.227 59.0352 573.289 57.6992C572.375 56.3633 570.711 55.6953 568.297 55.6953C567.102 55.6953 565.789 55.8828 564.359 56.2578C562.953 56.6328 561.699 57.1133 560.598 57.6992V81.3945C560.598 82.3789 561.102 82.9062 562.109 82.9766L565.133 83.1875V86H549.348V83.1875L552.371 82.9766C553.379 82.9062 553.883 82.3789 553.883 81.3945V62.5859C553.883 60.5469 553.402 58.8945 552.441 57.6289C551.48 56.3398 549.852 55.6953 547.555 55.6953C546.195 55.6953 544.777 55.9297 543.301 56.3984C541.824 56.8438 540.676 57.3008 539.855 57.7695V81.3945C539.855 82.3789 540.359 82.9062 541.367 82.9766L544.391 83.1875V86H528.113V83.1875L531.629 82.9766C532.637 82.9062 533.141 82.3789 533.141 81.3945V56.3984H528.184V54.043L536.902 51.3008H539.855V54.8867C540.934 54.2305 542.141 53.5625 543.477 52.8828C544.836 52.2031 546.219 51.6289 547.625 51.1602C549.031 50.668 550.355 50.4219 551.598 50.4219C553.684 50.4219 555.371 50.9609 556.66 52.0391C557.949 53.0938 558.898 54.2188 559.508 55.4141C560.469 54.8047 561.688 54.1133 563.164 53.3398C564.641 52.543 566.164 51.8633 567.734 51.3008C569.328 50.7148 570.758 50.4219 572.023 50.4219C574.555 50.4219 576.488 51.0078 577.824 52.1797C579.16 53.3281 580.074 54.7578 580.566 56.4688C581.059 58.1562 581.305 59.8203 581.305 61.4609V81.3945C581.305 81.8398 581.445 82.2031 581.727 82.4844C582.031 82.7656 582.395 82.9297 582.816 82.9766L586.297 83.1875V86ZM640.121 83.3281C638.504 84.1953 636.676 85.0039 634.637 85.7539C632.621 86.5039 630.395 86.8789 627.957 86.8789C624.605 86.8789 621.688 86.0938 619.203 84.5234C616.742 82.9531 614.832 80.8203 613.473 78.125C612.137 75.4062 611.469 72.3242 611.469 68.8789C611.469 64.8477 612.266 61.4609 613.859 58.7188C615.477 55.9766 617.598 53.9141 620.223 52.5312C622.871 51.125 625.73 50.4219 628.801 50.4219C631.965 50.4219 634.613 51.043 636.746 52.2852C638.902 53.5039 639.98 55.2852 639.98 57.6289C639.98 59.0352 639.535 60.1016 638.645 60.8281C637.777 61.5312 636.805 61.8828 635.727 61.8828C634.93 61.8828 634.238 61.7539 633.652 61.4961C633.066 61.2148 632.551 60.9336 632.105 60.6523V54.3945C631.004 53.7617 629.996 53.4453 629.082 53.4453C626.949 53.4453 625.109 54.0781 623.562 55.3438C622.039 56.5859 620.867 58.2969 620.047 60.4766C619.227 62.6562 618.816 65.1406 618.816 67.9297C618.816 70.5781 619.262 73.0039 620.152 75.207C621.043 77.3867 622.367 79.1211 624.125 80.4102C625.906 81.6992 628.109 82.3438 630.734 82.3438C632.398 82.3438 633.992 82.0742 635.516 81.5352C637.039 80.9961 638.574 80.2227 640.121 79.2148V83.3281ZM669.969 58.6484H667.156C666.711 58.1094 666.172 57.6523 665.539 57.2773C664.93 56.8789 664.18 56.6797 663.289 56.6797C662.141 56.6797 660.957 57.0781 659.738 57.875C658.543 58.6719 657.324 59.7617 656.082 61.1445V81.3945C656.082 82.4023 656.586 82.9297 657.594 82.9766L662.34 83.1875V86H644.34V83.2578L647.891 82.9766C648.312 82.9297 648.664 82.7656 648.945 82.4844C649.25 82.2031 649.402 81.8398 649.402 81.3945V56.3984H644.199V54.043L653.129 51.3008H656.082V57.6992C658.121 55.332 659.891 53.5273 661.391 52.2852C662.914 51.043 664.309 50.4219 665.574 50.4219C666.324 50.4219 667.133 50.5391 668 50.7734C668.867 51.0078 669.523 51.2539 669.969 51.5117V58.6484ZM703.578 82.4141C701.562 83.6562 699.383 84.7109 697.039 85.5781C694.719 86.4453 692.34 86.8789 689.902 86.8789C686.996 86.8789 684.266 86.2344 681.711 84.9453C679.18 83.6328 677.129 81.6523 675.559 79.0039C673.988 76.3555 673.203 73.0273 673.203 69.0195C673.203 65.2695 673.93 62 675.383 59.2109C676.836 56.4219 678.84 54.2656 681.395 52.7422C683.949 51.1953 686.855 50.4219 690.113 50.4219C694.59 50.4219 697.953 51.8164 700.203 54.6055C702.453 57.3711 703.578 60.8984 703.578 65.1875C703.578 65.4219 703.578 65.7383 703.578 66.1367C703.578 66.5117 703.555 66.8633 703.508 67.1914H680.164C680.164 69.0195 680.352 70.8477 680.727 72.6758C681.125 74.4805 681.781 76.1211 682.695 77.5977C683.609 79.0742 684.84 80.2578 686.387 81.1484C687.934 82.0391 689.867 82.4844 692.188 82.4844C694.25 82.4844 696.254 82.0156 698.199 81.0781C700.168 80.1172 701.961 79.0977 703.578 78.0195V82.4141ZM696.371 63.957V62.375C696.371 60.0078 695.797 58.0156 694.648 56.3984C693.523 54.7812 691.766 53.9727 689.375 53.9727C687.008 53.9727 684.992 54.8633 683.328 56.6445C681.664 58.4258 680.738 60.8633 680.551 63.957H696.371ZM744.781 86H733.461V82.168C731.82 83.4336 730.074 84.5352 728.223 85.4727C726.371 86.4102 724.402 86.8789 722.316 86.8789C719.902 86.8789 717.816 86.375 716.059 85.3672C714.324 84.3359 712.895 82.9766 711.77 81.2891C710.668 79.6016 709.848 77.7383 709.309 75.6992C708.77 73.6602 708.5 71.6211 708.5 69.582C708.5 66.3242 709.168 63.2422 710.504 60.3359C711.84 57.4062 713.867 55.0273 716.586 53.1992C719.305 51.3477 722.727 50.4219 726.852 50.4219C728 50.4219 729.242 50.5391 730.578 50.7734C731.938 50.9844 732.898 51.1602 733.461 51.3008V38.1172H728.012V35.7266L737.293 32.9492H740.176V81.3945C740.176 82.3789 740.68 82.9062 741.688 82.9766L744.781 83.1875V86ZM733.461 79.4609V54.957C732.852 54.7461 731.938 54.5234 730.719 54.2891C729.523 54.0312 728.398 53.9023 727.344 53.9023C723.781 53.9023 720.934 55.2266 718.801 57.875C716.668 60.5 715.602 63.9922 715.602 68.3516C715.602 72.2656 716.516 75.5117 718.344 78.0898C720.172 80.668 722.738 81.957 726.043 81.957C727.496 81.957 728.855 81.6875 730.121 81.1484C731.41 80.5859 732.523 80.0234 733.461 79.4609ZM762.359 39.418C762.359 40.6367 761.938 41.6914 761.094 42.582C760.25 43.4492 759.219 43.8828 758 43.8828C756.781 43.8828 755.727 43.4492 754.836 42.582C753.969 41.6914 753.535 40.6367 753.535 39.418C753.535 38.1758 753.969 37.1328 754.836 36.2891C755.727 35.4453 756.781 35.0234 758 35.0234C759.219 35.0234 760.25 35.4453 761.094 36.2891C761.938 37.1328 762.359 38.1758 762.359 39.418ZM766.051 86H749.141V83.1875L752.656 82.9766C753.664 82.9062 754.168 82.3789 754.168 81.3945V55.6953H749.211V53.1641L758 50.4219H760.848V81.3945C760.848 81.8398 760.988 82.2148 761.27 82.5195C761.574 82.8008 761.938 82.9531 762.359 82.9766L766.051 83.1875V86ZM792.523 84.4883C792.523 84.4883 792.066 84.6875 791.152 85.0859C790.262 85.4844 789.078 85.8828 787.602 86.2812C786.148 86.6797 784.555 86.8789 782.82 86.8789C780.125 86.8789 778.156 86.2461 776.914 84.9805C775.695 83.6914 775.086 81.6289 775.086 78.793V54.8867H770.48V52.5312L775.402 50.2109L778.637 42.582H781.801V51.3008H791.961V54.8867H781.801V74.9961C781.801 77.8555 782.281 79.8828 783.242 81.0781C784.203 82.25 785.645 82.8359 787.566 82.8359C788.973 82.8359 790.145 82.6367 791.082 82.2383C792.043 81.8164 792.523 81.6055 792.523 81.6055V84.4883ZM818.152 60.582H814.391L813.828 55.5547C813.312 55.1562 812.551 54.7812 811.543 54.4297C810.535 54.0781 809.469 53.9023 808.344 53.9023C806.375 53.9023 804.91 54.3594 803.949 55.2734C802.988 56.1641 802.508 57.3125 802.508 58.7188C802.508 59.7969 802.754 60.7109 803.246 61.4609C803.738 62.2109 804.57 62.9492 805.742 63.6758C806.914 64.3789 808.508 65.1992 810.523 66.1367C813.031 67.2852 815.105 68.5625 816.746 69.9688C818.387 71.3516 819.207 73.2148 819.207 75.5586C819.207 79.0977 817.988 81.875 815.551 83.8906C813.113 85.8828 809.75 86.8789 805.461 86.8789C803.258 86.8789 801.219 86.6445 799.344 86.1758C797.492 85.7305 796.203 85.3555 795.477 85.0508V75.4883H799.133L800.012 81.6055C800.738 82.0742 801.629 82.5312 802.684 82.9766C803.762 83.3984 805.004 83.6094 806.41 83.6094C808.473 83.6094 810.066 83.0352 811.191 81.8867C812.316 80.7383 812.879 79.4492 812.879 78.0195C812.879 76.1445 812.105 74.6797 810.559 73.625C809.035 72.5469 806.879 71.3398 804.09 70.0039C801.465 68.7383 799.449 67.4375 798.043 66.1016C796.66 64.7656 795.969 63.0195 795.969 60.8633C795.969 57.6523 797.094 55.1094 799.344 53.2344C801.594 51.3594 804.793 50.4219 808.941 50.4219C811.051 50.4219 812.926 50.6211 814.566 51.0195C816.23 51.3945 817.426 51.7461 818.152 52.0742V60.582ZM836.539 85.2969C836.539 87.6875 835.953 89.8203 834.781 91.6953C833.609 93.5703 832.062 95.082 830.141 96.2305C828.242 97.3789 826.203 98.0469 824.023 98.2344V95.6328C826.578 95.0703 828.547 94.0508 829.93 92.5742C831.312 91.1211 831.98 88.7656 831.934 85.5078H827.398C827.305 85.3906 827.059 85.0508 826.66 84.4883C826.285 83.9258 826.098 83.1523 826.098 82.168C826.098 80.9258 826.52 79.7891 827.363 78.7578C828.207 77.7266 829.273 77.2109 830.562 77.2109C832.625 77.2109 834.137 77.9844 835.098 79.5312C836.059 81.0547 836.539 82.9766 836.539 85.2969ZM899.68 68.7031C899.68 72.1016 898.977 75.1836 897.57 77.9492C896.164 80.6914 894.172 82.8711 891.594 84.4883C889.039 86.082 886.004 86.8789 882.488 86.8789C878.996 86.8789 875.973 86.082 873.418 84.4883C870.863 82.8945 868.895 80.7266 867.512 77.9844C866.129 75.2422 865.438 72.1484 865.438 68.7031C865.438 65.2812 866.129 62.1875 867.512 59.4219C868.918 56.6562 870.91 54.4648 873.488 52.8477C876.09 51.2305 879.16 50.4219 882.699 50.4219C886.285 50.4219 889.344 51.2422 891.875 52.8828C894.406 54.5234 896.34 56.7266 897.676 59.4922C899.012 62.2578 899.68 65.3281 899.68 68.7031ZM892.191 68.6328C892.191 66.0078 891.84 63.5586 891.137 61.2852C890.457 59.0117 889.402 57.1719 887.973 55.7656C886.566 54.3594 884.785 53.6562 882.629 53.6562C880.402 53.6562 878.574 54.3594 877.145 55.7656C875.738 57.1719 874.695 59.0117 874.016 61.2852C873.336 63.5586 872.996 66.0078 872.996 68.6328C872.996 71.2344 873.336 73.6836 874.016 75.9805C874.719 78.2539 875.773 80.0938 877.18 81.5C878.609 82.9062 880.402 83.6094 882.559 83.6094C884.762 83.6094 886.566 82.9062 887.973 81.5C889.402 80.0938 890.457 78.2539 891.137 75.9805C891.84 73.707 892.191 71.2578 892.191 68.6328ZM929.562 58.6484H926.75C926.305 58.1094 925.766 57.6523 925.133 57.2773C924.523 56.8789 923.773 56.6797 922.883 56.6797C921.734 56.6797 920.551 57.0781 919.332 57.875C918.137 58.6719 916.918 59.7617 915.676 61.1445V81.3945C915.676 82.4023 916.18 82.9297 917.188 82.9766L921.934 83.1875V86H903.934V83.2578L907.484 82.9766C907.906 82.9297 908.258 82.7656 908.539 82.4844C908.844 82.2031 908.996 81.8398 908.996 81.3945V56.3984H903.793V54.043L912.723 51.3008H915.676V57.6992C917.715 55.332 919.484 53.5273 920.984 52.2852C922.508 51.043 923.902 50.4219 925.168 50.4219C925.918 50.4219 926.727 50.5391 927.594 50.7734C928.461 51.0078 929.117 51.2539 929.562 51.5117V58.6484ZM986.867 86H976.215L975.266 81.7461C975.266 81.7461 974.902 82.0039 974.176 82.5195C973.473 83.0352 972.535 83.6328 971.363 84.3125C970.191 84.9922 968.891 85.5898 967.461 86.1055C966.055 86.6211 964.648 86.8789 963.242 86.8789C960.641 86.8789 958.426 86.0117 956.598 84.2773C954.793 82.543 953.891 80.1641 953.891 77.1406C953.891 75.8047 954.125 74.5625 954.594 73.4141C955.086 72.2656 956.047 71.1758 957.477 70.1445C958.93 69.0898 961.074 68.0703 963.91 67.0859C966.77 66.0781 970.555 65.0586 975.266 64.0273C975.266 63.957 975.266 63.6641 975.266 63.1484C975.266 62.6328 975.266 62.1406 975.266 61.6719C975.266 61.1797 975.266 60.9336 975.266 60.9336C975.266 56.1992 973.027 53.832 968.551 53.832C967.309 53.832 966.23 53.9492 965.316 54.1836C964.426 54.418 963.805 54.6055 963.453 54.7461V61.0039H958.215C957.559 61.0039 956.949 60.8867 956.387 60.6523C955.824 60.3945 955.543 59.8203 955.543 58.9297C955.543 56.9609 956.293 55.3555 957.793 54.1133C959.293 52.8477 961.191 51.9219 963.488 51.3359C965.809 50.7266 968.152 50.4219 970.52 50.4219C973.496 50.4219 975.805 50.8906 977.445 51.8281C979.086 52.7422 980.234 54.0195 980.891 55.6602C981.547 57.2773 981.875 59.1289 981.875 61.2148V81.3945C981.875 81.8398 982.016 82.2031 982.297 82.4844C982.602 82.7656 982.965 82.9297 983.387 82.9766L986.867 83.1875V86ZM975.266 79.2148V66.7695C972.031 67.5664 969.453 68.375 967.531 69.1953C965.633 69.9922 964.215 70.8008 963.277 71.6211C962.34 72.418 961.719 73.2383 961.414 74.082C961.133 74.9023 960.992 75.7578 960.992 76.6484C960.992 78.125 961.461 79.4961 962.398 80.7617C963.359 82.0039 964.695 82.625 966.406 82.625C967.367 82.625 968.363 82.4609 969.395 82.1328C970.426 81.7812 971.387 81.3828 972.277 80.9375C973.168 80.4688 973.883 80.0703 974.422 79.7422C974.984 79.3906 975.266 79.2148 975.266 79.2148ZM1048.04 52.2148C1048.04 55.7539 1047.2 58.6953 1045.51 61.0391C1043.82 63.3594 1041.56 65.0938 1038.72 66.2422C1035.89 67.3906 1032.72 67.9531 1029.23 67.9297C1028.29 67.9297 1027.25 67.8945 1026.1 67.8242C1024.98 67.7305 1024.32 67.6719 1024.13 67.6484V81.043C1024.13 81.3945 1024.25 81.7344 1024.48 82.0625C1024.74 82.3906 1025.13 82.5781 1025.64 82.625L1030.39 82.9062V86H1011.48V82.9062L1015.27 82.625C1015.79 82.5781 1016.18 82.3906 1016.43 82.0625C1016.71 81.7344 1016.86 81.3945 1016.86 81.043V42.6523C1016.86 42.3008 1016.71 41.9609 1016.43 41.6328C1016.18 41.2812 1015.79 41.0938 1015.27 41.0703L1010.95 40.7891V37.6953H1028.18C1034.97 37.6953 1039.98 38.7852 1043.19 40.9648C1046.42 43.1445 1048.04 46.8945 1048.04 52.2148ZM1040.55 52.3203C1040.55 48.8281 1039.57 46.1094 1037.6 44.1641C1035.65 42.1953 1032.38 41.2109 1027.79 41.2109C1027.13 41.2109 1026.36 41.2227 1025.47 41.2461C1024.58 41.2695 1024.13 41.2812 1024.13 41.2812V63.957C1024.25 63.957 1024.78 64.0273 1025.71 64.168C1026.68 64.2852 1027.5 64.3438 1028.18 64.3438C1031.95 64.3672 1034.95 63.418 1037.18 61.4961C1039.43 59.5508 1040.55 56.4922 1040.55 52.3203ZM1066.53 39.418C1066.53 40.6367 1066.11 41.6914 1065.27 42.582C1064.42 43.4492 1063.39 43.8828 1062.17 43.8828C1060.95 43.8828 1059.9 43.4492 1059.01 42.582C1058.14 41.6914 1057.71 40.6367 1057.71 39.418C1057.71 38.1758 1058.14 37.1328 1059.01 36.2891C1059.9 35.4453 1060.95 35.0234 1062.17 35.0234C1063.39 35.0234 1064.42 35.4453 1065.27 36.2891C1066.11 37.1328 1066.53 38.1758 1066.53 39.418ZM1070.22 86H1053.31V83.1875L1056.83 82.9766C1057.84 82.9062 1058.34 82.3789 1058.34 81.3945V55.6953H1053.38V53.1641L1062.17 50.4219H1065.02V81.3945C1065.02 81.8398 1065.16 82.2148 1065.44 82.5195C1065.75 82.8008 1066.11 82.9531 1066.53 82.9766L1070.22 83.1875V86ZM1132.41 86H1096.62V82.8359L1123.41 41.2812H1104.68C1104.07 41.2812 1103.66 41.6914 1103.45 42.5117L1102.39 49.1914H1098.14V37.6953H1132.03V41L1105.2 82.3438H1125.7C1126.03 82.3438 1126.3 82.2148 1126.51 81.957C1126.72 81.6992 1126.86 81.3945 1126.93 81.043L1128.16 72.6758H1132.41V86ZM1168.06 82.4141C1166.05 83.6562 1163.87 84.7109 1161.52 85.5781C1159.2 86.4453 1156.82 86.8789 1154.39 86.8789C1151.48 86.8789 1148.75 86.2344 1146.2 84.9453C1143.66 83.6328 1141.61 81.6523 1140.04 79.0039C1138.47 76.3555 1137.69 73.0273 1137.69 69.0195C1137.69 65.2695 1138.41 62 1139.87 59.2109C1141.32 56.4219 1143.32 54.2656 1145.88 52.7422C1148.43 51.1953 1151.34 50.4219 1154.6 50.4219C1159.07 50.4219 1162.44 51.8164 1164.69 54.6055C1166.94 57.3711 1168.06 60.8984 1168.06 65.1875C1168.06 65.4219 1168.06 65.7383 1168.06 66.1367C1168.06 66.5117 1168.04 66.8633 1167.99 67.1914H1144.65C1144.65 69.0195 1144.84 70.8477 1145.21 72.6758C1145.61 74.4805 1146.27 76.1211 1147.18 77.5977C1148.09 79.0742 1149.32 80.2578 1150.87 81.1484C1152.42 82.0391 1154.35 82.4844 1156.67 82.4844C1158.73 82.4844 1160.74 82.0156 1162.68 81.0781C1164.65 80.1172 1166.45 79.0977 1168.06 78.0195V82.4141ZM1160.86 63.957V62.375C1160.86 60.0078 1160.28 58.0156 1159.13 56.3984C1158.01 54.7812 1156.25 53.9727 1153.86 53.9727C1151.49 53.9727 1149.48 54.8633 1147.81 56.6445C1146.15 58.4258 1145.22 60.8633 1145.04 63.957H1160.86ZM1197.95 58.6484H1195.13C1194.69 58.1094 1194.15 57.6523 1193.52 57.2773C1192.91 56.8789 1192.16 56.6797 1191.27 56.6797C1190.12 56.6797 1188.93 57.0781 1187.71 57.875C1186.52 58.6719 1185.3 59.7617 1184.06 61.1445V81.3945C1184.06 82.4023 1184.56 82.9297 1185.57 82.9766L1190.32 83.1875V86H1172.32V83.2578L1175.87 82.9766C1176.29 82.9297 1176.64 82.7656 1176.92 82.4844C1177.23 82.2031 1177.38 81.8398 1177.38 81.3945V56.3984H1172.18V54.043L1181.11 51.3008H1184.06V57.6992C1186.1 55.332 1187.87 53.5273 1189.37 52.2852C1190.89 51.043 1192.29 50.4219 1193.55 50.4219C1194.3 50.4219 1195.11 50.5391 1195.98 50.7734C1196.84 51.0078 1197.5 51.2539 1197.95 51.5117V58.6484ZM1235.42 68.7031C1235.42 72.1016 1234.72 75.1836 1233.31 77.9492C1231.91 80.6914 1229.91 82.8711 1227.34 84.4883C1224.78 86.082 1221.75 86.8789 1218.23 86.8789C1214.74 86.8789 1211.71 86.082 1209.16 84.4883C1206.61 82.8945 1204.64 80.7266 1203.25 77.9844C1201.87 75.2422 1201.18 72.1484 1201.18 68.7031C1201.18 65.2812 1201.87 62.1875 1203.25 59.4219C1204.66 56.6562 1206.65 54.4648 1209.23 52.8477C1211.83 51.2305 1214.9 50.4219 1218.44 50.4219C1222.03 50.4219 1225.09 51.2422 1227.62 52.8828C1230.15 54.5234 1232.08 56.7266 1233.42 59.4922C1234.75 62.2578 1235.42 65.3281 1235.42 68.7031ZM1227.93 68.6328C1227.93 66.0078 1227.58 63.5586 1226.88 61.2852C1226.2 59.0117 1225.14 57.1719 1223.71 55.7656C1222.31 54.3594 1220.53 53.6562 1218.37 53.6562C1216.14 53.6562 1214.32 54.3594 1212.89 55.7656C1211.48 57.1719 1210.44 59.0117 1209.76 61.2852C1209.08 63.5586 1208.74 66.0078 1208.74 68.6328C1208.74 71.2344 1209.08 73.6836 1209.76 75.9805C1210.46 78.2539 1211.52 80.0938 1212.92 81.5C1214.35 82.9062 1216.14 83.6094 1218.3 83.6094C1220.5 83.6094 1222.31 82.9062 1223.71 81.5C1225.14 80.0938 1226.2 78.2539 1226.88 75.9805C1227.58 73.707 1227.93 71.2578 1227.93 68.6328ZM1325.28 40.7891L1320.89 41.6328L1309.88 87.1602H1304.61L1292.59 47.2578L1280.81 87.1602H1275.61L1263.86 41.6328L1259.68 40.7891V37.6953H1276.17V40.7891L1271.88 41.2109C1271.55 41.2344 1271.33 41.3984 1271.21 41.7031C1271.09 42.0078 1271.07 42.3242 1271.14 42.6523L1279.72 75.1367L1291 37.6953H1296.56L1308.16 76.2969L1316.14 42.6523C1316.21 42.3242 1316.15 42.0078 1315.96 41.7031C1315.78 41.3984 1315.5 41.2344 1315.12 41.2109L1310.59 40.7891V37.6953H1325.28V40.7891ZM1371.12 84.4883C1371.12 84.4883 1370.67 84.6875 1369.75 85.0859C1368.86 85.4844 1367.68 85.8828 1366.2 86.2812C1364.75 86.6797 1363.16 86.8789 1361.42 86.8789C1358.73 86.8789 1356.76 86.2461 1355.52 84.9805C1354.3 83.6914 1353.69 81.6289 1353.69 78.793V54.8867H1349.08V52.5312L1354 50.2109L1357.24 42.582H1360.4V51.3008H1370.56V54.8867H1360.4V74.9961C1360.4 77.8555 1360.88 79.8828 1361.84 81.0781C1362.8 82.25 1364.25 82.8359 1366.17 82.8359C1367.57 82.8359 1368.75 82.6367 1369.68 82.2383C1370.64 81.8164 1371.12 81.6055 1371.12 81.6055V84.4883ZM1408.32 68.7031C1408.32 72.1016 1407.62 75.1836 1406.21 77.9492C1404.8 80.6914 1402.81 82.8711 1400.23 84.4883C1397.68 86.082 1394.64 86.8789 1391.13 86.8789C1387.64 86.8789 1384.61 86.082 1382.06 84.4883C1379.5 82.8945 1377.54 80.7266 1376.15 77.9844C1374.77 75.2422 1374.08 72.1484 1374.08 68.7031C1374.08 65.2812 1374.77 62.1875 1376.15 59.4219C1377.56 56.6562 1379.55 54.4648 1382.13 52.8477C1384.73 51.2305 1387.8 50.4219 1391.34 50.4219C1394.93 50.4219 1397.98 51.2422 1400.52 52.8828C1403.05 54.5234 1404.98 56.7266 1406.32 59.4922C1407.65 62.2578 1408.32 65.3281 1408.32 68.7031ZM1400.83 68.6328C1400.83 66.0078 1400.48 63.5586 1399.78 61.2852C1399.1 59.0117 1398.04 57.1719 1396.61 55.7656C1395.21 54.3594 1393.43 53.6562 1391.27 53.6562C1389.04 53.6562 1387.21 54.3594 1385.79 55.7656C1384.38 57.1719 1383.34 59.0117 1382.66 61.2852C1381.98 63.5586 1381.64 66.0078 1381.64 68.6328C1381.64 71.2344 1381.98 73.6836 1382.66 75.9805C1383.36 78.2539 1384.41 80.0938 1385.82 81.5C1387.25 82.9062 1389.04 83.6094 1391.2 83.6094C1393.4 83.6094 1395.21 82.9062 1396.61 81.5C1398.04 80.0938 1399.1 78.2539 1399.78 75.9805C1400.48 73.707 1400.83 71.2578 1400.83 68.6328ZM1471.53 86H1455.5V83.1875L1458.45 82.9766C1458.88 82.9297 1459.24 82.7656 1459.54 82.4844C1459.87 82.2031 1460.04 81.8398 1460.04 81.3945V62.832C1460.04 60.7695 1459.54 59.0703 1458.56 57.7344C1457.57 56.375 1455.69 55.6953 1452.9 55.6953C1451.63 55.6953 1450.26 55.8945 1448.79 56.293C1447.33 56.6914 1446.09 57.1836 1445.06 57.7695V81.3945C1445.06 82.3789 1445.54 82.9062 1446.5 82.9766L1449.59 83.1875V86H1433.39V83.1875L1436.83 82.9766C1437.84 82.9062 1438.34 82.3789 1438.34 81.3945V38.1172H1432.96V35.7266L1442.18 32.9492H1445.06V54.8867C1445.93 54.3477 1447.05 53.7383 1448.43 53.0586C1449.82 52.3555 1451.27 51.7461 1452.79 51.2305C1454.32 50.6914 1455.7 50.4219 1456.94 50.4219C1459.71 50.4219 1462.03 51.3125 1463.9 53.0938C1465.78 54.875 1466.71 57.6172 1466.71 61.3203V81.3945C1466.71 81.8398 1466.87 82.2031 1467.17 82.4844C1467.5 82.7656 1467.88 82.9297 1468.3 82.9766L1471.53 83.1875V86ZM1509.92 68.7031C1509.92 72.1016 1509.22 75.1836 1507.81 77.9492C1506.41 80.6914 1504.41 82.8711 1501.84 84.4883C1499.28 86.082 1496.25 86.8789 1492.73 86.8789C1489.24 86.8789 1486.21 86.082 1483.66 84.4883C1481.11 82.8945 1479.14 80.7266 1477.75 77.9844C1476.37 75.2422 1475.68 72.1484 1475.68 68.7031C1475.68 65.2812 1476.37 62.1875 1477.75 59.4219C1479.16 56.6562 1481.15 54.4648 1483.73 52.8477C1486.33 51.2305 1489.4 50.4219 1492.94 50.4219C1496.53 50.4219 1499.59 51.2422 1502.12 52.8828C1504.65 54.5234 1506.58 56.7266 1507.92 59.4922C1509.25 62.2578 1509.92 65.3281 1509.92 68.7031ZM1502.43 68.6328C1502.43 66.0078 1502.08 63.5586 1501.38 61.2852C1500.7 59.0117 1499.64 57.1719 1498.21 55.7656C1496.81 54.3594 1495.03 53.6562 1492.87 53.6562C1490.64 53.6562 1488.82 54.3594 1487.39 55.7656C1485.98 57.1719 1484.94 59.0117 1484.26 61.2852C1483.58 63.5586 1483.24 66.0078 1483.24 68.6328C1483.24 71.2344 1483.58 73.6836 1484.26 75.9805C1484.96 78.2539 1486.02 80.0938 1487.42 81.5C1488.85 82.9062 1490.64 83.6094 1492.8 83.6094C1495 83.6094 1496.81 82.9062 1498.21 81.5C1499.64 80.0938 1500.7 78.2539 1501.38 75.9805C1502.08 73.707 1502.43 71.2578 1502.43 68.6328ZM1537.52 60.582H1533.76L1533.2 55.5547C1532.68 55.1562 1531.92 54.7812 1530.91 54.4297C1529.9 54.0781 1528.84 53.9023 1527.71 53.9023C1525.74 53.9023 1524.28 54.3594 1523.32 55.2734C1522.36 56.1641 1521.88 57.3125 1521.88 58.7188C1521.88 59.7969 1522.12 60.7109 1522.61 61.4609C1523.11 62.2109 1523.94 62.9492 1525.11 63.6758C1526.28 64.3789 1527.88 65.1992 1529.89 66.1367C1532.4 67.2852 1534.47 68.5625 1536.11 69.9688C1537.75 71.3516 1538.57 73.2148 1538.57 75.5586C1538.57 79.0977 1537.36 81.875 1534.92 83.8906C1532.48 85.8828 1529.12 86.8789 1524.83 86.8789C1522.62 86.8789 1520.59 86.6445 1518.71 86.1758C1516.86 85.7305 1515.57 85.3555 1514.84 85.0508V75.4883H1518.5L1519.38 81.6055C1520.11 82.0742 1521 82.5312 1522.05 82.9766C1523.13 83.3984 1524.37 83.6094 1525.78 83.6094C1527.84 83.6094 1529.43 83.0352 1530.56 81.8867C1531.68 80.7383 1532.25 79.4492 1532.25 78.0195C1532.25 76.1445 1531.47 74.6797 1529.93 73.625C1528.4 72.5469 1526.25 71.3398 1523.46 70.0039C1520.83 68.7383 1518.82 67.4375 1517.41 66.1016C1516.03 64.7656 1515.34 63.0195 1515.34 60.8633C1515.34 57.6523 1516.46 55.1094 1518.71 53.2344C1520.96 51.3594 1524.16 50.4219 1528.31 50.4219C1530.42 50.4219 1532.29 50.6211 1533.93 51.0195C1535.6 51.3945 1536.79 51.7461 1537.52 52.0742V60.582ZM1565.05 84.4883C1565.05 84.4883 1564.59 84.6875 1563.68 85.0859C1562.79 85.4844 1561.6 85.8828 1560.12 86.2812C1558.67 86.6797 1557.08 86.8789 1555.34 86.8789C1552.65 86.8789 1550.68 86.2461 1549.44 84.9805C1548.22 83.6914 1547.61 81.6289 1547.61 78.793V54.8867H1543V52.5312L1547.93 50.2109L1551.16 42.582H1554.32V51.3008H1564.48V54.8867H1554.32V74.9961C1554.32 77.8555 1554.8 79.8828 1555.77 81.0781C1556.73 82.25 1558.17 82.8359 1560.09 82.8359C1561.5 82.8359 1562.67 82.6367 1563.61 82.2383C1564.57 81.8164 1565.05 81.6055 1565.05 81.6055V84.4883ZM1623.2 56.1172H1616.02C1616.56 56.9844 1617.02 57.9336 1617.39 58.9648C1617.77 59.9961 1617.96 61.2031 1617.96 62.5859C1617.96 65.1172 1617.22 67.2734 1615.74 69.0547C1614.27 70.8125 1612.34 72.125 1609.98 72.9922C1607.63 73.8359 1605.11 74.1641 1602.42 73.9766C1602.04 74.5859 1601.81 75.2539 1601.71 75.9805C1601.64 76.707 1601.63 77.3398 1601.68 77.8789C1601.75 78.418 1601.8 78.7227 1601.82 78.793C1603.11 78.9336 1604.6 79.0977 1606.29 79.2852C1608 79.4727 1609.72 79.7656 1611.45 80.1641C1613.21 80.5625 1614.84 81.1133 1616.34 81.8164C1617.84 82.5195 1619.05 83.4453 1619.96 84.5938C1620.88 85.7422 1621.33 87.1719 1621.33 88.8828C1621.33 91.1562 1620.5 93.3242 1618.84 95.3867C1617.17 97.4727 1614.92 99.1719 1612.09 100.484C1609.27 101.82 1606.12 102.488 1602.63 102.488C1598.34 102.488 1595.01 101.504 1592.64 99.5352C1590.28 97.5898 1589.09 95.1641 1589.09 92.2578C1589.09 90.1719 1589.71 88.3086 1590.96 86.668C1592.2 85.0508 1594.12 84.0078 1596.72 83.5391C1596.46 82.7891 1596.28 82.25 1596.16 81.9219C1596.04 81.5938 1595.98 81.0312 1595.98 80.2344C1595.98 79.2969 1596.27 78.2656 1596.83 77.1406C1597.41 75.9922 1598.34 74.7734 1599.61 73.4844C1597.21 72.9453 1595.13 71.7383 1593.35 69.8633C1591.57 67.9648 1590.68 65.5625 1590.68 62.6562C1590.68 58.8828 1592 55.9062 1594.65 53.7266C1597.32 51.5234 1600.81 50.4219 1605.12 50.4219C1606.84 50.4219 1608.42 50.6797 1609.87 51.1953C1611.35 51.6875 1612.55 52.1562 1613.49 52.6016H1623.2V56.1172ZM1611.1 62.1641C1611.1 60.6406 1610.84 59.2109 1610.33 57.875C1609.81 56.5391 1609.06 55.4609 1608.08 54.6406C1607.09 53.7969 1605.88 53.375 1604.42 53.375C1602.41 53.375 1600.75 54.1602 1599.46 55.7305C1598.2 57.2773 1597.57 59.4453 1597.57 62.2344C1597.57 64.6484 1598.14 66.7227 1599.29 68.457C1600.44 70.168 1602.15 71.0234 1604.42 71.0234C1606.58 71.0234 1608.23 70.1562 1609.38 68.4219C1610.53 66.6875 1611.1 64.6016 1611.1 62.1641ZM1615.14 90.8164C1615.14 89.3164 1614.62 88.1562 1613.56 87.3359C1612.53 86.5156 1611.24 85.9062 1609.7 85.5078C1608.15 85.1094 1606.59 84.8281 1605.02 84.6641C1603.45 84.4766 1602.12 84.2773 1601.05 84.0664C1598.96 84.8164 1597.52 85.8359 1596.72 87.125C1595.95 88.4141 1595.56 89.6445 1595.56 90.8164C1595.56 91.9648 1595.89 93.1836 1596.55 94.4727C1597.23 95.7852 1598.26 96.8984 1599.64 97.8125C1601.05 98.7266 1602.83 99.1836 1604.98 99.1836C1607.28 99.1836 1609.18 98.7266 1610.68 97.8125C1612.18 96.8984 1613.29 95.7852 1614.02 94.4727C1614.77 93.1836 1615.14 91.9648 1615.14 90.8164ZM1659.9 86H1649.25L1648.3 81.7461C1648.3 81.7461 1647.93 82.0039 1647.21 82.5195C1646.5 83.0352 1645.57 83.6328 1644.39 84.3125C1643.22 84.9922 1641.92 85.5898 1640.49 86.1055C1639.09 86.6211 1637.68 86.8789 1636.27 86.8789C1633.67 86.8789 1631.46 86.0117 1629.63 84.2773C1627.82 82.543 1626.92 80.1641 1626.92 77.1406C1626.92 75.8047 1627.16 74.5625 1627.62 73.4141C1628.12 72.2656 1629.08 71.1758 1630.51 70.1445C1631.96 69.0898 1634.11 68.0703 1636.94 67.0859C1639.8 66.0781 1643.59 65.0586 1648.3 64.0273C1648.3 63.957 1648.3 63.6641 1648.3 63.1484C1648.3 62.6328 1648.3 62.1406 1648.3 61.6719C1648.3 61.1797 1648.3 60.9336 1648.3 60.9336C1648.3 56.1992 1646.06 53.832 1641.58 53.832C1640.34 53.832 1639.26 53.9492 1638.35 54.1836C1637.46 54.418 1636.84 54.6055 1636.48 54.7461V61.0039H1631.25C1630.59 61.0039 1629.98 60.8867 1629.42 60.6523C1628.86 60.3945 1628.57 59.8203 1628.57 58.9297C1628.57 56.9609 1629.32 55.3555 1630.82 54.1133C1632.32 52.8477 1634.22 51.9219 1636.52 51.3359C1638.84 50.7266 1641.18 50.4219 1643.55 50.4219C1646.53 50.4219 1648.84 50.8906 1650.48 51.8281C1652.12 52.7422 1653.27 54.0195 1653.92 55.6602C1654.58 57.2773 1654.91 59.1289 1654.91 61.2148V81.3945C1654.91 81.8398 1655.05 82.2031 1655.33 82.4844C1655.63 82.7656 1656 82.9297 1656.42 82.9766L1659.9 83.1875V86ZM1648.3 79.2148V66.7695C1645.06 67.5664 1642.48 68.375 1640.56 69.1953C1638.66 69.9922 1637.25 70.8008 1636.31 71.6211C1635.37 72.418 1634.75 73.2383 1634.45 74.082C1634.16 74.9023 1634.02 75.7578 1634.02 76.6484C1634.02 78.125 1634.49 79.4961 1635.43 80.7617C1636.39 82.0039 1637.73 82.625 1639.44 82.625C1640.4 82.625 1641.39 82.4609 1642.43 82.1328C1643.46 81.7812 1644.42 81.3828 1645.31 80.9375C1646.2 80.4688 1646.91 80.0703 1647.45 79.7422C1648.02 79.3906 1648.3 79.2148 1648.3 79.2148ZM1720.72 86H1704.58V83.1875L1707.61 82.9766C1708.61 82.9062 1709.12 82.3789 1709.12 81.3945V63.043C1709.12 60.8164 1708.65 59.0352 1707.71 57.6992C1706.8 56.3633 1705.13 55.6953 1702.72 55.6953C1701.52 55.6953 1700.21 55.8828 1698.78 56.2578C1697.38 56.6328 1696.12 57.1133 1695.02 57.6992V81.3945C1695.02 82.3789 1695.52 82.9062 1696.53 82.9766L1699.55 83.1875V86H1683.77V83.1875L1686.79 82.9766C1687.8 82.9062 1688.3 82.3789 1688.3 81.3945V62.5859C1688.3 60.5469 1687.82 58.8945 1686.86 57.6289C1685.9 56.3398 1684.27 55.6953 1681.98 55.6953C1680.62 55.6953 1679.2 55.9297 1677.72 56.3984C1676.25 56.8438 1675.1 57.3008 1674.28 57.7695V81.3945C1674.28 82.3789 1674.78 82.9062 1675.79 82.9766L1678.81 83.1875V86H1662.54V83.1875L1666.05 82.9766C1667.06 82.9062 1667.56 82.3789 1667.56 81.3945V56.3984H1662.61V54.043L1671.32 51.3008H1674.28V54.8867C1675.36 54.2305 1676.56 53.5625 1677.9 52.8828C1679.26 52.2031 1680.64 51.6289 1682.05 51.1602C1683.45 50.668 1684.78 50.4219 1686.02 50.4219C1688.11 50.4219 1689.79 50.9609 1691.08 52.0391C1692.37 53.0938 1693.32 54.2188 1693.93 55.4141C1694.89 54.8047 1696.11 54.1133 1697.59 53.3398C1699.06 52.543 1700.59 51.8633 1702.16 51.3008C1703.75 50.7148 1705.18 50.4219 1706.45 50.4219C1708.98 50.4219 1710.91 51.0078 1712.25 52.1797C1713.58 53.3281 1714.5 54.7578 1714.99 56.4688C1715.48 58.1562 1715.73 59.8203 1715.73 61.4609V81.3945C1715.73 81.8398 1715.87 82.2031 1716.15 82.4844C1716.45 82.7656 1716.82 82.9297 1717.24 82.9766L1720.72 83.1875V86ZM1755.17 82.4141C1753.16 83.6562 1750.98 84.7109 1748.63 85.5781C1746.31 86.4453 1743.93 86.8789 1741.5 86.8789C1738.59 86.8789 1735.86 86.2344 1733.3 84.9453C1730.77 83.6328 1728.72 81.6523 1727.15 79.0039C1725.58 76.3555 1724.8 73.0273 1724.8 69.0195C1724.8 65.2695 1725.52 62 1726.98 59.2109C1728.43 56.4219 1730.43 54.2656 1732.99 52.7422C1735.54 51.1953 1738.45 50.4219 1741.71 50.4219C1746.18 50.4219 1749.55 51.8164 1751.8 54.6055C1754.05 57.3711 1755.17 60.8984 1755.17 65.1875C1755.17 65.4219 1755.17 65.7383 1755.17 66.1367C1755.17 66.5117 1755.15 66.8633 1755.1 67.1914H1731.76C1731.76 69.0195 1731.95 70.8477 1732.32 72.6758C1732.72 74.4805 1733.38 76.1211 1734.29 77.5977C1735.2 79.0742 1736.43 80.2578 1737.98 81.1484C1739.53 82.0391 1741.46 82.4844 1743.78 82.4844C1745.84 82.4844 1747.85 82.0156 1749.79 81.0781C1751.76 80.1172 1753.55 79.0977 1755.17 78.0195V82.4141ZM1747.96 63.957V62.375C1747.96 60.0078 1747.39 58.0156 1746.24 56.3984C1745.12 54.7812 1743.36 53.9727 1740.97 53.9727C1738.6 53.9727 1736.59 54.8633 1734.92 56.6445C1733.26 58.4258 1732.33 60.8633 1732.14 63.957H1747.96ZM1782.77 60.582H1779.01L1778.45 55.5547C1777.93 55.1562 1777.17 54.7812 1776.16 54.4297C1775.15 54.0781 1774.09 53.9023 1772.96 53.9023C1770.99 53.9023 1769.53 54.3594 1768.57 55.2734C1767.61 56.1641 1767.12 57.3125 1767.12 58.7188C1767.12 59.7969 1767.37 60.7109 1767.86 61.4609C1768.36 62.2109 1769.19 62.9492 1770.36 63.6758C1771.53 64.3789 1773.12 65.1992 1775.14 66.1367C1777.65 67.2852 1779.72 68.5625 1781.36 69.9688C1783 71.3516 1783.82 73.2148 1783.82 75.5586C1783.82 79.0977 1782.61 81.875 1780.17 83.8906C1777.73 85.8828 1774.37 86.8789 1770.08 86.8789C1767.88 86.8789 1765.84 86.6445 1763.96 86.1758C1762.11 85.7305 1760.82 85.3555 1760.09 85.0508V75.4883H1763.75L1764.63 81.6055C1765.36 82.0742 1766.25 82.5312 1767.3 82.9766C1768.38 83.3984 1769.62 83.6094 1771.03 83.6094C1773.09 83.6094 1774.68 83.0352 1775.81 81.8867C1776.93 80.7383 1777.5 79.4492 1777.5 78.0195C1777.5 76.1445 1776.72 74.6797 1775.18 73.625C1773.65 72.5469 1771.5 71.3398 1768.71 70.0039C1766.08 68.7383 1764.07 67.4375 1762.66 66.1016C1761.28 64.7656 1760.59 63.0195 1760.59 60.8633C1760.59 57.6523 1761.71 55.1094 1763.96 53.2344C1766.21 51.3594 1769.41 50.4219 1773.56 50.4219C1775.67 50.4219 1777.54 50.6211 1779.18 51.0195C1780.85 51.3945 1782.04 51.7461 1782.77 52.0742V60.582ZM1844.12 68.7031C1844.12 72.1016 1843.41 75.1836 1842.01 77.9492C1840.6 80.6914 1838.61 82.8711 1836.03 84.4883C1833.48 86.082 1830.44 86.8789 1826.93 86.8789C1823.43 86.8789 1820.41 86.082 1817.86 84.4883C1815.3 82.8945 1813.33 80.7266 1811.95 77.9844C1810.57 75.2422 1809.88 72.1484 1809.88 68.7031C1809.88 65.2812 1810.57 62.1875 1811.95 59.4219C1813.36 56.6562 1815.35 54.4648 1817.93 52.8477C1820.53 51.2305 1823.6 50.4219 1827.14 50.4219C1830.72 50.4219 1833.78 51.2422 1836.31 52.8828C1838.84 54.5234 1840.78 56.7266 1842.11 59.4922C1843.45 62.2578 1844.12 65.3281 1844.12 68.7031ZM1836.63 68.6328C1836.63 66.0078 1836.28 63.5586 1835.57 61.2852C1834.89 59.0117 1833.84 57.1719 1832.41 55.7656C1831 54.3594 1829.22 53.6562 1827.07 53.6562C1824.84 53.6562 1823.01 54.3594 1821.58 55.7656C1820.18 57.1719 1819.13 59.0117 1818.45 61.2852C1817.77 63.5586 1817.43 66.0078 1817.43 68.6328C1817.43 71.2344 1817.77 73.6836 1818.45 75.9805C1819.16 78.2539 1820.21 80.0938 1821.62 81.5C1823.05 82.9062 1824.84 83.6094 1827 83.6094C1829.2 83.6094 1831 82.9062 1832.41 81.5C1833.84 80.0938 1834.89 78.2539 1835.57 75.9805C1836.28 73.707 1836.63 71.2578 1836.63 68.6328ZM1885.95 86H1870.06V83.1875L1873.09 82.9766C1873.51 82.9297 1873.86 82.7656 1874.14 82.4844C1874.45 82.2031 1874.6 81.8398 1874.6 81.3945V62.6562C1874.6 60.3828 1874.07 58.6602 1873.02 57.4883C1871.96 56.293 1870.18 55.6953 1867.67 55.6953C1866.31 55.6953 1864.95 55.8945 1863.59 56.293C1862.26 56.668 1860.98 57.1602 1859.76 57.7695V81.3945C1859.76 82.3789 1860.27 82.9062 1861.27 82.9766L1864.3 83.1875V86H1848.02V83.1875L1851.54 82.9766C1852.54 82.9062 1853.05 82.3789 1853.05 81.3945V56.3984H1848.02V54.043L1856.81 51.3008H1859.76V54.8867C1861.78 53.7383 1863.84 52.707 1865.95 51.793C1868.08 50.8789 1869.98 50.4219 1871.64 50.4219C1874.79 50.4219 1877.18 51.4062 1878.82 53.375C1880.46 55.3203 1881.28 58.0391 1881.28 61.5312V81.3945C1881.28 81.8398 1881.42 82.2031 1881.7 82.4844C1882 82.7656 1882.37 82.9297 1882.79 82.9766L1885.95 83.1875V86ZM1903.99 41.2109C1903.99 41.3984 1903.92 42.3008 1903.78 43.918C1903.66 45.5117 1903.5 47.5156 1903.29 49.9297C1903.1 52.3438 1902.9 54.875 1902.69 57.5234C1902.48 60.1719 1902.27 62.668 1902.05 65.0117C1901.87 67.3555 1901.7 69.2656 1901.56 70.7422C1901.45 72.2188 1901.39 72.957 1901.39 72.957H1897.87C1897.87 72.957 1897.8 72.2188 1897.66 70.7422C1897.54 69.2656 1897.38 67.3555 1897.17 65.0117C1896.98 62.668 1896.77 60.1719 1896.54 57.5234C1896.3 54.875 1896.08 52.3438 1895.87 49.9297C1895.68 47.5156 1895.52 45.5117 1895.38 43.918C1895.26 42.3008 1895.2 41.3984 1895.2 41.2109C1895.2 39.7578 1895.55 38.6211 1896.25 37.8008C1896.98 36.957 1898.09 36.5352 1899.59 36.5352C1901.12 36.5352 1902.23 36.957 1902.93 37.8008C1903.64 38.6211 1903.99 39.7578 1903.99 41.2109ZM1904.06 82.4141C1904.06 83.5859 1903.62 84.6289 1902.76 85.543C1901.89 86.4336 1900.84 86.8789 1899.59 86.8789C1898.38 86.8789 1897.33 86.4336 1896.46 85.543C1895.62 84.6289 1895.2 83.5859 1895.2 82.4141C1895.2 81.1719 1895.62 80.1289 1896.46 79.2852C1897.33 78.4414 1898.38 78.0195 1899.59 78.0195C1900.84 78.0195 1901.89 78.4414 1902.76 79.2852C1903.62 80.1289 1904.06 81.1719 1904.06 82.4141Z" fill="black"/>
<path d="M759.047 846.938C759.047 848.578 758.68 849.977 757.945 851.133C757.227 852.289 756.258 853.25 755.039 854.016C753.836 854.766 752.5 855.383 751.031 855.867C753.125 856.148 754.82 856.758 756.117 857.695C757.43 858.633 758.086 860.148 758.086 862.242C758.086 864.867 757.461 866.969 756.211 868.547C754.977 870.109 753.289 871.242 751.148 871.945C749.008 872.648 746.594 873 743.906 873H730.758V870.984L733.781 870.75C734.266 870.703 734.57 870.398 734.695 869.836L739.688 844.008C739.734 843.742 739.695 843.523 739.57 843.352C739.445 843.18 739.164 843.078 738.727 843.047L736.055 842.812V840.797H749.531C753.016 840.797 755.469 841.359 756.891 842.484C758.328 843.594 759.047 845.078 759.047 846.938ZM753.703 847.266C753.703 845.75 753.125 844.641 751.969 843.938C750.828 843.219 749.234 842.859 747.188 842.859C746.688 842.859 746.219 842.875 745.781 842.906C745.344 842.938 744.992 842.969 744.727 843L742.383 855.188C742.742 855.203 743.156 855.227 743.625 855.258C744.094 855.273 744.43 855.281 744.633 855.281C746.633 855.281 748.305 854.914 749.648 854.18C750.992 853.445 752 852.477 752.672 851.273C753.359 850.055 753.703 848.719 753.703 847.266ZM752.836 862.734C752.836 860.766 752.18 859.383 750.867 858.586C749.555 857.789 747.766 857.391 745.5 857.391C744.203 857.391 743 857.477 741.891 857.648L739.359 870.703C739.75 870.734 740.242 870.766 740.836 870.797C741.43 870.828 741.93 870.844 742.336 870.844C745.773 870.844 748.383 870.133 750.164 868.711C751.945 867.273 752.836 865.281 752.836 862.734ZM780.656 854.133C780.656 855.445 780.219 856.602 779.344 857.602C778.484 858.586 777.359 859.43 775.969 860.133C774.594 860.82 773.117 861.359 771.539 861.75C769.961 862.125 768.453 862.352 767.016 862.43C766.969 862.742 766.922 863.117 766.875 863.555C766.844 863.992 766.828 864.359 766.828 864.656C766.828 866.406 767.242 867.852 768.07 868.992C768.898 870.133 770.008 870.703 771.398 870.703C772.477 870.703 773.664 870.312 774.961 869.531C776.273 868.734 777.805 867.57 779.555 866.039V869.062C778.961 869.641 778.18 870.281 777.211 870.984C776.242 871.688 775.133 872.297 773.883 872.812C772.633 873.328 771.273 873.586 769.805 873.586C769.07 873.586 768.266 873.469 767.391 873.234C766.516 873 765.68 872.57 764.883 871.945C764.102 871.32 763.453 870.438 762.938 869.297C762.438 868.156 762.188 866.672 762.188 864.844C762.188 862.938 762.516 861.07 763.172 859.242C763.844 857.398 764.766 855.734 765.938 854.25C767.109 852.75 768.453 851.555 769.969 850.664C771.5 849.773 773.125 849.328 774.844 849.328C776.328 849.328 777.492 849.633 778.336 850.242C779.18 850.852 779.773 851.539 780.117 852.305C780.477 853.055 780.656 853.664 780.656 854.133ZM776.391 854.086C776.391 853.461 776.156 852.883 775.688 852.352C775.219 851.82 774.586 851.555 773.789 851.555C772.992 851.555 772.242 851.852 771.539 852.445C770.852 853.023 770.219 853.781 769.641 854.719C769.062 855.656 768.57 856.648 768.164 857.695C767.758 858.727 767.445 859.703 767.227 860.625C768.242 860.531 769.281 860.297 770.344 859.922C771.422 859.547 772.414 859.07 773.32 858.492C774.242 857.898 774.984 857.227 775.547 856.477C776.109 855.727 776.391 854.93 776.391 854.086ZM798.258 852.891H791.203L788.18 867.961C788.008 868.805 788.219 869.469 788.812 869.953C789.422 870.422 790.133 870.656 790.945 870.656C791.867 870.656 792.805 870.508 793.758 870.211C794.711 869.898 795.438 869.656 795.938 869.484V871.406C795.672 871.516 795.086 871.75 794.18 872.109C793.289 872.469 792.289 872.805 791.18 873.117C790.07 873.43 789.055 873.586 788.133 873.586C786.398 873.586 785.211 873.195 784.57 872.414C783.93 871.617 783.609 870.625 783.609 869.438C783.609 869.125 783.625 868.805 783.656 868.477C783.688 868.148 783.734 867.812 783.797 867.469L786.727 852.891L783.703 853.172V851.602L787.312 850.008L789.656 845.203H792.586L791.625 850.688H798.258V852.891ZM812.648 852.891H805.594L802.57 867.961C802.398 868.805 802.609 869.469 803.203 869.953C803.812 870.422 804.523 870.656 805.336 870.656C806.258 870.656 807.195 870.508 808.148 870.211C809.102 869.898 809.828 869.656 810.328 869.484V871.406C810.062 871.516 809.477 871.75 808.57 872.109C807.68 872.469 806.68 872.805 805.57 873.117C804.461 873.43 803.445 873.586 802.523 873.586C800.789 873.586 799.602 873.195 798.961 872.414C798.32 871.617 798 870.625 798 869.438C798 869.125 798.016 868.805 798.047 868.477C798.078 868.148 798.125 867.812 798.188 867.469L801.117 852.891L798.094 853.172V851.602L801.703 850.008L804.047 845.203H806.977L806.016 850.688H812.648V852.891ZM830.297 854.133C830.297 855.445 829.859 856.602 828.984 857.602C828.125 858.586 827 859.43 825.609 860.133C824.234 860.82 822.758 861.359 821.18 861.75C819.602 862.125 818.094 862.352 816.656 862.43C816.609 862.742 816.562 863.117 816.516 863.555C816.484 863.992 816.469 864.359 816.469 864.656C816.469 866.406 816.883 867.852 817.711 868.992C818.539 870.133 819.648 870.703 821.039 870.703C822.117 870.703 823.305 870.312 824.602 869.531C825.914 868.734 827.445 867.57 829.195 866.039V869.062C828.602 869.641 827.82 870.281 826.852 870.984C825.883 871.688 824.773 872.297 823.523 872.812C822.273 873.328 820.914 873.586 819.445 873.586C818.711 873.586 817.906 873.469 817.031 873.234C816.156 873 815.32 872.57 814.523 871.945C813.742 871.32 813.094 870.438 812.578 869.297C812.078 868.156 811.828 866.672 811.828 864.844C811.828 862.938 812.156 861.07 812.812 859.242C813.484 857.398 814.406 855.734 815.578 854.25C816.75 852.75 818.094 851.555 819.609 850.664C821.141 849.773 822.766 849.328 824.484 849.328C825.969 849.328 827.133 849.633 827.977 850.242C828.82 850.852 829.414 851.539 829.758 852.305C830.117 853.055 830.297 853.664 830.297 854.133ZM826.031 854.086C826.031 853.461 825.797 852.883 825.328 852.352C824.859 851.82 824.227 851.555 823.43 851.555C822.633 851.555 821.883 851.852 821.18 852.445C820.492 853.023 819.859 853.781 819.281 854.719C818.703 855.656 818.211 856.648 817.805 857.695C817.398 858.727 817.086 859.703 816.867 860.625C817.883 860.531 818.922 860.297 819.984 859.922C821.062 859.547 822.055 859.07 822.961 858.492C823.883 857.898 824.625 857.227 825.188 856.477C825.75 855.727 826.031 854.93 826.031 854.086ZM850.781 852.516C850.781 853.641 850.391 854.344 849.609 854.625C848.828 854.906 847.789 855.047 846.492 855.047L845.344 852.75C844.766 853 844.133 853.43 843.445 854.039C842.773 854.648 842.125 855.359 841.5 856.172C840.891 856.969 840.359 857.781 839.906 858.609C839.453 859.438 839.156 860.203 839.016 860.906L836.508 873H832.055L836.18 852.609L832.148 852.164V850.781L839.391 849.281H841.312L840.305 854.133C841.289 852.617 842.406 851.43 843.656 850.57C844.922 849.711 846.273 849.281 847.711 849.281C848.477 849.281 849.078 849.461 849.516 849.82C849.969 850.18 850.289 850.609 850.477 851.109C850.68 851.609 850.781 852.078 850.781 852.516ZM888.305 851.695L885.914 853.172C885.664 853.406 885.281 853.914 884.766 854.695C884.25 855.461 883.727 856.297 883.195 857.203C882.68 858.109 882.273 858.898 881.977 859.57C881.523 860.586 880.961 861.875 880.289 863.438C879.633 865 878.875 866.688 878.016 868.5C877.172 870.297 876.234 872.055 875.203 873.773C874.219 875.461 873.133 877.086 871.945 878.648C870.758 880.211 869.484 881.492 868.125 882.492C866.766 883.492 865.32 883.992 863.789 883.992C862.617 883.992 861.711 883.812 861.07 883.453C860.414 883.094 859.961 882.664 859.711 882.164C859.445 881.664 859.312 881.219 859.312 880.828C859.312 880.094 859.625 879.445 860.25 878.883C860.875 878.336 861.664 878.039 862.617 877.992L865.406 880.781C866.422 880.688 867.43 879.961 868.43 878.602C869.43 877.242 870.742 875.086 872.367 872.133C872.32 871.867 872.195 871.227 871.992 870.211C871.805 869.18 871.57 867.938 871.289 866.484C871.008 865.031 870.695 863.539 870.352 862.008C870.023 860.492 869.672 859.008 869.297 857.555C868.922 856.086 868.586 854.867 868.289 853.898C867.992 852.93 867.766 852.445 867.609 852.445L863.25 852.117V850.922C863.469 850.844 863.844 850.719 864.375 850.547C864.906 850.375 865.492 850.195 866.133 850.008C866.773 849.805 867.359 849.633 867.891 849.492C868.422 849.352 868.797 849.281 869.016 849.281C870.047 849.281 870.844 849.75 871.406 850.688C871.984 851.625 872.516 852.883 873 854.461C873.406 855.883 873.828 857.648 874.266 859.758C874.703 861.867 875.156 864.203 875.625 866.766L882.938 849.281H884.32L888.305 850.594V851.695ZM907.031 854.133C907.031 855.445 906.594 856.602 905.719 857.602C904.859 858.586 903.734 859.43 902.344 860.133C900.969 860.82 899.492 861.359 897.914 861.75C896.336 862.125 894.828 862.352 893.391 862.43C893.344 862.742 893.297 863.117 893.25 863.555C893.219 863.992 893.203 864.359 893.203 864.656C893.203 866.406 893.617 867.852 894.445 868.992C895.273 870.133 896.383 870.703 897.773 870.703C898.852 870.703 900.039 870.312 901.336 869.531C902.648 868.734 904.18 867.57 905.93 866.039V869.062C905.336 869.641 904.555 870.281 903.586 870.984C902.617 871.688 901.508 872.297 900.258 872.812C899.008 873.328 897.648 873.586 896.18 873.586C895.445 873.586 894.641 873.469 893.766 873.234C892.891 873 892.055 872.57 891.258 871.945C890.477 871.32 889.828 870.438 889.312 869.297C888.812 868.156 888.562 866.672 888.562 864.844C888.562 862.938 888.891 861.07 889.547 859.242C890.219 857.398 891.141 855.734 892.312 854.25C893.484 852.75 894.828 851.555 896.344 850.664C897.875 849.773 899.5 849.328 901.219 849.328C902.703 849.328 903.867 849.633 904.711 850.242C905.555 850.852 906.148 851.539 906.492 852.305C906.852 853.055 907.031 853.664 907.031 854.133ZM902.766 854.086C902.766 853.461 902.531 852.883 902.062 852.352C901.594 851.82 900.961 851.555 900.164 851.555C899.367 851.555 898.617 851.852 897.914 852.445C897.227 853.023 896.594 853.781 896.016 854.719C895.438 855.656 894.945 856.648 894.539 857.695C894.133 858.727 893.82 859.703 893.602 860.625C894.617 860.531 895.656 860.297 896.719 859.922C897.797 859.547 898.789 859.07 899.695 858.492C900.617 857.898 901.359 857.227 901.922 856.477C902.484 855.727 902.766 854.93 902.766 854.086ZM924.633 852.891H917.578L914.555 867.961C914.383 868.805 914.594 869.469 915.188 869.953C915.797 870.422 916.508 870.656 917.32 870.656C918.242 870.656 919.18 870.508 920.133 870.211C921.086 869.898 921.812 869.656 922.312 869.484V871.406C922.047 871.516 921.461 871.75 920.555 872.109C919.664 872.469 918.664 872.805 917.555 873.117C916.445 873.43 915.43 873.586 914.508 873.586C912.773 873.586 911.586 873.195 910.945 872.414C910.305 871.617 909.984 870.625 909.984 869.438C909.984 869.125 910 868.805 910.031 868.477C910.062 868.148 910.109 867.812 910.172 867.469L913.102 852.891L910.078 853.172V851.602L913.688 850.008L916.031 845.203H918.961L918 850.688H924.633V852.891ZM929.906 870.75C929.906 872.547 929.414 874.203 928.43 875.719C927.445 877.25 926.164 878.5 924.586 879.469C923.023 880.438 921.367 881 919.617 881.156L919.969 879.422C921.938 879 923.445 878.258 924.492 877.195C925.539 876.148 926.234 874.641 926.578 872.672H923.555C923.242 872.25 923.086 871.734 923.086 871.125C923.086 870.484 923.258 869.859 923.602 869.25C923.945 868.641 924.398 868.141 924.961 867.75C925.523 867.344 926.133 867.141 926.789 867.141C927.914 867.141 928.711 867.484 929.18 868.172C929.664 868.859 929.906 869.719 929.906 870.75ZM973.055 852.797H968.648C968.789 853.156 968.922 853.625 969.047 854.203C969.188 854.766 969.258 855.367 969.258 856.008C969.258 858.039 968.773 859.734 967.805 861.094C966.852 862.453 965.586 863.477 964.008 864.164C962.43 864.836 960.711 865.172 958.852 865.172C958.648 865.656 958.492 866.195 958.383 866.789C958.273 867.367 958.258 867.789 958.336 868.055L964.758 870.984C966.227 871.656 967.406 872.352 968.297 873.07C969.203 873.805 969.656 874.867 969.656 876.258C969.656 877.289 969.312 878.266 968.625 879.188C967.953 880.125 967.031 880.953 965.859 881.672C964.703 882.391 963.406 882.953 961.969 883.359C960.531 883.781 959.047 883.992 957.516 883.992C955.422 883.992 953.688 883.656 952.312 882.984C950.953 882.328 949.945 881.469 949.289 880.406C948.633 879.344 948.305 878.203 948.305 876.984C948.305 875.359 948.93 873.992 950.18 872.883C951.43 871.773 952.93 870.93 954.68 870.352C954.586 869.852 954.609 869.25 954.75 868.547C954.891 867.828 955.117 867.125 955.43 866.438C955.742 865.734 956.117 865.172 956.555 864.75C955.273 864.203 954.203 863.461 953.344 862.523C952.5 861.57 952.078 860.328 952.078 858.797C952.078 857.234 952.461 855.727 953.227 854.273C954.008 852.82 955.117 851.625 956.555 850.688C958.008 849.75 959.75 849.281 961.781 849.281C962.938 849.281 963.945 849.453 964.805 849.797C965.664 850.125 966.242 850.375 966.539 850.547H973.055V852.797ZM964.664 855.773C964.664 854.586 964.438 853.547 963.984 852.656C963.547 851.75 962.844 851.297 961.875 851.297C961.109 851.297 960.328 851.664 959.531 852.398C958.734 853.117 958.062 854.094 957.516 855.328C956.969 856.547 956.695 857.906 956.695 859.406C956.695 860.562 956.938 861.516 957.422 862.266C957.922 863.016 958.594 863.391 959.438 863.391C960.234 863.391 960.953 863.141 961.594 862.641C962.25 862.141 962.805 861.5 963.258 860.719C963.711 859.938 964.055 859.109 964.289 858.234C964.539 857.344 964.664 856.523 964.664 855.773ZM965.18 877.219C965.18 876.641 965.008 876.109 964.664 875.625C964.32 875.141 963.68 874.68 962.742 874.242L956.742 871.523C955.211 871.898 954.172 872.523 953.625 873.398C953.078 874.273 952.805 875.195 952.805 876.164C952.805 876.898 953.016 877.703 953.438 878.578C953.875 879.453 954.531 880.203 955.406 880.828C956.281 881.469 957.398 881.789 958.758 881.789C960.305 881.789 961.547 881.516 962.484 880.969C963.422 880.438 964.102 879.812 964.523 879.094C964.961 878.375 965.18 877.75 965.18 877.219ZM990.938 854.133C990.938 855.445 990.5 856.602 989.625 857.602C988.766 858.586 987.641 859.43 986.25 860.133C984.875 860.82 983.398 861.359 981.82 861.75C980.242 862.125 978.734 862.352 977.297 862.43C977.25 862.742 977.203 863.117 977.156 863.555C977.125 863.992 977.109 864.359 977.109 864.656C977.109 866.406 977.523 867.852 978.352 868.992C979.18 870.133 980.289 870.703 981.68 870.703C982.758 870.703 983.945 870.312 985.242 869.531C986.555 868.734 988.086 867.57 989.836 866.039V869.062C989.242 869.641 988.461 870.281 987.492 870.984C986.523 871.688 985.414 872.297 984.164 872.812C982.914 873.328 981.555 873.586 980.086 873.586C979.352 873.586 978.547 873.469 977.672 873.234C976.797 873 975.961 872.57 975.164 871.945C974.383 871.32 973.734 870.438 973.219 869.297C972.719 868.156 972.469 866.672 972.469 864.844C972.469 862.938 972.797 861.07 973.453 859.242C974.125 857.398 975.047 855.734 976.219 854.25C977.391 852.75 978.734 851.555 980.25 850.664C981.781 849.773 983.406 849.328 985.125 849.328C986.609 849.328 987.773 849.633 988.617 850.242C989.461 850.852 990.055 851.539 990.398 852.305C990.758 853.055 990.938 853.664 990.938 854.133ZM986.672 854.086C986.672 853.461 986.438 852.883 985.969 852.352C985.5 851.82 984.867 851.555 984.07 851.555C983.273 851.555 982.523 851.852 981.82 852.445C981.133 853.023 980.5 853.781 979.922 854.719C979.344 855.656 978.852 856.648 978.445 857.695C978.039 858.727 977.727 859.703 977.508 860.625C978.523 860.531 979.562 860.297 980.625 859.922C981.703 859.547 982.695 859.07 983.602 858.492C984.523 857.898 985.266 857.227 985.828 856.477C986.391 855.727 986.672 854.93 986.672 854.086ZM1008.54 852.891H1001.48L998.461 867.961C998.289 868.805 998.5 869.469 999.094 869.953C999.703 870.422 1000.41 870.656 1001.23 870.656C1002.15 870.656 1003.09 870.508 1004.04 870.211C1004.99 869.898 1005.72 869.656 1006.22 869.484V871.406C1005.95 871.516 1005.37 871.75 1004.46 872.109C1003.57 872.469 1002.57 872.805 1001.46 873.117C1000.35 873.43 999.336 873.586 998.414 873.586C996.68 873.586 995.492 873.195 994.852 872.414C994.211 871.617 993.891 870.625 993.891 869.438C993.891 869.125 993.906 868.805 993.938 868.477C993.969 868.148 994.016 867.812 994.078 867.469L997.008 852.891L993.984 853.172V851.602L997.594 850.008L999.938 845.203H1002.87L1001.91 850.688H1008.54V852.891ZM1045.1 871.711C1044.85 871.82 1044.34 872.031 1043.58 872.344C1042.81 872.641 1041.99 872.922 1041.12 873.188C1040.24 873.453 1039.49 873.586 1038.87 873.586C1037.71 873.586 1036.89 873.305 1036.41 872.742C1035.94 872.164 1035.65 871.352 1035.54 870.305C1034.82 870.977 1033.86 871.695 1032.66 872.461C1031.47 873.211 1030.16 873.586 1028.72 873.586C1027.31 873.586 1026.16 873.305 1025.25 872.742C1024.34 872.18 1023.63 871.461 1023.12 870.586C1022.62 869.695 1022.27 868.758 1022.06 867.773C1021.88 866.773 1021.78 865.844 1021.78 864.984C1021.78 863.125 1022.08 861.273 1022.67 859.43C1023.27 857.57 1024.15 855.875 1025.32 854.344C1026.49 852.812 1027.93 851.586 1029.63 850.664C1031.35 849.742 1033.34 849.281 1035.59 849.281C1036.48 849.281 1037.31 849.461 1038.09 849.82C1038.88 850.18 1039.48 850.578 1039.92 851.016L1040.62 849.867H1043.91C1043.75 850.227 1043.57 850.711 1043.37 851.32C1043.16 851.93 1043.04 852.359 1042.99 852.609C1042.85 853.109 1042.66 853.906 1042.41 855C1042.16 856.094 1041.88 857.328 1041.59 858.703C1041.3 860.062 1041.03 861.414 1040.77 862.758C1040.52 864.102 1040.3 865.297 1040.13 866.344C1039.96 867.391 1039.88 868.125 1039.88 868.547C1039.88 869.375 1040.05 869.953 1040.41 870.281C1040.77 870.594 1041.28 870.75 1041.94 870.75C1042.16 870.75 1042.48 870.695 1042.92 870.586C1043.36 870.461 1043.79 870.336 1044.21 870.211C1044.65 870.086 1044.95 870.008 1045.1 869.977V871.711ZM1038.05 854.18C1038.06 854.07 1037.96 853.805 1037.74 853.383C1037.52 852.961 1037.27 852.562 1036.99 852.188C1036.71 851.797 1036.47 851.602 1036.27 851.602C1034.44 851.602 1032.9 852.031 1031.65 852.891C1030.4 853.734 1029.4 854.828 1028.65 856.172C1027.9 857.516 1027.35 858.945 1027.01 860.461C1026.68 861.961 1026.52 863.375 1026.52 864.703C1026.52 865.594 1026.62 866.477 1026.82 867.352C1027.02 868.227 1027.39 868.953 1027.92 869.531C1028.47 870.109 1029.23 870.398 1030.22 870.398C1030.97 870.398 1031.71 870.203 1032.45 869.812C1033.18 869.406 1033.82 868.961 1034.37 868.477C1034.93 867.992 1035.32 867.641 1035.54 867.422L1038.05 854.18ZM1057.9 871.758C1057.65 871.867 1057.13 872.07 1056.35 872.367C1055.57 872.664 1054.7 872.938 1053.75 873.188C1052.81 873.453 1051.97 873.586 1051.22 873.586C1049.75 873.586 1048.7 873.258 1048.08 872.602C1047.45 871.945 1047.14 871.102 1047.14 870.07C1047.14 869.836 1047.15 869.578 1047.16 869.297C1047.18 869 1047.22 868.695 1047.28 868.383L1052.55 840.938L1048.29 840.516V839.062L1055.79 837.633H1057.64L1051.8 868.242C1051.77 868.414 1051.76 868.625 1051.76 868.875C1051.76 869.344 1051.98 869.797 1052.41 870.234C1052.87 870.672 1053.4 870.891 1054.01 870.891C1054.32 870.891 1054.75 870.828 1055.3 870.703C1055.84 870.562 1056.37 870.414 1056.87 870.258C1057.38 870.102 1057.73 869.992 1057.9 869.93V871.758ZM1070.65 871.758C1070.4 871.867 1069.88 872.07 1069.1 872.367C1068.32 872.664 1067.45 872.938 1066.5 873.188C1065.56 873.453 1064.72 873.586 1063.97 873.586C1062.5 873.586 1061.45 873.258 1060.83 872.602C1060.2 871.945 1059.89 871.102 1059.89 870.07C1059.89 869.836 1059.9 869.578 1059.91 869.297C1059.93 869 1059.97 868.695 1060.03 868.383L1065.3 840.938L1061.04 840.516V839.062L1068.54 837.633H1070.39L1064.55 868.242C1064.52 868.414 1064.51 868.625 1064.51 868.875C1064.51 869.344 1064.73 869.797 1065.16 870.234C1065.62 870.672 1066.15 870.891 1066.76 870.891C1067.07 870.891 1067.5 870.828 1068.05 870.703C1068.59 870.562 1069.12 870.414 1069.62 870.258C1070.13 870.102 1070.48 869.992 1070.65 869.93V871.758ZM1101.59 852.891H1094.53L1091.51 867.961C1091.34 868.805 1091.55 869.469 1092.14 869.953C1092.75 870.422 1093.46 870.656 1094.27 870.656C1095.2 870.656 1096.13 870.508 1097.09 870.211C1098.04 869.898 1098.77 869.656 1099.27 869.484V871.406C1099 871.516 1098.41 871.75 1097.51 872.109C1096.62 872.469 1095.62 872.805 1094.51 873.117C1093.4 873.43 1092.38 873.586 1091.46 873.586C1089.73 873.586 1088.54 873.195 1087.9 872.414C1087.26 871.617 1086.94 870.625 1086.94 869.438C1086.94 869.125 1086.95 868.805 1086.98 868.477C1087.02 868.148 1087.06 867.812 1087.12 867.469L1090.05 852.891L1087.03 853.172V851.602L1090.64 850.008L1092.98 845.203H1095.91L1094.95 850.688H1101.59V852.891ZM1124.27 871.805C1124.01 871.898 1123.48 872.094 1122.7 872.391C1121.94 872.672 1121.1 872.938 1120.2 873.188C1119.3 873.453 1118.52 873.586 1117.85 873.586C1117.46 873.586 1116.95 873.5 1116.33 873.328C1115.7 873.172 1115.17 872.867 1114.73 872.414C1114.3 871.961 1114.16 871.305 1114.34 870.445L1117.27 856.289C1117.45 855.445 1117.39 854.742 1117.08 854.18C1116.77 853.602 1116.37 853.172 1115.88 852.891C1115.4 852.594 1114.98 852.445 1114.62 852.445C1113.85 852.445 1112.82 852.797 1111.52 853.5C1110.24 854.188 1109.07 855.086 1108.01 856.195L1104.49 873H1100.09L1106.7 840.938L1102.43 840.516V839.062L1109.93 837.633H1111.85L1108.62 853.125C1109.6 852.047 1110.88 851.141 1112.46 850.406C1114.05 849.656 1115.66 849.281 1117.27 849.281C1119.03 849.281 1120.34 849.82 1121.2 850.898C1122.08 851.977 1122.29 853.602 1121.84 855.773L1119.19 868.688C1119.06 869.297 1119.13 869.773 1119.4 870.117C1119.66 870.445 1119.98 870.68 1120.36 870.82C1120.73 870.961 1121.02 871.031 1121.2 871.031C1121.64 871.031 1122.12 870.922 1122.63 870.703C1123.15 870.469 1123.68 870.273 1124.23 870.117L1124.27 871.805ZM1144.03 852.516C1144.03 853.641 1143.64 854.344 1142.86 854.625C1142.08 854.906 1141.04 855.047 1139.74 855.047L1138.59 852.75C1138.02 853 1137.38 853.43 1136.7 854.039C1136.02 854.648 1135.38 855.359 1134.75 856.172C1134.14 856.969 1133.61 857.781 1133.16 858.609C1132.7 859.438 1132.41 860.203 1132.27 860.906L1129.76 873H1125.3L1129.43 852.609L1125.4 852.164V850.781L1132.64 849.281H1134.56L1133.55 854.133C1134.54 852.617 1135.66 851.43 1136.91 850.57C1138.17 849.711 1139.52 849.281 1140.96 849.281C1141.73 849.281 1142.33 849.461 1142.77 849.82C1143.22 850.18 1143.54 850.609 1143.73 851.109C1143.93 851.609 1144.03 852.078 1144.03 852.516ZM1162.36 854.133C1162.36 855.445 1161.92 856.602 1161.05 857.602C1160.19 858.586 1159.06 859.43 1157.67 860.133C1156.3 860.82 1154.82 861.359 1153.24 861.75C1151.66 862.125 1150.16 862.352 1148.72 862.43C1148.67 862.742 1148.62 863.117 1148.58 863.555C1148.55 863.992 1148.53 864.359 1148.53 864.656C1148.53 866.406 1148.95 867.852 1149.77 868.992C1150.6 870.133 1151.71 870.703 1153.1 870.703C1154.18 870.703 1155.37 870.312 1156.66 869.531C1157.98 868.734 1159.51 867.57 1161.26 866.039V869.062C1160.66 869.641 1159.88 870.281 1158.91 870.984C1157.95 871.688 1156.84 872.297 1155.59 872.812C1154.34 873.328 1152.98 873.586 1151.51 873.586C1150.77 873.586 1149.97 873.469 1149.09 873.234C1148.22 873 1147.38 872.57 1146.59 871.945C1145.8 871.32 1145.16 870.438 1144.64 869.297C1144.14 868.156 1143.89 866.672 1143.89 864.844C1143.89 862.938 1144.22 861.07 1144.88 859.242C1145.55 857.398 1146.47 855.734 1147.64 854.25C1148.81 852.75 1150.16 851.555 1151.67 850.664C1153.2 849.773 1154.83 849.328 1156.55 849.328C1158.03 849.328 1159.2 849.633 1160.04 850.242C1160.88 850.852 1161.48 851.539 1161.82 852.305C1162.18 853.055 1162.36 853.664 1162.36 854.133ZM1158.09 854.086C1158.09 853.461 1157.86 852.883 1157.39 852.352C1156.92 851.82 1156.29 851.555 1155.49 851.555C1154.7 851.555 1153.95 851.852 1153.24 852.445C1152.55 853.023 1151.92 853.781 1151.34 854.719C1150.77 855.656 1150.27 856.648 1149.87 857.695C1149.46 858.727 1149.15 859.703 1148.93 860.625C1149.95 860.531 1150.98 860.297 1152.05 859.922C1153.12 859.547 1154.12 859.07 1155.02 858.492C1155.95 857.898 1156.69 857.227 1157.25 856.477C1157.81 855.727 1158.09 854.93 1158.09 854.086ZM1183.22 854.133C1183.22 855.445 1182.78 856.602 1181.91 857.602C1181.05 858.586 1179.92 859.43 1178.53 860.133C1177.16 860.82 1175.68 861.359 1174.1 861.75C1172.52 862.125 1171.02 862.352 1169.58 862.43C1169.53 862.742 1169.48 863.117 1169.44 863.555C1169.41 863.992 1169.39 864.359 1169.39 864.656C1169.39 866.406 1169.8 867.852 1170.63 868.992C1171.46 870.133 1172.57 870.703 1173.96 870.703C1175.04 870.703 1176.23 870.312 1177.52 869.531C1178.84 868.734 1180.37 867.57 1182.12 866.039V869.062C1181.52 869.641 1180.74 870.281 1179.77 870.984C1178.8 871.688 1177.7 872.297 1176.45 872.812C1175.2 873.328 1173.84 873.586 1172.37 873.586C1171.63 873.586 1170.83 873.469 1169.95 873.234C1169.08 873 1168.24 872.57 1167.45 871.945C1166.66 871.32 1166.02 870.438 1165.5 869.297C1165 868.156 1164.75 866.672 1164.75 864.844C1164.75 862.938 1165.08 861.07 1165.73 859.242C1166.41 857.398 1167.33 855.734 1168.5 854.25C1169.67 852.75 1171.02 851.555 1172.53 850.664C1174.06 849.773 1175.69 849.328 1177.41 849.328C1178.89 849.328 1180.05 849.633 1180.9 850.242C1181.74 850.852 1182.34 851.539 1182.68 852.305C1183.04 853.055 1183.22 853.664 1183.22 854.133ZM1178.95 854.086C1178.95 853.461 1178.72 852.883 1178.25 852.352C1177.78 851.82 1177.15 851.555 1176.35 851.555C1175.55 851.555 1174.8 851.852 1174.1 852.445C1173.41 853.023 1172.78 853.781 1172.2 854.719C1171.62 855.656 1171.13 856.648 1170.73 857.695C1170.32 858.727 1170.01 859.703 1169.79 860.625C1170.8 860.531 1171.84 860.297 1172.91 859.922C1173.98 859.547 1174.98 859.07 1175.88 858.492C1176.8 857.898 1177.55 857.227 1178.11 856.477C1178.67 855.727 1178.95 854.93 1178.95 854.086ZM1191.35 870.352C1191.35 871.242 1191.03 872.008 1190.39 872.648C1189.75 873.273 1188.98 873.586 1188.09 873.586C1187.2 873.586 1186.45 873.273 1185.84 872.648C1185.23 872.008 1184.93 871.242 1184.93 870.352C1184.93 869.477 1185.23 868.727 1185.84 868.102C1186.45 867.461 1187.2 867.141 1188.09 867.141C1188.98 867.141 1189.75 867.461 1190.39 868.102C1191.03 868.727 1191.35 869.477 1191.35 870.352Z" fill="black"/>
<path d="M258.878 229V321.389M258.878 229C151.926 269.279 101.343 299.162 34 372.592L86.3017 446.219C149.348 385.134 187.327 358.046 258.878 321.389M258.878 229H324M574.186 229V317.756M574.186 229C701.176 260.228 704.961 298.089 801 372.592L754.547 446.219C667.601 375.827 672.816 343.847 574.186 317.756M574.186 229H494.5M574.186 317.756V597H258.878V321.389M324 229C395.782 302.003 431.618 281.023 494.5 229M324 229H494.5" stroke="black" stroke-width="4" stroke-miterlimit="16"/>
<path d="M743.456 617.028H875.519H893.523C939.534 615.155 956.905 708.587 937.501 758.423C933.25 769.341 924.42 779.144 912.733 779.977C894.737 781.26 877.095 766.311 865.274 747.088C851.311 724.381 829.197 701.627 802.54 701.627C775.884 701.627 749.702 723.217 734.481 745.1C716.035 771.62 689.607 794.791 677.475 773.934C661.691 753.513 664.255 671.155 695.632 633.147C706.892 619.509 725.771 617.028 743.456 617.028Z" stroke="black" stroke-width="6"/>
<circle cx="726.163" cy="676.461" r="23.1349" fill="white" stroke="black" stroke-width="6"/>
<path d="M731.526 678.049H724.859V684.715H723.335V678.049H716.668V676.512H723.335V669.845H724.859V676.512H731.526V678.049Z" fill="black"/>
<path d="M893.465 665.163H889.046V664.364L890.117 664.273C890.177 664.273 890.229 664.231 890.271 664.146C890.314 664.062 890.326 663.998 890.307 663.956L889.028 660.553H884.736L883.502 663.901C883.477 663.974 883.499 664.056 883.565 664.146C883.638 664.231 883.704 664.273 883.765 664.273L884.863 664.364V665.163H881.124V664.364L882.204 664.137L886.532 652.395H887.93L892.24 663.865C892.289 663.992 892.331 664.077 892.367 664.119C892.404 664.161 892.491 664.195 892.631 664.219L893.465 664.364V665.163ZM888.692 659.663L886.868 654.79L885.062 659.663H888.692Z" fill="black"/>
<path d="M883.638 691.872C883.638 692.622 883.486 693.24 883.184 693.723C882.881 694.201 882.488 694.577 882.004 694.849C881.526 695.115 881.015 695.299 880.471 695.402C879.926 695.505 879.409 695.557 878.919 695.557H873.719V694.758L874.699 694.685C874.832 694.673 874.929 694.625 874.99 694.54C875.056 694.456 875.089 694.368 875.089 694.277V684.368C875.089 684.277 875.056 684.189 874.99 684.104C874.929 684.014 874.832 683.965 874.699 683.959L873.719 683.887V683.088H878.692C880.174 683.088 881.242 683.354 881.895 683.887C882.549 684.419 882.875 685.151 882.875 686.083C882.875 686.7 882.727 687.202 882.431 687.589C882.14 687.976 881.786 688.276 881.369 688.487C880.958 688.693 880.567 688.844 880.198 688.941C880.755 688.941 881.296 689.035 881.823 689.222C882.349 689.404 882.782 689.709 883.12 690.139C883.465 690.563 883.638 691.14 883.638 691.872ZM880.87 686.21C880.87 685.484 880.631 684.924 880.153 684.531C879.681 684.138 878.967 683.941 878.011 683.941C877.818 683.941 877.609 683.95 877.385 683.968C877.161 683.986 877.016 683.996 876.95 683.996V688.696C876.95 688.696 877.034 688.699 877.204 688.705C877.379 688.711 877.518 688.714 877.621 688.714C878.831 688.714 879.675 688.497 880.153 688.061C880.631 687.625 880.87 687.008 880.87 686.21ZM881.614 692.027C881.614 691.18 881.36 690.559 880.852 690.166C880.35 689.773 879.606 689.576 878.619 689.576C878.42 689.576 878.196 689.585 877.948 689.604C877.7 689.622 877.479 689.64 877.285 689.658C877.098 689.676 876.986 689.685 876.95 689.685V694.595C876.95 694.595 877.019 694.601 877.158 694.613C877.304 694.619 877.467 694.628 877.648 694.64C877.836 694.646 877.987 694.649 878.102 694.649C879.403 694.649 880.313 694.431 880.834 693.996C881.354 693.56 881.614 692.904 881.614 692.027Z" fill="black"/>
<path d="M900.743 695.13C900.713 695.142 900.519 695.209 900.163 695.33C899.812 695.451 899.361 695.569 898.81 695.684C898.26 695.799 897.667 695.856 897.032 695.856C895.991 695.856 895.069 695.678 894.264 695.321C893.459 694.958 892.779 694.468 892.222 693.851C891.672 693.233 891.254 692.535 890.97 691.754C890.686 690.968 890.543 690.148 890.543 689.295C890.543 688.013 890.816 686.884 891.36 685.91C891.905 684.93 892.664 684.165 893.638 683.614C894.618 683.064 895.755 682.789 897.05 682.789C897.655 682.789 898.233 682.852 898.783 682.979C899.34 683.106 899.993 683.285 900.743 683.515V686.428H899.627L899.355 684.74C899.349 684.655 899.306 684.57 899.228 684.486C899.155 684.395 899.092 684.337 899.037 684.313C898.898 684.247 898.662 684.15 898.329 684.023C898.003 683.896 897.607 683.832 897.141 683.832C896.3 683.832 895.541 684.041 894.863 684.458C894.191 684.87 893.659 685.481 893.266 686.291C892.873 687.102 892.676 688.103 892.676 689.295C892.676 691.025 893.093 692.38 893.928 693.361C894.763 694.341 895.916 694.831 897.386 694.831C897.821 694.831 898.175 694.779 898.447 694.676C898.72 694.573 898.865 694.519 898.883 694.513C899.077 694.44 899.195 694.316 899.237 694.141L899.663 692.117H900.743V695.13Z" fill="black"/>
<path d="M822.567 668.324C822.567 670.527 822.051 672.473 821.02 674.16C820.012 675.824 818.735 677.23 817.188 678.379C815.641 679.527 814.059 680.406 812.442 681.016C810.848 681.602 809.453 681.93 808.258 682V689.418H804.918V682C803.137 681.883 800.875 681.73 798.133 681.543C795.414 681.332 792.836 680.863 790.399 680.137V667.902H793.985L795.285 675.953C795.942 676.75 797.219 677.371 799.117 677.816C801.016 678.262 802.949 678.484 804.918 678.484V660.273C802.832 659.781 800.758 659.043 798.696 658.059C796.656 657.051 794.957 655.668 793.598 653.91C792.239 652.152 791.559 649.902 791.559 647.16C791.559 644.98 791.981 643.105 792.824 641.535C793.692 639.965 794.805 638.652 796.164 637.598C797.524 636.543 798.977 635.723 800.524 635.137C802.094 634.527 803.594 634.117 805.024 633.906V628.492H808.328V633.695C810.391 633.695 812.348 633.836 814.199 634.117C816.074 634.375 817.598 634.645 818.77 634.926C819.965 635.207 820.563 635.348 820.563 635.348V646.703H816.801L815.746 639.074C814.621 637.832 812.149 637.211 808.328 637.211V654.367C809.899 654.836 811.516 655.375 813.18 655.984C814.844 656.57 816.379 657.355 817.785 658.34C819.215 659.324 820.364 660.625 821.231 662.242C822.121 663.836 822.567 665.863 822.567 668.324ZM805.024 653.418V637.492C803.102 637.891 801.485 638.77 800.172 640.129C798.883 641.488 798.239 643.352 798.239 645.719C798.239 647.266 798.59 648.543 799.293 649.551C800.02 650.559 800.91 651.367 801.965 651.977C803.02 652.562 804.039 653.043 805.024 653.418ZM816.028 669.695C816.028 667.938 815.664 666.508 814.938 665.406C814.211 664.305 813.25 663.426 812.055 662.77C810.883 662.09 809.617 661.539 808.258 661.117V678.168C810.297 677.816 812.102 676.961 813.672 675.602C815.242 674.242 816.028 672.273 816.028 669.695Z" fill="black"/>
<rect x="767" y="599" width="202" height="202" fill="white"/>
<path d="M842.456 593.028H974.519H992.523C1038.53 591.155 1055.9 684.587 1036.5 734.423C1032.25 745.341 1023.42 755.144 1011.73 755.977C993.737 757.26 976.095 742.311 964.274 723.088C950.311 700.381 928.197 677.627 901.54 677.627C874.884 677.627 848.702 699.217 833.481 721.1C815.035 747.62 788.607 770.791 776.475 749.934C760.691 729.513 763.255 647.155 794.632 609.147C805.892 595.509 824.771 593.028 842.456 593.028Z" stroke="black" stroke-width="6"/>
<circle cx="825.163" cy="652.461" r="23.1349" fill="white" stroke="black" stroke-width="6"/>
<path d="M830.526 654.049H823.859V660.715H822.335V654.049H815.668V652.512H822.335V645.845H823.859V652.512H830.526V654.049Z" fill="black"/>
<path d="M992.465 641.163H988.046V640.364L989.117 640.273C989.177 640.273 989.229 640.231 989.271 640.146C989.314 640.062 989.326 639.998 989.307 639.956L988.028 636.553H983.736L982.502 639.901C982.477 639.974 982.499 640.056 982.565 640.146C982.638 640.231 982.704 640.273 982.765 640.273L983.863 640.364V641.163H980.124V640.364L981.204 640.137L985.532 628.395H986.93L991.24 639.865C991.289 639.992 991.331 640.077 991.367 640.119C991.404 640.161 991.491 640.195 991.631 640.219L992.465 640.364V641.163ZM987.692 635.663L985.868 630.79L984.062 635.663H987.692Z" fill="black"/>
<path d="M982.638 667.872C982.638 668.622 982.486 669.24 982.184 669.723C981.881 670.201 981.488 670.577 981.004 670.849C980.526 671.115 980.015 671.299 979.471 671.402C978.926 671.505 978.409 671.557 977.919 671.557H972.719V670.758L973.699 670.685C973.832 670.673 973.929 670.625 973.99 670.54C974.056 670.456 974.089 670.368 974.089 670.277V660.368C974.089 660.277 974.056 660.189 973.99 660.104C973.929 660.014 973.832 659.965 973.699 659.959L972.719 659.887V659.088H977.692C979.174 659.088 980.242 659.354 980.895 659.887C981.549 660.419 981.875 661.151 981.875 662.083C981.875 662.7 981.727 663.202 981.431 663.589C981.14 663.976 980.786 664.276 980.369 664.487C979.958 664.693 979.567 664.844 979.198 664.941C979.755 664.941 980.296 665.035 980.823 665.222C981.349 665.404 981.782 665.709 982.12 666.139C982.465 666.563 982.638 667.14 982.638 667.872ZM979.87 662.21C979.87 661.484 979.631 660.924 979.153 660.531C978.681 660.138 977.967 659.941 977.011 659.941C976.818 659.941 976.609 659.95 976.385 659.968C976.161 659.986 976.016 659.996 975.95 659.996V664.696C975.95 664.696 976.034 664.699 976.204 664.705C976.379 664.711 976.518 664.714 976.621 664.714C977.831 664.714 978.675 664.497 979.153 664.061C979.631 663.625 979.87 663.008 979.87 662.21ZM980.614 668.027C980.614 667.18 980.36 666.559 979.852 666.166C979.35 665.773 978.606 665.576 977.619 665.576C977.42 665.576 977.196 665.585 976.948 665.604C976.7 665.622 976.479 665.64 976.285 665.658C976.098 665.676 975.986 665.685 975.95 665.685V670.595C975.95 670.595 976.019 670.601 976.158 670.613C976.304 670.619 976.467 670.628 976.648 670.64C976.836 670.646 976.987 670.649 977.102 670.649C978.403 670.649 979.313 670.431 979.834 669.996C980.354 669.56 980.614 668.904 980.614 668.027Z" fill="black"/>
<path d="M999.743 671.13C999.713 671.142 999.519 671.209 999.163 671.33C998.812 671.451 998.361 671.569 997.81 671.684C997.26 671.799 996.667 671.856 996.032 671.856C994.991 671.856 994.069 671.678 993.264 671.321C992.459 670.958 991.779 670.468 991.222 669.851C990.672 669.233 990.254 668.535 989.97 667.754C989.686 666.968 989.543 666.148 989.543 665.295C989.543 664.013 989.816 662.884 990.36 661.91C990.905 660.93 991.664 660.165 992.638 659.614C993.618 659.064 994.755 658.789 996.05 658.789C996.655 658.789 997.233 658.852 997.783 658.979C998.34 659.106 998.993 659.285 999.743 659.515V662.428H998.627L998.355 660.74C998.349 660.655 998.306 660.57 998.228 660.486C998.155 660.395 998.092 660.337 998.037 660.313C997.898 660.247 997.662 660.15 997.329 660.023C997.003 659.896 996.607 659.832 996.141 659.832C995.3 659.832 994.541 660.041 993.863 660.458C993.191 660.87 992.659 661.481 992.266 662.291C991.873 663.102 991.676 664.103 991.676 665.295C991.676 667.025 992.093 668.38 992.928 669.361C993.763 670.341 994.916 670.831 996.386 670.831C996.821 670.831 997.175 670.779 997.447 670.676C997.72 670.573 997.865 670.519 997.883 670.513C998.077 670.44 998.195 670.316 998.237 670.141L998.663 668.117H999.743V671.13Z" fill="black"/>
<path d="M921.567 644.324C921.567 646.527 921.051 648.473 920.02 650.16C919.012 651.824 917.735 653.23 916.188 654.379C914.641 655.527 913.059 656.406 911.442 657.016C909.848 657.602 908.453 657.93 907.258 658V665.418H903.918V658C902.137 657.883 899.875 657.73 897.133 657.543C894.414 657.332 891.836 656.863 889.399 656.137V643.902H892.985L894.285 651.953C894.942 652.75 896.219 653.371 898.117 653.816C900.016 654.262 901.949 654.484 903.918 654.484V636.273C901.832 635.781 899.758 635.043 897.696 634.059C895.656 633.051 893.957 631.668 892.598 629.91C891.239 628.152 890.559 625.902 890.559 623.16C890.559 620.98 890.981 619.105 891.824 617.535C892.692 615.965 893.805 614.652 895.164 613.598C896.524 612.543 897.977 611.723 899.524 611.137C901.094 610.527 902.594 610.117 904.024 609.906V604.492H907.328V609.695C909.391 609.695 911.348 609.836 913.199 610.117C915.074 610.375 916.598 610.645 917.77 610.926C918.965 611.207 919.563 611.348 919.563 611.348V622.703H915.801L914.746 615.074C913.621 613.832 911.149 613.211 907.328 613.211V630.367C908.899 630.836 910.516 631.375 912.18 631.984C913.844 632.57 915.379 633.355 916.785 634.34C918.215 635.324 919.364 636.625 920.231 638.242C921.121 639.836 921.567 641.863 921.567 644.324ZM904.024 629.418V613.492C902.102 613.891 900.485 614.77 899.172 616.129C897.883 617.488 897.239 619.352 897.239 621.719C897.239 623.266 897.59 624.543 898.293 625.551C899.02 626.559 899.91 627.367 900.965 627.977C902.02 628.562 903.039 629.043 904.024 629.418ZM915.028 645.695C915.028 643.938 914.664 642.508 913.938 641.406C913.211 640.305 912.25 639.426 911.055 638.77C909.883 638.09 908.617 637.539 907.258 637.117V654.168C909.297 653.816 911.102 652.961 912.672 651.602C914.242 650.242 915.028 648.273 915.028 645.695Z" fill="#00A405"/>
<rect x="931" y="584" width="202" height="202" fill="white"/>
<path d="M1006.46 579.028H1138.52H1156.52C1202.53 577.155 1219.9 670.587 1200.5 720.423C1196.25 731.341 1187.42 741.144 1175.73 741.977C1157.74 743.26 1140.1 728.311 1128.27 709.088C1114.31 686.381 1092.2 663.627 1065.54 663.627C1038.88 663.627 1012.7 685.217 997.481 707.1C979.035 733.62 952.607 756.791 940.475 735.934C924.691 715.513 927.255 633.155 958.632 595.147C969.892 581.509 988.771 579.028 1006.46 579.028Z" stroke="black" stroke-width="6"/>
<circle cx="989.163" cy="638.461" r="23.1349" fill="white" stroke="black" stroke-width="6"/>
<path d="M994.526 640.049H987.859V646.715H986.335V640.049H979.668V638.512H986.335V631.845H987.859V638.512H994.526V640.049Z" fill="black"/>
<path d="M1156.47 627.163H1152.05V626.364L1153.12 626.273C1153.18 626.273 1153.23 626.231 1153.27 626.146C1153.31 626.062 1153.33 625.998 1153.31 625.956L1152.03 622.553H1147.74L1146.5 625.901C1146.48 625.974 1146.5 626.056 1146.57 626.146C1146.64 626.231 1146.7 626.273 1146.76 626.273L1147.86 626.364V627.163H1144.12V626.364L1145.2 626.137L1149.53 614.395H1150.93L1155.24 625.865C1155.29 625.992 1155.33 626.077 1155.37 626.119C1155.4 626.161 1155.49 626.195 1155.63 626.219L1156.47 626.364V627.163ZM1151.69 621.663L1149.87 616.79L1148.06 621.663H1151.69Z" fill="black"/>
<path d="M1146.64 653.872C1146.64 654.622 1146.49 655.24 1146.18 655.723C1145.88 656.201 1145.49 656.577 1145 656.849C1144.53 657.115 1144.02 657.299 1143.47 657.402C1142.93 657.505 1142.41 657.557 1141.92 657.557H1136.72V656.758L1137.7 656.685C1137.83 656.673 1137.93 656.625 1137.99 656.54C1138.06 656.456 1138.09 656.368 1138.09 656.277V646.368C1138.09 646.277 1138.06 646.189 1137.99 646.104C1137.93 646.014 1137.83 645.965 1137.7 645.959L1136.72 645.887V645.088H1141.69C1143.17 645.088 1144.24 645.354 1144.9 645.887C1145.55 646.419 1145.88 647.151 1145.88 648.083C1145.88 648.7 1145.73 649.202 1145.43 649.589C1145.14 649.976 1144.79 650.276 1144.37 650.487C1143.96 650.693 1143.57 650.844 1143.2 650.941C1143.75 650.941 1144.3 651.035 1144.82 651.222C1145.35 651.404 1145.78 651.709 1146.12 652.139C1146.47 652.563 1146.64 653.14 1146.64 653.872ZM1143.87 648.21C1143.87 647.484 1143.63 646.924 1143.15 646.531C1142.68 646.138 1141.97 645.941 1141.01 645.941C1140.82 645.941 1140.61 645.95 1140.39 645.968C1140.16 645.986 1140.02 645.996 1139.95 645.996V650.696C1139.95 650.696 1140.03 650.699 1140.2 650.705C1140.38 650.711 1140.52 650.714 1140.62 650.714C1141.83 650.714 1142.68 650.497 1143.15 650.061C1143.63 649.625 1143.87 649.008 1143.87 648.21ZM1144.61 654.027C1144.61 653.18 1144.36 652.559 1143.85 652.166C1143.35 651.773 1142.61 651.576 1141.62 651.576C1141.42 651.576 1141.2 651.585 1140.95 651.604C1140.7 651.622 1140.48 651.64 1140.29 651.658C1140.1 651.676 1139.99 651.685 1139.95 651.685V656.595C1139.95 656.595 1140.02 656.601 1140.16 656.613C1140.3 656.619 1140.47 656.628 1140.65 656.64C1140.84 656.646 1140.99 656.649 1141.1 656.649C1142.4 656.649 1143.31 656.431 1143.83 655.996C1144.35 655.56 1144.61 654.904 1144.61 654.027Z" fill="black"/>
<path d="M1163.74 657.13C1163.71 657.142 1163.52 657.209 1163.16 657.33C1162.81 657.451 1162.36 657.569 1161.81 657.684C1161.26 657.799 1160.67 657.856 1160.03 657.856C1158.99 657.856 1158.07 657.678 1157.26 657.321C1156.46 656.958 1155.78 656.468 1155.22 655.851C1154.67 655.233 1154.25 654.535 1153.97 653.754C1153.69 652.968 1153.54 652.148 1153.54 651.295C1153.54 650.013 1153.82 648.884 1154.36 647.91C1154.9 646.93 1155.66 646.165 1156.64 645.614C1157.62 645.064 1158.76 644.789 1160.05 644.789C1160.65 644.789 1161.23 644.852 1161.78 644.979C1162.34 645.106 1162.99 645.285 1163.74 645.515V648.428H1162.63L1162.35 646.74C1162.35 646.655 1162.31 646.57 1162.23 646.486C1162.16 646.395 1162.09 646.337 1162.04 646.313C1161.9 646.247 1161.66 646.15 1161.33 646.023C1161 645.896 1160.61 645.832 1160.14 645.832C1159.3 645.832 1158.54 646.041 1157.86 646.458C1157.19 646.87 1156.66 647.481 1156.27 648.291C1155.87 649.102 1155.68 650.103 1155.68 651.295C1155.68 653.025 1156.09 654.38 1156.93 655.361C1157.76 656.341 1158.92 656.831 1160.39 656.831C1160.82 656.831 1161.18 656.779 1161.45 656.676C1161.72 656.573 1161.86 656.519 1161.88 656.513C1162.08 656.44 1162.19 656.316 1162.24 656.141L1162.66 654.117H1163.74V657.13Z" fill="black"/>
<path d="M1085.57 630.324C1085.57 632.527 1085.05 634.473 1084.02 636.16C1083.01 637.824 1081.73 639.23 1080.19 640.379C1078.64 641.527 1077.06 642.406 1075.44 643.016C1073.85 643.602 1072.45 643.93 1071.26 644V651.418H1067.92V644C1066.14 643.883 1063.88 643.73 1061.13 643.543C1058.41 643.332 1055.84 642.863 1053.4 642.137V629.902H1056.98L1058.29 637.953C1058.94 638.75 1060.22 639.371 1062.12 639.816C1064.02 640.262 1065.95 640.484 1067.92 640.484V622.273C1065.83 621.781 1063.76 621.043 1061.7 620.059C1059.66 619.051 1057.96 617.668 1056.6 615.91C1055.24 614.152 1054.56 611.902 1054.56 609.16C1054.56 606.98 1054.98 605.105 1055.82 603.535C1056.69 601.965 1057.8 600.652 1059.16 599.598C1060.52 598.543 1061.98 597.723 1063.52 597.137C1065.09 596.527 1066.59 596.117 1068.02 595.906V590.492H1071.33V595.695C1073.39 595.695 1075.35 595.836 1077.2 596.117C1079.07 596.375 1080.6 596.645 1081.77 596.926C1082.97 597.207 1083.56 597.348 1083.56 597.348V608.703H1079.8L1078.75 601.074C1077.62 599.832 1075.15 599.211 1071.33 599.211V616.367C1072.9 616.836 1074.52 617.375 1076.18 617.984C1077.84 618.57 1079.38 619.355 1080.79 620.34C1082.22 621.324 1083.36 622.625 1084.23 624.242C1085.12 625.836 1085.57 627.863 1085.57 630.324ZM1068.02 615.418V599.492C1066.1 599.891 1064.48 600.77 1063.17 602.129C1061.88 603.488 1061.24 605.352 1061.24 607.719C1061.24 609.266 1061.59 610.543 1062.29 611.551C1063.02 612.559 1063.91 613.367 1064.97 613.977C1066.02 614.562 1067.04 615.043 1068.02 615.418ZM1079.03 631.695C1079.03 629.938 1078.66 628.508 1077.94 627.406C1077.21 626.305 1076.25 625.426 1075.05 624.77C1073.88 624.09 1072.62 623.539 1071.26 623.117V640.168C1073.3 639.816 1075.1 638.961 1076.67 637.602C1078.24 636.242 1079.03 634.273 1079.03 631.695Z" fill="#00A405"/>
<rect x="1045.5" y="221.5" width="185" height="269" fill="#239A31" stroke="black" stroke-width="3"/>
<rect x="1184.5" y="248.5" width="27" height="27" fill="#C8C8C8" stroke="black" stroke-width="13"/>
<rect x="1068.5" y="427.5" width="27" height="27" fill="#C8C8C8" stroke="black" stroke-width="13"/>
<rect x="1177.5" y="342.5" width="27" height="27" fill="#C8C8C8" stroke="black" stroke-width="13"/>
<rect x="1097.5" y="314.5" width="27" height="27" fill="#C8C8C8" stroke="black" stroke-width="13"/>
<rect x="1175.5" y="434.5" width="27" height="27" fill="#C8C8C8" stroke="black" stroke-width="13"/>
<rect x="1062.5" y="237.5" width="27" height="27" fill="#C8C8C8" stroke="black" stroke-width="13"/>
<rect x="1104.5" y="200.5" width="67" height="27" fill="#E6E6E6" stroke="#A1A1A1" stroke-width="13"/>
<path d="M1377.76 364.127C1412.76 306.363 1411.22 290.908 1373.47 241.702M1350.86 353.064C1384.47 311.975 1382.01 285.429 1347.39 254.125M1330.24 335.777C1349.09 302.595 1348.74 292.601 1327.84 267.319" stroke="black" stroke-width="6"/>
<circle cx="1315" cy="299" r="15" fill="black"/>
<path d="M1325.17 370C1290.18 427.764 1291.72 443.219 1329.47 492.425M1352.08 381.063C1318.47 422.151 1320.93 448.697 1355.55 480.002M1372.7 398.35C1353.85 431.532 1354.2 441.525 1375.1 466.807" stroke="black" stroke-width="6"/>
<circle cx="1387.94" cy="435.127" r="15" transform="rotate(180 1387.94 435.127)" fill="black"/>
<g filter="url(#filter0_d_54_12)">
<path d="M1623.22 336.108C1623.25 338.271 1621.44 340.043 1619.18 340.065L1480.97 341.435C1478.71 341.457 1476.87 339.722 1476.85 337.558L1475.53 204.892C1475.51 202.729 1477.32 200.957 1479.57 200.935L1617.79 199.565C1620.04 199.543 1621.89 201.278 1621.91 203.442L1623.22 336.108Z" fill="white"/>
<path d="M1622.71 336.113C1622.73 338.006 1621.15 339.556 1619.18 339.576L1480.96 340.946C1478.99 340.965 1477.37 339.446 1477.36 337.553L1476.04 204.887C1476.02 202.994 1477.61 201.444 1479.58 201.424L1617.79 200.054C1619.77 200.035 1621.38 201.554 1621.4 203.447L1622.71 336.113Z" stroke="#93008E"/>
</g>
<rect x="1517.8" y="252.92" width="15.9088" height="17.2615" rx="3.5" fill="#93008E" stroke="#93008E"/>
<rect x="1563.8" y="252.92" width="15.9088" height="17.2615" rx="3.5" fill="#93008E" stroke="#93008E"/>
<path d="M1500.39 297.001V299.929C1500.39 301.708 1501.55 303.278 1503.28 303.672C1524.81 308.569 1575.62 308.191 1595.6 303.672C1597.33 303.281 1598.47 301.719 1598.47 299.95V297.966V297.001C1598.47 294.792 1596.68 293.001 1594.47 293.001H1504.39C1502.18 293.001 1500.39 294.792 1500.39 297.001Z" fill="white" stroke="#93008E"/>
<g filter="url(#filter1_d_54_12)">
<path d="M1623.22 504.108C1623.25 506.271 1621.44 508.043 1619.18 508.065L1480.97 509.435C1478.71 509.457 1476.87 507.722 1476.85 505.558L1475.53 372.892C1475.51 370.729 1477.32 368.957 1479.57 368.935L1617.79 367.565C1620.04 367.543 1621.89 369.278 1621.91 371.442L1623.22 504.108Z" fill="white"/>
<path d="M1622.71 504.113C1622.73 506.006 1621.15 507.556 1619.18 507.576L1480.96 508.946C1478.99 508.965 1477.37 507.446 1477.36 505.553L1476.04 372.887C1476.02 370.994 1477.61 369.444 1479.58 369.424L1617.79 368.054C1619.77 368.035 1621.38 369.554 1621.4 371.447L1622.71 504.113Z" stroke="#005CAC"/>
</g>
<rect x="1517.8" y="420.92" width="15.9088" height="17.2615" rx="3.5" fill="#005CAC" stroke="#005CAC"/>
<rect x="1563.8" y="420.92" width="15.9088" height="17.2615" rx="3.5" fill="#005CAC" stroke="#005CAC"/>
<path d="M1500.39 465.001V467.929C1500.39 469.708 1501.55 471.278 1503.28 471.672C1524.81 476.569 1575.62 476.191 1595.6 471.672C1597.33 471.281 1598.47 469.719 1598.47 467.95V465.966V465.001C1598.47 462.792 1596.68 461.001 1594.47 461.001H1504.39C1502.18 461.001 1500.39 462.792 1500.39 465.001Z" fill="white" stroke="#005CAC"/>
<defs>
<filter id="filter0_d_54_12" x="1439.53" y="167.565" width="219.692" height="213.87" filterUnits="userSpaceOnUse" color-interpolation-filters="sRGB">
<feFlood flood-opacity="0" result="BackgroundImageFix"/>
<feColorMatrix in="SourceAlpha" type="matrix" values="0 0 0 0 0 0 0 0 0 0 0 0 0 0 0 0 0 0 127 0" result="hardAlpha"/>
<feOffset dy="4"/>
<feGaussianBlur stdDeviation="18"/>
<feComposite in2="hardAlpha" operator="out"/>
<feColorMatrix type="matrix" values="0 0 0 0 0 0 0 0 0 0 0 0 0 0 0 0 0 0 0.25 0"/>
<feBlend mode="normal" in2="BackgroundImageFix" result="effect1_dropShadow_54_12"/>
<feBlend mode="normal" in="SourceGraphic" in2="effect1_dropShadow_54_12" result="shape"/>
</filter>
<filter id="filter1_d_54_12" x="1439.53" y="335.565" width="219.692" height="213.87" filterUnits="userSpaceOnUse" color-interpolation-filters="sRGB">
<feFlood flood-opacity="0" result="BackgroundImageFix"/>
<feColorMatrix in="SourceAlpha" type="matrix" values="0 0 0 0 0 0 0 0 0 0 0 0 0 0 0 0 0 0 127 0" result="hardAlpha"/>
<feOffset dy="4"/>
<feGaussianBlur stdDeviation="18"/>
<feComposite in2="hardAlpha" operator="out"/>
<feColorMatrix type="matrix" values="0 0 0 0 0 0 0 0 0 0 0 0 0 0 0 0 0 0 0.25 0"/>
<feBlend mode="normal" in2="BackgroundImageFix" result="effect1_dropShadow_54_12"/>
<feBlend mode="normal" in="SourceGraphic" in2="effect1_dropShadow_54_12" result="shape"/>
</filter>
</defs>
</svg>
