<svg width="1301" height="803" viewBox="0 0 1301 803" fill="none" xmlns="http://www.w3.org/2000/svg">
<rect width="1301" height="325" fill="white"/>
<rect y="478" width="1301" height="325" fill="white"/>
<g filter="url(#filter0_d_54_14)">
<path d="M295.562 475.062C295.354 475.146 294.021 475.604 291.562 476.438C289.146 477.271 286.042 478.083 282.25 478.875C278.458 479.667 274.375 480.062 270 480.062C262.833 480.062 256.479 478.833 250.938 476.375C245.396 473.875 240.708 470.5 236.875 466.25C233.083 462 230.208 457.188 228.25 451.812C226.292 446.396 225.312 440.75 225.312 434.875C225.312 426.042 227.188 418.271 230.938 411.562C234.688 404.812 239.917 399.542 246.625 395.75C253.375 391.958 261.208 390.062 270.125 390.062C274.292 390.062 278.271 390.5 282.062 391.375C285.896 392.25 290.396 393.479 295.562 395.062V415.125H287.875L286 403.5C285.958 402.917 285.667 402.333 285.125 401.75C284.625 401.125 284.188 400.729 283.812 400.562C282.854 400.104 281.229 399.438 278.938 398.562C276.688 397.688 273.958 397.25 270.75 397.25C264.958 397.25 259.729 398.688 255.062 401.562C250.438 404.396 246.771 408.604 244.062 414.188C241.354 419.771 240 426.667 240 434.875C240 446.792 242.875 456.125 248.625 462.875C254.375 469.625 262.312 473 272.438 473C275.438 473 277.875 472.646 279.75 471.938C281.625 471.229 282.625 470.854 282.75 470.812C284.083 470.312 284.896 469.458 285.188 468.25L288.125 454.312H295.562V475.062ZM371.062 478H342.562V473L347.812 472.625C348.562 472.542 349.208 472.25 349.75 471.75C350.333 471.25 350.625 470.604 350.625 469.812V436.812C350.625 433.146 349.75 430.125 348 427.75C346.25 425.333 342.896 424.125 337.938 424.125C335.688 424.125 333.25 424.479 330.625 425.188C328.042 425.896 325.833 426.771 324 427.812V469.812C324 471.562 324.854 472.5 326.562 472.625L332.062 473V478H303.25V473L309.375 472.625C311.167 472.5 312.062 471.562 312.062 469.812V392.875H302.5V388.625L318.875 383.688H324V422.688C325.542 421.729 327.542 420.646 330 419.438C332.458 418.188 335.042 417.104 337.75 416.188C340.458 415.229 342.917 414.75 345.125 414.75C350.042 414.75 354.167 416.333 357.5 419.5C360.833 422.667 362.5 427.542 362.5 434.125V469.812C362.5 470.604 362.771 471.25 363.312 471.75C363.896 472.25 364.562 472.542 365.312 472.625L371.062 473V478ZM437.062 478H418.125L416.438 470.438C416.438 470.438 415.792 470.896 414.5 471.812C413.25 472.729 411.583 473.792 409.5 475C407.417 476.208 405.104 477.271 402.562 478.188C400.062 479.104 397.562 479.562 395.062 479.562C390.438 479.562 386.5 478.021 383.25 474.938C380.042 471.854 378.438 467.625 378.438 462.25C378.438 459.875 378.854 457.667 379.688 455.625C380.562 453.583 382.271 451.646 384.812 449.812C387.396 447.938 391.208 446.125 396.25 444.375C401.333 442.583 408.062 440.771 416.438 438.938C416.438 438.812 416.438 438.292 416.438 437.375C416.438 436.458 416.438 435.583 416.438 434.75C416.438 433.875 416.438 433.438 416.438 433.438C416.438 425.021 412.458 420.812 404.5 420.812C402.292 420.812 400.375 421.021 398.75 421.438C397.167 421.854 396.062 422.188 395.438 422.438V433.562H386.125C384.958 433.562 383.875 433.354 382.875 432.938C381.875 432.479 381.375 431.458 381.375 429.875C381.375 426.375 382.708 423.521 385.375 421.312C388.042 419.062 391.417 417.417 395.5 416.375C399.625 415.292 403.792 414.75 408 414.75C413.292 414.75 417.396 415.583 420.312 417.25C423.229 418.875 425.271 421.146 426.438 424.062C427.604 426.938 428.188 430.229 428.188 433.938V469.812C428.188 470.604 428.438 471.25 428.938 471.75C429.479 472.25 430.125 472.542 430.875 472.625L437.062 473V478ZM416.438 465.938V443.812C410.688 445.229 406.104 446.667 402.688 448.125C399.312 449.542 396.792 450.979 395.125 452.438C393.458 453.854 392.354 455.312 391.812 456.812C391.312 458.271 391.062 459.792 391.062 461.375C391.062 464 391.896 466.438 393.562 468.688C395.271 470.896 397.646 472 400.688 472C402.396 472 404.167 471.708 406 471.125C407.833 470.5 409.542 469.792 411.125 469C412.708 468.167 413.979 467.458 414.938 466.875C415.938 466.25 416.438 465.938 416.438 465.938ZM481.812 475.312C481.812 475.312 481 475.667 479.375 476.375C477.792 477.083 475.688 477.792 473.062 478.5C470.479 479.208 467.646 479.562 464.562 479.562C459.771 479.562 456.271 478.438 454.062 476.188C451.896 473.896 450.812 470.229 450.812 465.188V422.688H442.625V418.5L451.375 414.375L457.125 400.812H462.75V416.312H480.812V422.688H462.75V458.438C462.75 463.521 463.604 467.125 465.312 469.25C467.021 471.333 469.583 472.375 473 472.375C475.5 472.375 477.583 472.021 479.25 471.312C480.958 470.562 481.812 470.188 481.812 470.188V475.312ZM548.062 395.188C548.062 397.354 547.312 399.229 545.812 400.812C544.312 402.354 542.479 403.125 540.312 403.125C538.146 403.125 536.271 402.354 534.688 400.812C533.146 399.229 532.375 397.354 532.375 395.188C532.375 392.979 533.146 391.125 534.688 389.625C536.271 388.125 538.146 387.375 540.312 387.375C542.479 387.375 544.312 388.125 545.812 389.625C547.312 391.125 548.062 392.979 548.062 395.188ZM554.625 478H524.562V473L530.812 472.625C532.604 472.5 533.5 471.562 533.5 469.812V424.125H524.688V419.625L540.312 414.75H545.375V469.812C545.375 470.604 545.625 471.271 546.125 471.812C546.667 472.312 547.312 472.583 548.062 472.625L554.625 473V478ZM629.062 478H600.812V473L606.188 472.625C606.938 472.542 607.562 472.25 608.062 471.75C608.604 471.25 608.875 470.604 608.875 469.812V436.5C608.875 432.458 607.938 429.396 606.062 427.312C604.188 425.188 601.021 424.125 596.562 424.125C594.146 424.125 591.729 424.479 589.312 425.188C586.938 425.854 584.667 426.729 582.5 427.812V469.812C582.5 471.562 583.396 472.5 585.188 472.625L590.562 473V478H561.625V473L567.875 472.625C569.667 472.5 570.562 471.562 570.562 469.812V425.375H561.625V421.188L577.25 416.312H582.5V422.688C586.083 420.646 589.75 418.812 593.5 417.188C597.292 415.562 600.667 414.75 603.625 414.75C609.208 414.75 613.458 416.5 616.375 420C619.292 423.458 620.75 428.292 620.75 434.5V469.812C620.75 470.604 621 471.25 621.5 471.75C622.042 472.25 622.688 472.542 623.438 472.625L629.062 473V478ZM756.5 424.125H736.25L730.25 442.438H750.875V448.812H727.938L717.188 480.938L710.812 478.875L720.75 448.812H702.188L691.312 480.938L685.062 478.75L695.312 448.812H677.125V442.438H697.375L703.625 424.125H682.875V417.562H705.812L716.062 387.375L722.562 389.438L712.688 417.562H731.375L741.5 387.375L748.312 389.438L738.562 417.562H756.5V424.125ZM729.25 424.125H710.688L704.375 442.438H722.938L729.25 424.125ZM819.625 473.25C816.75 474.792 813.5 476.229 809.875 477.562C806.292 478.896 802.333 479.562 798 479.562C792.042 479.562 786.854 478.167 782.438 475.375C778.062 472.583 774.667 468.792 772.25 464C769.875 459.167 768.688 453.688 768.688 447.562C768.688 440.396 770.104 434.375 772.938 429.5C775.812 424.625 779.583 420.958 784.25 418.5C788.958 416 794.042 414.75 799.5 414.75C805.125 414.75 809.833 415.854 813.625 418.062C817.458 420.229 819.375 423.396 819.375 427.562C819.375 430.062 818.583 431.958 817 433.25C815.458 434.5 813.729 435.125 811.812 435.125C810.396 435.125 809.167 434.896 808.125 434.438C807.083 433.938 806.167 433.438 805.375 432.938V421.812C803.417 420.688 801.625 420.125 800 420.125C796.208 420.125 792.938 421.25 790.188 423.5C787.479 425.708 785.396 428.75 783.938 432.625C782.479 436.5 781.75 440.917 781.75 445.875C781.75 450.583 782.542 454.896 784.125 458.812C785.708 462.688 788.062 465.771 791.188 468.062C794.354 470.354 798.271 471.5 802.938 471.5C805.896 471.5 808.729 471.021 811.438 470.062C814.146 469.104 816.875 467.729 819.625 465.938V473.25ZM858.5 478H827.375V473L834.188 472.625C834.771 472.583 835.375 472.271 836 471.688C836.667 471.062 837 470.479 837 469.938V392.875H827.25V388.625L843.625 383.688H848.875V469.938C848.875 470.479 849.188 471.062 849.812 471.688C850.438 472.271 851.021 472.583 851.562 472.625L858.5 473V478ZM889.812 395.188C889.812 397.354 889.062 399.229 887.562 400.812C886.062 402.354 884.229 403.125 882.062 403.125C879.896 403.125 878.021 402.354 876.438 400.812C874.896 399.229 874.125 397.354 874.125 395.188C874.125 392.979 874.896 391.125 876.438 389.625C878.021 388.125 879.896 387.375 882.062 387.375C884.229 387.375 886.062 388.125 887.562 389.625C889.062 391.125 889.812 392.979 889.812 395.188ZM896.375 478H866.312V473L872.562 472.625C874.354 472.5 875.25 471.562 875.25 469.812V424.125H866.438V419.625L882.062 414.75H887.125V469.812C887.125 470.604 887.375 471.271 887.875 471.812C888.417 472.312 889.062 472.583 889.812 472.625L896.375 473V478ZM959.188 471.625C955.604 473.833 951.729 475.708 947.562 477.25C943.438 478.792 939.208 479.562 934.875 479.562C929.708 479.562 924.854 478.417 920.312 476.125C915.812 473.792 912.167 470.271 909.375 465.562C906.583 460.854 905.188 454.938 905.188 447.812C905.188 441.146 906.479 435.333 909.062 430.375C911.646 425.417 915.208 421.583 919.75 418.875C924.292 416.125 929.458 414.75 935.25 414.75C943.208 414.75 949.188 417.229 953.188 422.188C957.188 427.104 959.188 433.375 959.188 441C959.188 441.417 959.188 441.979 959.188 442.688C959.188 443.354 959.146 443.979 959.062 444.562H917.562C917.562 447.812 917.896 451.062 918.562 454.312C919.271 457.521 920.438 460.438 922.062 463.062C923.688 465.688 925.875 467.792 928.625 469.375C931.375 470.958 934.812 471.75 938.938 471.75C942.604 471.75 946.167 470.917 949.625 469.25C953.125 467.542 956.312 465.729 959.188 463.812V471.625ZM946.375 438.812V436C946.375 431.792 945.354 428.25 943.312 425.375C941.312 422.5 938.188 421.062 933.938 421.062C929.729 421.062 926.146 422.646 923.188 425.812C920.229 428.979 918.583 433.312 918.25 438.812H946.375ZM1033.56 478H1005.31V473L1010.69 472.625C1011.44 472.542 1012.06 472.25 1012.56 471.75C1013.1 471.25 1013.38 470.604 1013.38 469.812V436.5C1013.38 432.458 1012.44 429.396 1010.56 427.312C1008.69 425.188 1005.52 424.125 1001.06 424.125C998.646 424.125 996.229 424.479 993.812 425.188C991.438 425.854 989.167 426.729 987 427.812V469.812C987 471.562 987.896 472.5 989.688 472.625L995.062 473V478H966.125V473L972.375 472.625C974.167 472.5 975.062 471.562 975.062 469.812V425.375H966.125V421.188L981.75 416.312H987V422.688C990.583 420.646 994.25 418.812 998 417.188C1001.79 415.562 1005.17 414.75 1008.12 414.75C1013.71 414.75 1017.96 416.5 1020.88 420C1023.79 423.458 1025.25 428.292 1025.25 434.5V469.812C1025.25 470.604 1025.5 471.25 1026 471.75C1026.54 472.25 1027.19 472.542 1027.94 472.625L1033.56 473V478ZM1078.81 475.312C1078.81 475.312 1078 475.667 1076.38 476.375C1074.79 477.083 1072.69 477.792 1070.06 478.5C1067.48 479.208 1064.65 479.562 1061.56 479.562C1056.77 479.562 1053.27 478.438 1051.06 476.188C1048.9 473.896 1047.81 470.229 1047.81 465.188V422.688H1039.62V418.5L1048.38 414.375L1054.12 400.812H1059.75V416.312H1077.81V422.688H1059.75V458.438C1059.75 463.521 1060.6 467.125 1062.31 469.25C1064.02 471.333 1066.58 472.375 1070 472.375C1072.5 472.375 1074.58 472.021 1076.25 471.312C1077.96 470.562 1078.81 470.188 1078.81 470.188V475.312Z" fill="black"/>
</g>
<path d="M512.406 576.547C510.74 576.359 509.323 575.87 508.156 575.078C507 574.286 506.068 573.26 505.359 572C504.651 570.75 504.135 569.339 503.812 567.766C503.49 566.193 503.328 564.531 503.328 562.781C503.328 561.042 503.49 559.385 503.812 557.812C504.135 556.24 504.651 554.833 505.359 553.594C506.068 552.344 507 551.323 508.156 550.531C509.323 549.74 510.74 549.25 512.406 549.062V550.469C510.156 550.833 508.573 552.089 507.656 554.234C506.75 556.38 506.297 559.229 506.297 562.781C506.297 565.146 506.495 567.214 506.891 568.984C507.286 570.745 507.927 572.146 508.812 573.188C509.708 574.24 510.906 574.891 512.406 575.141V576.547ZM524.641 560.703H522.969L522.719 558.469C522.49 558.292 522.151 558.125 521.703 557.969C521.255 557.812 520.781 557.734 520.281 557.734C519.406 557.734 518.755 557.938 518.328 558.344C517.901 558.74 517.688 559.25 517.688 559.875C517.688 560.354 517.797 560.76 518.016 561.094C518.234 561.427 518.604 561.755 519.125 562.078C519.646 562.391 520.354 562.755 521.25 563.172C522.365 563.682 523.286 564.25 524.016 564.875C524.745 565.49 525.109 566.318 525.109 567.359C525.109 568.932 524.568 570.167 523.484 571.062C522.401 571.948 520.906 572.391 519 572.391C518.021 572.391 517.115 572.286 516.281 572.078C515.458 571.88 514.885 571.714 514.562 571.578V567.328H516.188L516.578 570.047C516.901 570.255 517.297 570.458 517.766 570.656C518.245 570.844 518.797 570.938 519.422 570.938C520.339 570.938 521.047 570.682 521.547 570.172C522.047 569.661 522.297 569.089 522.297 568.453C522.297 567.62 521.953 566.969 521.266 566.5C520.589 566.021 519.63 565.484 518.391 564.891C517.224 564.328 516.328 563.75 515.703 563.156C515.089 562.562 514.781 561.786 514.781 560.828C514.781 559.401 515.281 558.271 516.281 557.438C517.281 556.604 518.703 556.188 520.547 556.188C521.484 556.188 522.318 556.276 523.047 556.453C523.786 556.62 524.318 556.776 524.641 556.922V560.703ZM534.859 572H527.078V570.75L528.781 570.656C528.927 570.646 529.078 570.568 529.234 570.422C529.401 570.266 529.484 570.12 529.484 569.984V550.719H527.047V549.656L531.141 548.422H532.453V569.984C532.453 570.12 532.531 570.266 532.688 570.422C532.844 570.568 532.99 570.646 533.125 570.656L534.859 570.75V572ZM551.469 572H546.734L546.312 570.109C546.312 570.109 546.151 570.224 545.828 570.453C545.516 570.682 545.099 570.948 544.578 571.25C544.057 571.552 543.479 571.818 542.844 572.047C542.219 572.276 541.594 572.391 540.969 572.391C539.812 572.391 538.828 572.005 538.016 571.234C537.214 570.464 536.812 569.406 536.812 568.062C536.812 567.469 536.917 566.917 537.125 566.406C537.344 565.896 537.771 565.411 538.406 564.953C539.052 564.484 540.005 564.031 541.266 563.594C542.536 563.146 544.219 562.693 546.312 562.234C546.312 562.203 546.312 562.073 546.312 561.844C546.312 561.615 546.312 561.396 546.312 561.188C546.312 560.969 546.312 560.859 546.312 560.859C546.312 558.755 545.318 557.703 543.328 557.703C542.776 557.703 542.297 557.755 541.891 557.859C541.495 557.964 541.219 558.047 541.062 558.109V560.891H538.734C538.443 560.891 538.172 560.839 537.922 560.734C537.672 560.62 537.547 560.365 537.547 559.969C537.547 559.094 537.88 558.38 538.547 557.828C539.214 557.266 540.057 556.854 541.078 556.594C542.109 556.323 543.151 556.188 544.203 556.188C545.526 556.188 546.552 556.396 547.281 556.812C548.01 557.219 548.521 557.786 548.812 558.516C549.104 559.234 549.25 560.057 549.25 560.984V569.953C549.25 570.151 549.312 570.312 549.438 570.438C549.573 570.562 549.734 570.635 549.922 570.656L551.469 570.75V572ZM546.312 568.984V563.453C544.875 563.807 543.729 564.167 542.875 564.531C542.031 564.885 541.401 565.245 540.984 565.609C540.568 565.964 540.292 566.328 540.156 566.703C540.031 567.068 539.969 567.448 539.969 567.844C539.969 568.5 540.177 569.109 540.594 569.672C541.021 570.224 541.615 570.5 542.375 570.5C542.802 570.5 543.245 570.427 543.703 570.281C544.161 570.125 544.589 569.948 544.984 569.75C545.38 569.542 545.698 569.365 545.938 569.219C546.188 569.062 546.312 568.984 546.312 568.984ZM565.828 570.812C565.109 571.198 564.297 571.557 563.391 571.891C562.495 572.224 561.505 572.391 560.422 572.391C558.932 572.391 557.635 572.042 556.531 571.344C555.438 570.646 554.589 569.698 553.984 568.5C553.391 567.292 553.094 565.922 553.094 564.391C553.094 562.599 553.448 561.094 554.156 559.875C554.875 558.656 555.818 557.74 556.984 557.125C558.161 556.5 559.432 556.188 560.797 556.188C562.203 556.188 563.38 556.464 564.328 557.016C565.286 557.557 565.766 558.349 565.766 559.391C565.766 560.016 565.568 560.49 565.172 560.812C564.786 561.125 564.354 561.281 563.875 561.281C563.521 561.281 563.214 561.224 562.953 561.109C562.693 560.984 562.464 560.859 562.266 560.734V557.953C561.776 557.672 561.328 557.531 560.922 557.531C559.974 557.531 559.156 557.812 558.469 558.375C557.792 558.927 557.271 559.688 556.906 560.656C556.542 561.625 556.359 562.729 556.359 563.969C556.359 565.146 556.557 566.224 556.953 567.203C557.349 568.172 557.938 568.943 558.719 569.516C559.51 570.089 560.49 570.375 561.656 570.375C562.396 570.375 563.104 570.255 563.781 570.016C564.458 569.776 565.141 569.432 565.828 568.984V570.812ZM583.672 572H578.547V570.75L574.547 564.734H572.766V569.953C572.766 570.391 572.99 570.625 573.438 570.656L574.812 570.75V572H567.547V570.75L569.109 570.656C569.557 570.625 569.781 570.391 569.781 569.953V550.719H567.359V549.656L571.453 548.422H572.766V563.812H573.406L578.109 558.5C578.193 558.396 578.203 558.281 578.141 558.156C578.089 558.031 577.99 557.964 577.844 557.953L576.531 557.828V556.578H582.75V557.828L580.703 558.047L576.469 562.562L581.984 570.562L583.672 570.75V572ZM590.266 570.234C590.266 570.828 590.052 571.339 589.625 571.766C589.198 572.182 588.688 572.391 588.094 572.391C587.5 572.391 586.995 572.182 586.578 571.766C586.161 571.339 585.953 570.828 585.953 570.234C585.953 569.651 586.161 569.151 586.578 568.734C586.995 568.307 587.5 568.094 588.094 568.094C588.688 568.094 589.198 568.307 589.625 568.734C590.052 569.151 590.266 569.651 590.266 570.234ZM610.594 572H603.469V570.75L604.781 570.656C604.969 570.635 605.13 570.562 605.266 570.438C605.411 570.312 605.484 570.151 605.484 569.953V561.703C605.484 560.786 605.266 560.031 604.828 559.438C604.391 558.833 603.552 558.531 602.312 558.531C601.75 558.531 601.141 558.62 600.484 558.797C599.839 558.974 599.286 559.193 598.828 559.453V569.953C598.828 570.391 599.042 570.625 599.469 570.656L600.844 570.75V572H593.641V570.75L595.172 570.656C595.62 570.625 595.844 570.391 595.844 569.953V550.719H593.453V549.656L597.547 548.422H598.828V558.172C599.214 557.932 599.714 557.661 600.328 557.359C600.943 557.047 601.589 556.776 602.266 556.547C602.943 556.307 603.557 556.188 604.109 556.188C605.339 556.188 606.37 556.583 607.203 557.375C608.036 558.167 608.453 559.385 608.453 561.031V569.953C608.453 570.151 608.521 570.312 608.656 570.438C608.802 570.562 608.969 570.635 609.156 570.656L610.594 570.75V572ZM627.094 572H622.359L621.938 570.109C621.938 570.109 621.776 570.224 621.453 570.453C621.141 570.682 620.724 570.948 620.203 571.25C619.682 571.552 619.104 571.818 618.469 572.047C617.844 572.276 617.219 572.391 616.594 572.391C615.438 572.391 614.453 572.005 613.641 571.234C612.839 570.464 612.438 569.406 612.438 568.062C612.438 567.469 612.542 566.917 612.75 566.406C612.969 565.896 613.396 565.411 614.031 564.953C614.677 564.484 615.63 564.031 616.891 563.594C618.161 563.146 619.844 562.693 621.938 562.234C621.938 562.203 621.938 562.073 621.938 561.844C621.938 561.615 621.938 561.396 621.938 561.188C621.938 560.969 621.938 560.859 621.938 560.859C621.938 558.755 620.943 557.703 618.953 557.703C618.401 557.703 617.922 557.755 617.516 557.859C617.12 557.964 616.844 558.047 616.688 558.109V560.891H614.359C614.068 560.891 613.797 560.839 613.547 560.734C613.297 560.62 613.172 560.365 613.172 559.969C613.172 559.094 613.505 558.38 614.172 557.828C614.839 557.266 615.682 556.854 616.703 556.594C617.734 556.323 618.776 556.188 619.828 556.188C621.151 556.188 622.177 556.396 622.906 556.812C623.635 557.219 624.146 557.786 624.438 558.516C624.729 559.234 624.875 560.057 624.875 560.984V569.953C624.875 570.151 624.938 570.312 625.062 570.438C625.198 570.562 625.359 570.635 625.547 570.656L627.094 570.75V572ZM621.938 568.984V563.453C620.5 563.807 619.354 564.167 618.5 564.531C617.656 564.885 617.026 565.245 616.609 565.609C616.193 565.964 615.917 566.328 615.781 566.703C615.656 567.068 615.594 567.448 615.594 567.844C615.594 568.5 615.802 569.109 616.219 569.672C616.646 570.224 617.24 570.5 618 570.5C618.427 570.5 618.87 570.427 619.328 570.281C619.786 570.125 620.214 569.948 620.609 569.75C621.005 569.542 621.323 569.365 621.562 569.219C621.812 569.062 621.938 568.984 621.938 568.984ZM641.453 570.812C640.734 571.198 639.922 571.557 639.016 571.891C638.12 572.224 637.13 572.391 636.047 572.391C634.557 572.391 633.26 572.042 632.156 571.344C631.062 570.646 630.214 569.698 629.609 568.5C629.016 567.292 628.719 565.922 628.719 564.391C628.719 562.599 629.073 561.094 629.781 559.875C630.5 558.656 631.443 557.74 632.609 557.125C633.786 556.5 635.057 556.188 636.422 556.188C637.828 556.188 639.005 556.464 639.953 557.016C640.911 557.557 641.391 558.349 641.391 559.391C641.391 560.016 641.193 560.49 640.797 560.812C640.411 561.125 639.979 561.281 639.5 561.281C639.146 561.281 638.839 561.224 638.578 561.109C638.318 560.984 638.089 560.859 637.891 560.734V557.953C637.401 557.672 636.953 557.531 636.547 557.531C635.599 557.531 634.781 557.812 634.094 558.375C633.417 558.927 632.896 559.688 632.531 560.656C632.167 561.625 631.984 562.729 631.984 563.969C631.984 565.146 632.182 566.224 632.578 567.203C632.974 568.172 633.562 568.943 634.344 569.516C635.135 570.089 636.115 570.375 637.281 570.375C638.021 570.375 638.729 570.255 639.406 570.016C640.083 569.776 640.766 569.432 641.453 568.984V570.812ZM659.297 572H654.172V570.75L650.172 564.734H648.391V569.953C648.391 570.391 648.615 570.625 649.062 570.656L650.438 570.75V572H643.172V570.75L644.734 570.656C645.182 570.625 645.406 570.391 645.406 569.953V550.719H642.984V549.656L647.078 548.422H648.391V563.812H649.031L653.734 558.5C653.818 558.396 653.828 558.281 653.766 558.156C653.714 558.031 653.615 557.964 653.469 557.953L652.156 557.828V556.578H658.375V557.828L656.328 558.047L652.094 562.562L657.609 570.562L659.297 570.75V572ZM673.453 570.812C672.734 571.198 671.922 571.557 671.016 571.891C670.12 572.224 669.13 572.391 668.047 572.391C666.557 572.391 665.26 572.042 664.156 571.344C663.062 570.646 662.214 569.698 661.609 568.5C661.016 567.292 660.719 565.922 660.719 564.391C660.719 562.599 661.073 561.094 661.781 559.875C662.5 558.656 663.443 557.74 664.609 557.125C665.786 556.5 667.057 556.188 668.422 556.188C669.828 556.188 671.005 556.464 671.953 557.016C672.911 557.557 673.391 558.349 673.391 559.391C673.391 560.016 673.193 560.49 672.797 560.812C672.411 561.125 671.979 561.281 671.5 561.281C671.146 561.281 670.839 561.224 670.578 561.109C670.318 560.984 670.089 560.859 669.891 560.734V557.953C669.401 557.672 668.953 557.531 668.547 557.531C667.599 557.531 666.781 557.812 666.094 558.375C665.417 558.927 664.896 559.688 664.531 560.656C664.167 561.625 663.984 562.729 663.984 563.969C663.984 565.146 664.182 566.224 664.578 567.203C664.974 568.172 665.562 568.943 666.344 569.516C667.135 570.089 668.115 570.375 669.281 570.375C670.021 570.375 670.729 570.255 671.406 570.016C672.083 569.776 672.766 569.432 673.453 568.984V570.812ZM683.172 572H675.391V570.75L677.094 570.656C677.24 570.646 677.391 570.568 677.547 570.422C677.714 570.266 677.797 570.12 677.797 569.984V550.719H675.359V549.656L679.453 548.422H680.766V569.984C680.766 570.12 680.844 570.266 681 570.422C681.156 570.568 681.302 570.646 681.438 570.656L683.172 570.75V572ZM701.531 572H696.453V570.172C696.089 570.453 695.625 570.766 695.062 571.109C694.5 571.453 693.896 571.75 693.25 572C692.604 572.26 691.964 572.391 691.328 572.391C689.953 572.391 688.87 571.979 688.078 571.156C687.297 570.323 686.906 569.005 686.906 567.203V558.531H684.672V557.438L688.609 556.188H689.891V566.594C689.891 567.729 690.12 568.615 690.578 569.25C691.047 569.885 691.849 570.203 692.984 570.203C693.641 570.203 694.286 570.094 694.922 569.875C695.557 569.646 696.068 569.438 696.453 569.25V558.531H694.203V557.438L698.109 556.188H699.422V569.953C699.422 570.151 699.49 570.312 699.625 570.438C699.771 570.562 699.938 570.635 700.125 570.656L701.531 570.75V572ZM718.922 563.547C718.922 565.151 718.604 566.594 717.969 567.875C717.333 569.146 716.339 570.151 714.984 570.891C713.63 571.63 711.88 572 709.734 572H705.125V550.719H702.703V549.656L706.828 548.422H708.109V557.375C708.474 557.198 709.062 556.958 709.875 556.656C710.698 556.344 711.578 556.188 712.516 556.188C713.922 556.188 715.099 556.526 716.047 557.203C716.995 557.88 717.708 558.781 718.188 559.906C718.677 561.021 718.922 562.234 718.922 563.547ZM715.656 564.188C715.656 562.167 715.229 560.646 714.375 559.625C713.521 558.594 712.318 558.078 710.766 558.078C710.411 558.078 709.958 558.135 709.406 558.25C708.865 558.365 708.432 558.479 708.109 558.594V570.469C708.37 570.479 708.63 570.49 708.891 570.5C709.151 570.5 709.411 570.5 709.672 570.5C711.568 570.5 713.036 570.031 714.078 569.094C715.13 568.156 715.656 566.521 715.656 564.188ZM726.297 570.234C726.297 570.828 726.083 571.339 725.656 571.766C725.229 572.182 724.719 572.391 724.125 572.391C723.531 572.391 723.026 572.182 722.609 571.766C722.193 571.339 721.984 570.828 721.984 570.234C721.984 569.651 722.193 569.151 722.609 568.734C723.026 568.307 723.531 568.094 724.125 568.094C724.719 568.094 725.229 568.307 725.656 568.734C726.083 569.151 726.297 569.651 726.297 570.234ZM742.828 570.812C742.109 571.198 741.297 571.557 740.391 571.891C739.495 572.224 738.505 572.391 737.422 572.391C735.932 572.391 734.635 572.042 733.531 571.344C732.438 570.646 731.589 569.698 730.984 568.5C730.391 567.292 730.094 565.922 730.094 564.391C730.094 562.599 730.448 561.094 731.156 559.875C731.875 558.656 732.818 557.74 733.984 557.125C735.161 556.5 736.432 556.188 737.797 556.188C739.203 556.188 740.38 556.464 741.328 557.016C742.286 557.557 742.766 558.349 742.766 559.391C742.766 560.016 742.568 560.49 742.172 560.812C741.786 561.125 741.354 561.281 740.875 561.281C740.521 561.281 740.214 561.224 739.953 561.109C739.693 560.984 739.464 560.859 739.266 560.734V557.953C738.776 557.672 738.328 557.531 737.922 557.531C736.974 557.531 736.156 557.812 735.469 558.375C734.792 558.927 734.271 559.688 733.906 560.656C733.542 561.625 733.359 562.729 733.359 563.969C733.359 565.146 733.557 566.224 733.953 567.203C734.349 568.172 734.938 568.943 735.719 569.516C736.51 570.089 737.49 570.375 738.656 570.375C739.396 570.375 740.104 570.255 740.781 570.016C741.458 569.776 742.141 569.432 742.828 568.984V570.812ZM760.219 564.312C760.219 565.823 759.906 567.193 759.281 568.422C758.656 569.641 757.771 570.609 756.625 571.328C755.49 572.036 754.141 572.391 752.578 572.391C751.026 572.391 749.682 572.036 748.547 571.328C747.411 570.62 746.536 569.656 745.922 568.438C745.307 567.219 745 565.844 745 564.312C745 562.792 745.307 561.417 745.922 560.188C746.547 558.958 747.432 557.984 748.578 557.266C749.734 556.547 751.099 556.188 752.672 556.188C754.266 556.188 755.625 556.552 756.75 557.281C757.875 558.01 758.734 558.99 759.328 560.219C759.922 561.448 760.219 562.812 760.219 564.312ZM756.891 564.281C756.891 563.115 756.734 562.026 756.422 561.016C756.12 560.005 755.651 559.188 755.016 558.562C754.391 557.938 753.599 557.625 752.641 557.625C751.651 557.625 750.839 557.938 750.203 558.562C749.578 559.188 749.115 560.005 748.812 561.016C748.51 562.026 748.359 563.115 748.359 564.281C748.359 565.438 748.51 566.526 748.812 567.547C749.125 568.557 749.594 569.375 750.219 570C750.854 570.625 751.651 570.938 752.609 570.938C753.589 570.938 754.391 570.625 755.016 570C755.651 569.375 756.12 568.557 756.422 567.547C756.734 566.536 756.891 565.448 756.891 564.281ZM787.812 572H780.641V570.75L781.984 570.656C782.432 570.625 782.656 570.391 782.656 569.953V561.797C782.656 560.807 782.448 560.016 782.031 559.422C781.625 558.828 780.885 558.531 779.812 558.531C779.281 558.531 778.698 558.615 778.062 558.781C777.438 558.948 776.88 559.161 776.391 559.422V569.953C776.391 570.391 776.615 570.625 777.062 570.656L778.406 570.75V572H771.391V570.75L772.734 570.656C773.182 570.625 773.406 570.391 773.406 569.953V561.594C773.406 560.688 773.193 559.953 772.766 559.391C772.339 558.818 771.615 558.531 770.594 558.531C769.99 558.531 769.359 558.635 768.703 558.844C768.047 559.042 767.536 559.245 767.172 559.453V569.953C767.172 570.391 767.396 570.625 767.844 570.656L769.188 570.75V572H761.953V570.75L763.516 570.656C763.964 570.625 764.188 570.391 764.188 569.953V558.844H761.984V557.797L765.859 556.578H767.172V558.172C767.651 557.88 768.188 557.583 768.781 557.281C769.385 556.979 770 556.724 770.625 556.516C771.25 556.297 771.839 556.188 772.391 556.188C773.318 556.188 774.068 556.427 774.641 556.906C775.214 557.375 775.635 557.875 775.906 558.406C776.333 558.135 776.875 557.828 777.531 557.484C778.188 557.13 778.865 556.828 779.562 556.578C780.271 556.318 780.906 556.188 781.469 556.188C782.594 556.188 783.453 556.448 784.047 556.969C784.641 557.479 785.047 558.115 785.266 558.875C785.484 559.625 785.594 560.365 785.594 561.094V569.953C785.594 570.151 785.656 570.312 785.781 570.438C785.917 570.562 786.078 570.635 786.266 570.656L787.812 570.75V572ZM798.703 562.781C798.703 564.531 798.542 566.193 798.219 567.766C797.896 569.339 797.38 570.75 796.672 572C795.964 573.26 795.031 574.286 793.875 575.078C792.719 575.87 791.302 576.359 789.625 576.547V575.141C791.125 574.891 792.318 574.24 793.203 573.188C794.099 572.146 794.74 570.745 795.125 568.984C795.51 567.214 795.703 565.146 795.703 562.781C795.703 560.417 795.51 558.359 795.125 556.609C794.74 554.849 794.099 553.448 793.203 552.406C792.318 551.354 791.125 550.708 789.625 550.469V549.062C791.302 549.25 792.719 549.74 793.875 550.531C795.031 551.323 795.964 552.344 796.672 553.594C797.38 554.833 797.896 556.24 798.219 557.812C798.542 559.385 798.703 561.042 798.703 562.781Z" fill="black"/>
<defs>
<filter id="filter0_d_54_14" x="195.312" y="357.688" width="913.5" height="157.25" filterUnits="userSpaceOnUse" color-interpolation-filters="sRGB">
<feFlood flood-opacity="0" result="BackgroundImageFix"/>
<feColorMatrix in="SourceAlpha" type="matrix" values="0 0 0 0 0 0 0 0 0 0 0 0 0 0 0 0 0 0 127 0" result="hardAlpha"/>
<feOffset dy="4"/>
<feGaussianBlur stdDeviation="15"/>
<feComposite in2="hardAlpha" operator="out"/>
<feColorMatrix type="matrix" values="0 0 0 0 0.575801 0 0 0 0 0 0 0 0 0 0.556608 0 0 0 1 0"/>
<feBlend mode="normal" in2="BackgroundImageFix" result="effect1_dropShadow_54_14"/>
<feBlend mode="normal" in="SourceGraphic" in2="effect1_dropShadow_54_14" result="shape"/>
</filter>
</defs>
</svg>
